<svg width="128" height="26" viewBox="0 0 128 26" fill="none" xmlns="http://www.w3.org/2000/svg">
<g clip-path="url(#clip0_323_34553)">
<path fill-rule="evenodd" clip-rule="evenodd" d="M116.656 25.5636C116.021 25.623 115.927 25.6481 115.834 25.6379H112.785C112.293 25.6379 112.07 25.4243 111.823 24.7371L110.833 21.8827H103.357L102.366 24.7706C102.209 25.3091 101.812 25.6574 101.376 25.6379H98.3519C98.086 25.6704 97.8511 25.4122 98.4475 25.0621C98.3561 24.9359 97.8378 24.8086 97.8842 24.6981H97.8856L106.489 0.3965C106.58 0.164357 106.758 0.13 107.45 0H107.229C107.427 0.13 107.604 0.163429 107.697 0.3965L116.301 24.6981C116.428 25.0092 116.34 25.3964 116.656 25.5636ZM107.092 11.0138H107.066L105.004 16.9724H109.183L107.092 11.0138ZM96.4354 25.6258L96.3039 25.6388H93.0589C92.9358 25.6312 92.818 25.5705 92.7236 25.466C92.6292 25.3615 92.5634 25.2189 92.5363 25.0603L91.3006 13.9016H91.2458L86.6265 25.6016C86.6884 25.8208 86.3522 25.9666 86.1588 25.9991H85.6665C85.57 25.9877 85.4771 25.9456 85.3956 25.8763C85.3142 25.8071 85.2466 25.7129 85.1988 25.6016L80.5535 13.9016H80.4987L79.2911 25.0603C79.2689 25.2221 79.2045 25.3686 79.1091 25.4743C79.0136 25.58 78.8931 25.6382 78.7686 25.6388H75.5278C75.3949 25.6495 75.2642 25.59 75.1645 25.4735C75.0648 25.357 75.0042 25.193 74.9961 25.0176L75.0052 24.8467L78.5302 0.577571C78.1532 0.255357 78.3578 0.148571 78.6047 0H79.0443C79.2341 0.157857 79.4072 0.1495 79.8664 0.360286L85.8873 15.9594H85.9422L92.319 0.360286C92.4238 0.147643 92.5982 0.139286 92.7895 0H93.229C93.4752 0.167143 93.6792 0.256286 93.7214 0.577571L96.8243 24.8458C96.8509 25.017 96.8251 25.1952 96.7525 25.3414C96.6799 25.4876 96.5664 25.5898 96.4368 25.6258H96.4354ZM70.9613 25.6369H67.6635C67.5266 25.6314 67.3964 25.5573 67.2994 25.4297C67.2024 25.3021 67.1457 25.1305 67.141 24.9498V1.04743C67.1456 0.866636 67.2021 0.694944 67.2992 0.567291C67.3963 0.439638 67.5266 0.365616 67.6635 0.360286H70.9613C71.0982 0.365616 71.2285 0.439638 71.3256 0.567291C71.4226 0.694944 71.4792 0.866636 71.4838 1.04743V24.9498C71.4791 25.1305 71.4224 25.3021 71.3254 25.4297C71.2283 25.5573 71.0982 25.6314 70.9613 25.6369ZM39.4908 25.6379H28.1066C27.9684 25.6379 27.8358 25.5656 27.7378 25.4368C27.6399 25.308 27.5846 25.1332 27.584 24.9507L27.5847 1.04743C27.5853 0.864931 27.6406 0.69016 27.7385 0.561375C27.8365 0.43259 27.9691 0.360284 28.1073 0.360286H39.488C39.6261 0.359792 39.7587 0.431685 39.8567 0.560175C39.9547 0.688664 40.01 0.863245 40.0106 1.04557V4.98179C40.0106 5.36157 39.7764 5.66893 39.4887 5.66893H31.8748V10.1456H38.1426C38.4268 10.1558 38.656 10.4566 38.6652 10.8327V14.768C38.6652 14.8584 38.6517 14.9479 38.6254 15.0314C38.5992 15.1149 38.5607 15.1907 38.5122 15.2545C38.4638 15.3184 38.4062 15.3689 38.3429 15.4034C38.2796 15.4378 38.2118 15.4554 38.1433 15.4551H31.8748V20.3301H39.4901C39.6282 20.3296 39.7608 20.4015 39.8588 20.53C39.9568 20.6585 40.0121 20.8331 40.0127 21.0154V24.9507C40.0127 25.0411 39.9992 25.1306 39.9729 25.2141C39.9467 25.2976 39.9082 25.3734 39.8598 25.4373C39.8113 25.5011 39.7537 25.5517 39.6904 25.5861C39.6271 25.6205 39.5593 25.6381 39.4908 25.6379ZM24.3904 25.636H14.0561C13.9877 25.6362 13.9199 25.6187 13.8566 25.5843C13.7933 25.55 13.7357 25.4995 13.6872 25.4358C13.6387 25.3721 13.6001 25.2963 13.5738 25.213C13.5474 25.1296 13.5338 25.0401 13.5336 24.9498V1.04743C13.5337 0.95707 13.5472 0.86762 13.5735 0.784186C13.5998 0.700752 13.6382 0.624968 13.6867 0.56116C13.7352 0.497353 13.7927 0.446773 13.8559 0.412307C13.9192 0.37784 13.987 0.360164 14.0554 0.360286H17.3264C17.8708 0.371429 17.8399 0.671357 17.849 1.04743V20.3283H24.3897C25.2343 20.3274 24.9115 20.6338 24.9122 21.0136V24.9489C24.9122 25.3286 25.2414 25.636 24.3904 25.636Z" fill="black"/>
<path fill-rule="evenodd" clip-rule="evenodd" d="M63.6512 25.6399H60.2866C59.6452 25.6315 59.4722 25.5108 59.3632 25.3121L53.6124 13.158C53.3233 12.8646 53.3233 12.4876 53.6124 12.1951L58.9757 0.687291C59.2176 0.496934 59.2394 0.377148 59.416 0.359505H63.4325C63.552 0.340934 63.6723 0.379934 63.7715 0.469077C63.9951 0.671505 64.5275 1.07543 63.8995 1.37165L58.3434 12.6742L64.1189 24.6287C64.3665 25.3687 64.1189 25.6399 63.6512 25.6399ZM46.7496 25.3139C46.6406 25.5126 46.917 25.6334 46.2819 25.6417H42.4616C41.9939 25.6417 41.7463 25.3873 41.9939 24.6305L47.7694 12.6742L42.3526 1.37165C42.0635 1.07451 42.1226 0.674291 42.3455 0.47372C42.4445 0.383262 42.565 0.343334 42.6845 0.361362H46.6975C46.8741 0.378077 47.0351 0.498791 47.2897 0.689148L52.6495 12.196C53.1763 12.4904 53.1763 12.8655 52.6495 13.1589L46.7496 25.3139Z" fill="#FF325A"/>
<path opacity="0.502" fill-rule="evenodd" clip-rule="evenodd" d="M127.9 13.1587L122.004 25.3118C121.894 25.5105 122.17 25.6312 121.535 25.6396H117.714C117.249 25.6396 116.999 25.3684 117.249 24.6284L123.015 12.6758L117.542 1.3723L117.528 1.37045C117.479 1.3109 117.441 1.2373 117.418 1.15536C117.394 1.07342 117.385 0.985355 117.391 0.89802C117.397 0.810686 117.419 0.726437 117.454 0.65183C117.489 0.577224 117.536 0.514272 117.593 0.467874C117.674 0.395319 117.771 0.356528 117.869 0.356445H117.87L117.869 0.361088H121.943C122.118 0.378731 122.278 0.498517 123.007 0.688874L127.9 12.1957C127.952 12.3009 127.986 12.4198 127.999 12.5439V12.8095C127.986 12.9321 127.953 13.5106 127.9 13.1587ZM10.1999 25.5876H6.41407C6.3228 25.5836 6.23343 25.5521 6.15276 25.4956C6.07208 25.4392 6.00222 25.3591 5.94848 25.2617L0.104088 13.1522C0.400879 13.1763 0.492308 12.8662 0 12.7139V12.6312C0.492308 12.4789 0.400879 12.3267 0.104088 12.192L5.5687 0.726017C6.05539 0.536588 5.82822 0.416802 6.00193 0.39916H9.97908L10.0382 0.394517H10.0389C10.128 0.394901 10.2153 0.4272 10.2916 0.48797C10.3679 0.54874 10.4302 0.635703 10.472 0.739588C10.5138 0.843473 10.5335 0.960386 10.5289 1.07786C10.5243 1.19534 10.4957 1.30898 10.4461 1.40666L5.11297 12.6702L10.6613 24.5801C10.7229 24.6909 10.7571 24.8242 10.759 24.9617V24.9701C10.7576 25.3053 10.5354 25.5876 10.1999 25.5876Z" fill="#FF325A"/>
</g>
<defs>
<clipPath id="clip0_323_34553">
<rect width="128" height="26" fill="white"/>
</clipPath>
</defs>
</svg>
