<svg width="90" height="54" viewBox="0 0 90 54" fill="none" xmlns="http://www.w3.org/2000/svg">
<g clip-path="url(#clip0_323_34580)">
<mask id="mask0_323_34580" style="mask-type:luminance" maskUnits="userSpaceOnUse" x="0" y="0" width="90" height="54">
<path d="M90 0H0V54H90V0Z" fill="white"/>
</mask>
<g mask="url(#mask0_323_34580)">
<path d="M26.3652 39.8869C23.6581 39.8869 21.2696 39.3295 19.1995 38.2149C17.1611 37.1002 15.5688 35.5715 14.4223 33.6288C13.3076 31.6861 12.7502 29.4568 12.7502 26.9408C12.7502 24.4248 13.2917 22.1955 14.3745 20.2528C15.4892 18.3101 17.0019 16.7973 18.9128 15.7145C20.8555 14.5999 23.0371 14.0425 25.4575 14.0425C27.9098 14.0425 30.0754 14.5839 31.9544 15.6667C33.8334 16.7496 35.2984 18.2782 36.3494 20.2528C37.4322 22.1955 37.9736 24.4726 37.9736 27.0841C37.9736 27.2752 37.9577 27.4981 37.9259 27.7529C37.9259 28.0077 37.9099 28.2465 37.8781 28.4695H16.3331V25.1732H35.4895L33.6264 26.3197C33.6582 24.6955 33.3239 23.2465 32.6232 21.9726C31.9226 20.6987 30.9512 19.7114 29.7091 19.0108C28.4989 18.2782 27.0818 17.912 25.4575 17.912C23.8651 17.912 22.4479 18.2782 21.2058 19.0108C19.9637 19.7114 18.9924 20.7145 18.2917 22.0204C17.5911 23.2942 17.2408 24.7592 17.2408 26.4153V27.1797C17.2408 28.8676 17.6229 30.3804 18.3873 31.7179C19.1835 33.0237 20.2823 34.0428 21.6836 34.7753C23.0849 35.5078 24.6932 35.874 26.5085 35.874C28.0053 35.874 29.3588 35.6193 30.569 35.1097C31.8111 34.6002 32.8939 33.8358 33.8174 32.8167L36.3494 35.7785C35.2028 37.1161 33.7697 38.1352 32.0499 38.8359C30.362 39.5365 28.4671 39.8869 26.3652 39.8869Z" fill="#FFB22B"/>
<path d="M40.9601 13.4101C38.2651 10.402 34.6723 8.14015 30.459 7.08665C19.2445 4.28252 7.88004 11.1006 5.07591 22.3151C2.27178 33.5297 9.08976 44.8941 20.3044 47.6982C28.2576 49.6869 36.2861 46.8361 41.2834 41.0098" stroke="#FFB22B" stroke-width="2.6445"/>
<path d="M41.2666 28.3189L44.7445 23.2498L41.5904 18.6597H43.8293L45.9695 21.8841H46.0398L48.1801 18.6597H50.2781L47.1241 23.2358L50.6161 28.3189H48.3913L45.9131 24.5875H45.8287L43.3786 28.3189H41.2666Z" fill="#020202"/>
<path d="M51.9753 28.3189V18.6597H53.8058V28.3189H51.9753Z" fill="#020202"/>
<path d="M56.0901 28.3189V18.6597H57.9206V26.7278H62.7643V28.3189H56.0901Z" fill="#020202"/>
<path d="M64.2612 28.3189V18.6597H66.0917V28.3189H64.2612Z" fill="#020202"/>
<path d="M72.8113 28.4879C71.8069 28.4879 70.9386 28.3095 70.2065 27.9529C69.4742 27.5868 68.911 27.0329 68.5168 26.2914C68.132 25.5498 67.9395 24.6158 67.9395 23.4893C67.9395 22.3535 68.132 21.4195 68.5168 20.6873C68.911 19.9458 69.4742 19.3966 70.2065 19.0399C70.9386 18.6738 71.8069 18.4907 72.8113 18.4907C73.8252 18.4907 74.6934 18.6738 75.4163 19.0399C76.1484 19.3966 76.707 19.9458 77.0918 20.6873C77.4861 21.4195 77.6832 22.3535 77.6832 23.4893C77.6832 24.6158 77.4861 25.5498 77.0918 26.2914C76.707 27.0329 76.1484 27.5868 75.4163 27.9529C74.6934 28.3095 73.8252 28.4879 72.8113 28.4879ZM72.8113 26.939C73.2995 26.939 73.7265 26.8686 74.0927 26.7279C74.4681 26.587 74.7826 26.3806 75.036 26.1083C75.2895 25.8267 75.482 25.4841 75.6134 25.0804C75.7448 24.6674 75.8105 24.1934 75.8105 23.6583V23.3486C75.8105 22.8041 75.7448 22.3254 75.6134 21.9123C75.482 21.4992 75.2895 21.1566 75.036 20.8845C74.7826 20.6028 74.4681 20.3916 74.0927 20.2509C73.7265 20.11 73.2995 20.0396 72.8113 20.0396C72.3233 20.0396 71.8914 20.11 71.516 20.2509C71.1498 20.3916 70.8401 20.6028 70.5866 20.8845C70.3332 21.1566 70.1408 21.4992 70.0094 21.9123C69.8873 22.3254 69.8263 22.8041 69.8263 23.3486V23.6583C69.8263 24.1934 69.8873 24.6674 70.0094 25.0804C70.1408 25.4841 70.3332 25.8267 70.5866 26.1083C70.8401 26.3806 71.1498 26.587 71.516 26.7279C71.8914 26.8686 72.3233 26.939 72.8113 26.939Z" fill="#020202"/>
<path d="M79.5308 28.3189V18.6597H81.2768L85.4024 24.3622C85.4493 24.4186 85.5056 24.4983 85.5714 24.6016C85.6371 24.6955 85.6981 24.7894 85.7544 24.8833C85.8107 24.9771 85.8482 25.0522 85.867 25.1085H85.9374C85.9374 24.9771 85.9374 24.8504 85.9374 24.7284C85.9374 24.6063 85.9374 24.4843 85.9374 24.3622V18.6597H87.6975V28.3189H85.9656L81.8259 22.574C81.7508 22.4614 81.6617 22.3253 81.5584 22.1657C81.4645 21.9967 81.3988 21.8794 81.3613 21.8136H81.2909C81.2909 21.9357 81.2909 22.0624 81.2909 22.1939C81.2909 22.3159 81.2909 22.4426 81.2909 22.574V28.3189H79.5308Z" fill="#020202"/>
<path d="M42.9484 36.2323C42.6908 36.2323 42.4885 36.1824 42.3412 36.0825C42.1941 35.9773 42.0889 35.8459 42.0259 35.6882C41.968 35.5253 41.9391 35.3597 41.9391 35.1915V32.7787H41.4424V31.9902H41.9628L42.1363 30.8311H42.9011V31.9902H43.6186V32.7787H42.9011V35.0969C42.9011 35.2072 42.93 35.294 42.9878 35.3571C43.0456 35.4148 43.1324 35.4437 43.2481 35.4437H43.6186V36.1061C43.566 36.1271 43.5003 36.1456 43.4215 36.1613C43.3479 36.1824 43.269 36.1981 43.185 36.2086C43.1008 36.2244 43.022 36.2323 42.9484 36.2323Z" fill="#020202"/>
<path d="M46.1137 36.2322C45.6722 36.2322 45.3042 36.156 45.0099 36.0036C44.7155 35.8459 44.4947 35.6067 44.3475 35.286C44.2003 34.9653 44.1267 34.558 44.1267 34.0639C44.1267 33.5645 44.2003 33.157 44.3475 32.8417C44.4947 32.521 44.7155 32.2845 45.0099 32.132C45.3042 31.9743 45.6722 31.8955 46.1137 31.8955C46.5132 31.8955 46.8471 31.9716 47.1152 32.1241C47.3885 32.2713 47.5935 32.4999 47.7301 32.8101C47.8668 33.1202 47.9352 33.5224 47.9352 34.0165V34.3004H45.1123C45.1228 34.558 45.1622 34.7761 45.2306 34.9549C45.299 35.1283 45.4041 35.2597 45.546 35.3491C45.6932 35.4332 45.885 35.4753 46.1217 35.4753C46.2425 35.4753 46.3556 35.4595 46.4607 35.4279C46.5658 35.3964 46.6578 35.3491 46.7366 35.286C46.8155 35.2177 46.8759 35.1335 46.918 35.0337C46.9653 34.9338 46.989 34.8182 46.989 34.6868H47.9352C47.9352 34.9496 47.8878 35.1783 47.7932 35.3727C47.7039 35.5672 47.5751 35.7275 47.4068 35.8537C47.2439 35.9799 47.0521 36.0745 46.8313 36.1376C46.6105 36.2007 46.3713 36.2322 46.1137 36.2322ZM45.1281 33.6222H46.9338C46.9338 33.4488 46.9127 33.3017 46.8707 33.1807C46.8339 33.0598 46.7787 32.9599 46.7051 32.8811C46.6368 32.8023 46.5527 32.7471 46.4528 32.7155C46.353 32.6787 46.2399 32.6603 46.1137 32.6603C45.9087 32.6603 45.7353 32.6944 45.5933 32.7628C45.4566 32.8311 45.3515 32.9363 45.2779 33.0782C45.2044 33.2201 45.1544 33.4015 45.1281 33.6222Z" fill="#020202"/>
<path d="M50.4785 36.2322C50.0474 36.2322 49.6873 36.156 49.3982 36.0036C49.1143 35.8459 48.9015 35.6067 48.7596 35.286C48.6176 34.9653 48.5466 34.558 48.5466 34.0639C48.5466 33.5645 48.6176 33.157 48.7596 32.8417C48.9067 32.521 49.1223 32.2845 49.4061 32.132C49.6952 31.9743 50.0527 31.8955 50.4785 31.8955C50.757 31.8955 51.0041 31.9296 51.2196 31.998C51.4352 32.0663 51.6191 32.1714 51.7716 32.3134C51.9293 32.4501 52.0475 32.6209 52.1264 32.8259C52.2052 33.0309 52.2447 33.2701 52.2447 33.5434H51.267C51.267 33.3489 51.2381 33.1886 51.1802 33.0624C51.1224 32.9363 51.0331 32.8417 50.9121 32.7786C50.7965 32.7103 50.6467 32.6761 50.4627 32.6761C50.2472 32.6761 50.0711 32.726 49.9344 32.8259C49.7977 32.9257 49.6952 33.0756 49.6269 33.2753C49.5638 33.4699 49.5322 33.7169 49.5322 34.0165V34.119C49.5322 34.4134 49.5638 34.6605 49.6269 34.8602C49.6952 35.06 49.8003 35.2098 49.9423 35.3097C50.0842 35.4042 50.2708 35.4516 50.5021 35.4516C50.6808 35.4516 50.828 35.4201 50.9437 35.357C51.0646 35.2886 51.1565 35.1888 51.2196 35.0574C51.2827 34.9259 51.3142 34.7682 51.3142 34.5843H52.2447C52.2447 34.8418 52.2052 35.0731 52.1264 35.2782C52.0475 35.4832 51.9319 35.6566 51.7795 35.7985C51.6271 35.9405 51.4404 36.0482 51.2196 36.1218C51.0041 36.1954 50.757 36.2322 50.4785 36.2322Z" fill="#020202"/>
<path d="M53.0637 36.1373V30.4365H54.0257V32.463H54.0809C54.1703 32.3525 54.2754 32.2552 54.3963 32.1712C54.5172 32.087 54.6538 32.0213 54.8063 31.9741C54.964 31.9215 55.1375 31.8952 55.3267 31.8952C55.5896 31.8952 55.8209 31.9425 56.0206 32.0372C56.2256 32.1318 56.3859 32.2842 56.5015 32.4945C56.6172 32.7047 56.6751 32.986 56.6751 33.3381V36.1373H55.7052V33.5116C55.7052 33.3644 55.6868 33.2435 55.65 33.1489C55.6185 33.049 55.5685 32.9702 55.5002 32.9123C55.4371 32.8492 55.3583 32.8046 55.2637 32.7783C55.169 32.752 55.0639 32.7389 54.9482 32.7389C54.7748 32.7389 54.617 32.7809 54.4751 32.8651C54.3385 32.9491 54.2281 33.0648 54.144 33.212C54.0652 33.3592 54.0257 33.53 54.0257 33.7245V36.1373H53.0637Z" fill="#020202"/>
<path d="M57.6685 36.1376V31.9901H58.4728L58.5516 32.5421H58.6068C58.7014 32.4159 58.8118 32.3055 58.938 32.2109C59.0694 32.111 59.2165 32.0347 59.3795 31.9822C59.5477 31.9244 59.7317 31.8955 59.9315 31.8955C60.1943 31.8955 60.4256 31.9428 60.6253 32.0374C60.8303 32.132 60.9907 32.2845 61.1064 32.4947C61.222 32.705 61.2798 32.9862 61.2798 33.3384V36.1376H60.31V33.5119C60.31 33.3647 60.2916 33.2438 60.2548 33.1492C60.2232 33.0493 60.1732 32.9705 60.1049 32.9126C60.0418 32.8495 59.963 32.8049 59.8684 32.7786C59.7738 32.7523 59.6686 32.7392 59.553 32.7392C59.3795 32.7392 59.2219 32.7812 59.0799 32.8653C58.9432 32.9494 58.8329 33.0651 58.7487 33.2123C58.6699 33.3594 58.6305 33.5303 58.6305 33.7248V36.1376H57.6685Z" fill="#020202"/>
<path d="M64.1182 36.2322C63.6662 36.2322 63.2876 36.156 62.9828 36.0036C62.6779 35.8459 62.4492 35.6067 62.2968 35.286C62.1443 34.9653 62.0681 34.558 62.0681 34.0639C62.0681 33.5645 62.1443 33.157 62.2968 32.8417C62.4492 32.521 62.6779 32.2845 62.9828 32.132C63.2876 31.9743 63.6662 31.8955 64.1182 31.8955C64.5755 31.8955 64.954 31.9743 65.2537 32.132C65.5585 32.2845 65.7872 32.521 65.9396 32.8417C66.0921 33.157 66.1683 33.5645 66.1683 34.0639C66.1683 34.558 66.0921 34.9653 65.9396 35.286C65.7872 35.6067 65.5585 35.8459 65.2537 36.0036C64.954 36.156 64.5755 36.2322 64.1182 36.2322ZM64.1182 35.4437C64.3705 35.4437 64.5729 35.3964 64.7254 35.3017C64.883 35.2019 64.9961 35.0547 65.0644 34.8602C65.138 34.6605 65.1748 34.4134 65.1748 34.119V34.0086C65.1748 33.7142 65.138 33.4699 65.0644 33.2753C64.9961 33.0756 64.883 32.9284 64.7254 32.8338C64.5729 32.7339 64.3705 32.684 64.1182 32.684C63.8659 32.684 63.6608 32.7339 63.5032 32.8338C63.3507 32.9284 63.2378 33.0756 63.1641 33.2753C63.0958 33.4699 63.0616 33.7142 63.0616 34.0086V34.119C63.0616 34.4134 63.0958 34.6605 63.1641 34.8602C63.2378 35.0547 63.3507 35.2019 63.5032 35.3017C63.6608 35.3964 63.8659 35.4437 64.1182 35.4437Z" fill="#020202"/>
<path d="M66.9856 36.1373V30.4365H67.9475V36.1373H66.9856Z" fill="#020202"/>
<path d="M70.8174 36.2322C70.3654 36.2322 69.9868 36.156 69.682 36.0036C69.3771 35.8459 69.1484 35.6067 68.996 35.286C68.8436 34.9653 68.7673 34.558 68.7673 34.0639C68.7673 33.5645 68.8436 33.157 68.996 32.8417C69.1484 32.521 69.3771 32.2845 69.682 32.132C69.9868 31.9743 70.3654 31.8955 70.8174 31.8955C71.2747 31.8955 71.6532 31.9743 71.9529 32.132C72.2577 32.2845 72.4864 32.521 72.6389 32.8417C72.7913 33.157 72.8675 33.5645 72.8675 34.0639C72.8675 34.558 72.7913 34.9653 72.6389 35.286C72.4864 35.6067 72.2577 35.8459 71.9529 36.0036C71.6532 36.156 71.2747 36.2322 70.8174 36.2322ZM70.8174 35.4437C71.0697 35.4437 71.2721 35.3964 71.4246 35.3017C71.5823 35.2019 71.6953 35.0547 71.7636 34.8602C71.8372 34.6605 71.874 34.4134 71.874 34.119V34.0086C71.874 33.7142 71.8372 33.4699 71.7636 33.2753C71.6953 33.0756 71.5823 32.9284 71.4246 32.8338C71.2721 32.7339 71.0697 32.684 70.8174 32.684C70.5651 32.684 70.3601 32.7339 70.2024 32.8338C70.0499 32.9284 69.9369 33.0756 69.8634 33.2753C69.795 33.4699 69.7608 33.7142 69.7608 34.0086V34.119C69.7608 34.4134 69.795 34.6605 69.8634 34.8602C69.9369 35.0547 70.0499 35.2019 70.2024 35.3017C70.3601 35.3964 70.5651 35.4437 70.8174 35.4437Z" fill="#020202"/>
<path d="M74.3708 37.5727C74.1869 37.5727 74.0133 37.536 73.8504 37.4624C73.6875 37.3887 73.5561 37.2784 73.4562 37.1312C73.3563 36.9892 73.3064 36.8132 73.3064 36.6029C73.3064 36.3716 73.3721 36.1902 73.5035 36.0588C73.6401 35.9222 73.79 35.8197 73.953 35.7513C73.832 35.6882 73.7322 35.6041 73.6533 35.499C73.5797 35.3939 73.5429 35.2677 73.5429 35.1205C73.5429 34.9208 73.6165 34.7631 73.7637 34.6474C73.9108 34.5265 74.079 34.4476 74.2683 34.4108C74.0738 34.2899 73.924 34.1349 73.8189 33.9456C73.719 33.7564 73.6691 33.5409 73.6691 33.299C73.6691 33.01 73.7374 32.7629 73.8741 32.5579C74.016 32.3477 74.221 32.1847 74.4891 32.069C74.7572 31.9534 75.0805 31.8956 75.4589 31.8956C75.6114 31.8956 75.7586 31.906 75.9006 31.9271C76.0425 31.9481 76.1713 31.9796 76.2868 32.0217C76.4709 31.9113 76.5971 31.7878 76.6654 31.6511C76.7337 31.5092 76.7705 31.3936 76.7757 31.3042H77.7141C77.7141 31.4882 77.6772 31.6511 77.6036 31.7931C77.5353 31.935 77.4381 32.0533 77.3119 32.1479C77.1858 32.2372 77.0333 32.3029 76.8546 32.345C76.986 32.4606 77.0859 32.5999 77.1543 32.7629C77.2226 32.9258 77.2568 33.1046 77.2568 33.299C77.2568 33.5882 77.1884 33.8379 77.0517 34.0481C76.9203 34.2584 76.7232 34.4213 76.4604 34.537C76.2028 34.6526 75.8847 34.7105 75.5063 34.7105H74.8676C74.7572 34.7105 74.6704 34.7341 74.6073 34.7814C74.5496 34.8288 74.5207 34.8945 74.5207 34.9785C74.5207 35.0469 74.547 35.1073 74.5995 35.1599C74.6573 35.2125 74.7361 35.2388 74.836 35.2388H76.6496C76.9598 35.2388 77.2146 35.3413 77.4144 35.5463C77.6195 35.7461 77.722 36.0036 77.722 36.319C77.722 36.5556 77.6589 36.7685 77.5327 36.9577C77.4118 37.1469 77.2409 37.2968 77.0202 37.4072C76.7994 37.5175 76.5418 37.5727 76.2474 37.5727H74.3708ZM74.7178 36.8789H76.2396C76.3395 36.8789 76.4262 36.8604 76.4998 36.8236C76.5786 36.7921 76.6391 36.7448 76.6811 36.6817C76.7285 36.6186 76.752 36.5477 76.752 36.4688C76.752 36.3321 76.7074 36.2296 76.618 36.1613C76.534 36.093 76.4288 36.0588 76.3027 36.0588H74.7178C74.5916 36.0588 74.4865 36.0956 74.4023 36.1692C74.3183 36.2481 74.2762 36.348 74.2762 36.4688C74.2762 36.5897 74.3157 36.687 74.3945 36.7605C74.4786 36.8395 74.5864 36.8789 74.7178 36.8789ZM75.4668 34.0324C75.7455 34.0324 75.9531 33.9693 76.0897 33.8431C76.2317 33.7117 76.3027 33.5303 76.3027 33.299C76.3027 33.0677 76.2317 32.8891 76.0897 32.7629C75.9531 32.6367 75.7455 32.5736 75.4668 32.5736C75.1882 32.5736 74.978 32.6367 74.836 32.7629C74.6993 32.8891 74.631 33.0677 74.631 33.299C74.631 33.4515 74.6599 33.5829 74.7178 33.6933C74.7809 33.8037 74.8728 33.8878 74.9937 33.9456C75.1199 34.0035 75.2776 34.0324 75.4668 34.0324Z" fill="#020202"/>
<path d="M78.3435 31.3511V30.4365H79.3055V31.3511H78.3435ZM78.3435 36.1373V31.9898H79.3055V36.1373H78.3435Z" fill="#020202"/>
<path d="M82.112 36.2322C81.6705 36.2322 81.3025 36.156 81.0081 36.0036C80.7138 35.8459 80.493 35.6067 80.3458 35.286C80.1986 34.9653 80.125 34.558 80.125 34.0639C80.125 33.5645 80.1986 33.157 80.3458 32.8417C80.493 32.521 80.7138 32.2845 81.0081 32.132C81.3025 31.9743 81.6705 31.8955 82.112 31.8955C82.5115 31.8955 82.8453 31.9716 83.1134 32.1241C83.3868 32.2713 83.5918 32.4999 83.7284 32.8101C83.8651 33.1202 83.9334 33.5224 83.9334 34.0165V34.3004H81.1106C81.1211 34.558 81.1605 34.7761 81.2289 34.9549C81.2973 35.1283 81.4024 35.2597 81.5443 35.3491C81.6914 35.4332 81.8833 35.4753 82.1199 35.4753C82.2408 35.4753 82.3538 35.4595 82.459 35.4279C82.5641 35.3964 82.6561 35.3491 82.7349 35.286C82.8137 35.2177 82.8742 35.1335 82.9163 35.0337C82.9636 34.9338 82.9873 34.8182 82.9873 34.6868H83.9334C83.9334 34.9496 83.8861 35.1783 83.7915 35.3727C83.7021 35.5672 83.5733 35.7275 83.4051 35.8537C83.2421 35.9799 83.0504 36.0745 82.8296 36.1376C82.6087 36.2007 82.3696 36.2322 82.112 36.2322ZM81.1264 33.6222H82.9321C82.9321 33.4488 82.911 33.3017 82.869 33.1807C82.8322 33.0598 82.7769 32.9599 82.7034 32.8811C82.6351 32.8023 82.5509 32.7471 82.451 32.7155C82.3512 32.6787 82.2382 32.6603 82.112 32.6603C81.907 32.6603 81.7336 32.6944 81.5916 32.7628C81.4549 32.8311 81.3498 32.9363 81.2762 33.0782C81.2027 33.2201 81.1527 33.4015 81.1264 33.6222Z" fill="#020202"/>
<path d="M86.3665 36.2322C86.0669 36.2322 85.8041 36.2006 85.578 36.1376C85.3519 36.0692 85.1627 35.9773 85.0103 35.8616C84.8578 35.746 84.7422 35.6119 84.6633 35.4595C84.5897 35.3017 84.553 35.1309 84.553 34.9469C84.553 34.9207 84.553 34.897 84.553 34.8759C84.5582 34.855 84.5608 34.8392 84.5608 34.8287H85.507C85.507 34.8392 85.507 34.8497 85.507 34.8602C85.507 34.8707 85.507 34.8812 85.507 34.8918C85.5123 35.0337 85.5569 35.1494 85.6411 35.2387C85.7251 35.3228 85.8356 35.3833 85.9723 35.4201C86.1089 35.4568 86.2534 35.4752 86.4059 35.4752C86.5426 35.4752 86.6714 35.4621 86.7923 35.4358C86.9184 35.4042 87.021 35.357 87.0998 35.2939C87.1839 35.2256 87.226 35.1388 87.226 35.0337C87.226 34.897 87.1734 34.7919 87.0682 34.7183C86.9631 34.6447 86.8238 34.5842 86.6503 34.5369C86.4821 34.4897 86.3008 34.4397 86.1063 34.3871C85.9329 34.3398 85.7593 34.2872 85.5859 34.2294C85.4124 34.1716 85.2547 34.098 85.1128 34.0086C84.9761 33.9192 84.8631 33.8036 84.7737 33.6617C84.6896 33.5197 84.6476 33.3437 84.6476 33.1334C84.6476 32.9284 84.6922 32.7497 84.7816 32.5972C84.8709 32.4448 84.9945 32.3186 85.1522 32.2188C85.3099 32.1136 85.4965 32.0347 85.712 31.9822C85.9275 31.9296 86.1615 31.9033 86.4138 31.9033C86.6609 31.9033 86.8843 31.9296 87.0841 31.9822C87.2891 32.0347 87.4651 32.111 87.6123 32.2109C87.7647 32.3054 87.8804 32.4238 87.9592 32.5657C88.0434 32.7023 88.0854 32.8548 88.0854 33.023C88.0854 33.0598 88.0828 33.0966 88.0776 33.1334C88.0776 33.1702 88.0776 33.1912 88.0776 33.1964H87.1392V33.1413C87.1392 33.0414 87.1076 32.9573 87.0446 32.889C86.9868 32.8154 86.9 32.7575 86.7843 32.7155C86.674 32.6735 86.5347 32.6524 86.3665 32.6524C86.2403 32.6524 86.13 32.6629 86.0353 32.684C85.9407 32.705 85.8618 32.7339 85.7988 32.7706C85.741 32.8075 85.6962 32.8496 85.6647 32.8968C85.6332 32.9442 85.6174 32.9967 85.6174 33.0545C85.6174 33.1544 85.6568 33.2333 85.7357 33.2911C85.8145 33.3489 85.9196 33.3989 86.0511 33.4409C86.1877 33.483 86.335 33.5276 86.4927 33.575C86.6819 33.6275 86.8764 33.6827 87.0761 33.7406C87.2759 33.7931 87.4599 33.8615 87.6281 33.9455C87.8015 34.0297 87.9408 34.1479 88.046 34.3004C88.1511 34.4528 88.2036 34.6552 88.2036 34.9075C88.2036 35.1494 88.1564 35.357 88.0617 35.5304C87.9723 35.6986 87.8436 35.8353 87.6753 35.9405C87.5124 36.0404 87.318 36.1139 87.0919 36.1612C86.8711 36.2086 86.6293 36.2322 86.3665 36.2322Z" fill="#020202"/>
</g>
</g>
<defs>
<clipPath id="clip0_323_34580">
<rect width="90" height="54" fill="white"/>
</clipPath>
</defs>
</svg>
