<svg width="64" height="64" viewBox="0 0 64 64" fill="none" xmlns="http://www.w3.org/2000/svg">
<path d="M48.4452 30.3827C48.3806 31.8295 48.3215 33.2818 48.2569 34.7286C48.2301 35.4117 48.1978 36.0948 48.187 36.7779C48.1548 38.343 47.9719 39.8867 47.5362 41.3927C46.9499 43.4151 46.0248 45.2492 44.5296 46.7605C42.8461 48.4656 40.7861 49.4929 38.4679 50.0146C36.5639 50.4395 34.6545 50.504 32.7558 50.0146C32.1588 49.864 31.5779 49.6542 31.0239 49.3853C28.4475 48.1213 25.9088 46.7767 23.4831 45.2438C21.052 43.7109 18.7069 42.0489 16.4533 40.2686C15.3399 39.3865 14.5439 38.2408 13.9092 36.9822C12.941 35.0782 12.4408 32.9644 12.4623 30.8291C12.4838 27.9085 13.5273 25.386 15.4744 23.2238C16.6361 21.9275 17.9754 20.8357 19.5029 20.0127C23.2034 18.0065 26.9254 16.038 30.642 14.064C31.6801 13.5154 32.7773 13.1497 33.9552 13.0582C35.1654 12.9614 36.381 13.0152 37.575 13.225C39.1994 13.5154 40.743 14.0264 42.1791 14.8332C43.3301 15.484 44.3037 16.3499 45.1858 17.3235C46.5788 18.8564 47.6492 20.5775 48.2569 22.5783C48.4828 23.3152 48.5581 24.0682 48.5581 24.8266C48.5581 25.1493 48.553 25.472 48.5474 25.7894C48.5151 28.0645 48.5151 28.1613 48.499 28.6454C48.4939 29.0649 48.4721 29.662 48.4452 30.3827Z" fill="url(#paint0_radial_323_34494)"/>
<path d="M0 37.4985L2.57097 33.8518C4.89991 35.7075 7.05135 36.638 9.03067 36.638C9.97193 36.638 10.7303 36.439 11.3112 36.0409C11.8921 35.6429 12.1825 35.1051 12.1825 34.4327C12.1825 33.7819 11.9082 33.2656 11.3542 32.8837C10.8056 32.5072 10.1064 32.1737 9.27271 31.8887C8.43365 31.6036 7.53542 31.3131 6.57803 31.0173C5.62064 30.7215 4.72241 30.3342 3.88335 29.8555C3.04429 29.3768 2.35045 28.7529 1.80183 27.9892C1.25322 27.2254 0.973527 26.2196 0.973527 24.9718C0.973527 23.9929 1.16178 23.0893 1.53828 22.261C1.91478 21.4326 2.44189 20.7227 3.11421 20.131C3.78654 19.5394 4.59871 19.0822 5.55072 18.7541C6.49735 18.426 7.53542 18.2646 8.65955 18.2646C10.0687 18.2646 11.4564 18.5174 12.8226 19.0123C14.1888 19.5125 15.5065 20.2547 16.7705 21.2336L14.1995 24.8803C12.1556 23.2883 10.2678 22.4922 8.53584 22.4922C7.68064 22.4922 6.99756 22.6697 6.49735 23.0301C5.99714 23.3851 5.74973 23.8745 5.74973 24.4823C5.74973 25.117 6.02404 25.6172 6.57803 25.9829C7.12665 26.3487 7.82049 26.6714 8.65955 26.9457C9.49861 27.22 10.3968 27.4997 11.3542 27.7902C12.3116 28.0752 13.2098 28.4625 14.0489 28.9519C14.888 29.4414 15.5818 30.0761 16.1304 30.8506C16.679 31.6251 16.9587 32.647 16.9587 33.911C16.9587 34.9329 16.7597 35.8688 16.3617 36.7294C15.9637 37.59 15.4097 38.3215 14.7105 38.9346C14.0059 39.5478 13.1561 40.0211 12.1664 40.36C11.1767 40.6988 10.0795 40.8655 8.8747 40.8655C7.34179 40.8655 5.82503 40.5805 4.32978 40.0103C2.83452 39.4402 1.39306 38.6011 0 37.4985Z" fill="#124363"/>
<path d="M39.0756 29.5382C39.0756 31.2109 38.8335 32.7492 38.3548 34.1477C37.8761 35.5461 37.1984 36.7402 36.3163 37.7298C35.4396 38.7195 34.3854 39.4886 33.1645 40.0426C31.9381 40.5912 30.5935 40.8709 29.1198 40.8709C27.646 40.8709 26.3067 40.602 25.0912 40.0587C23.8756 39.5155 22.8376 38.7518 21.9662 37.7621C21.1056 36.7724 20.4333 35.5784 19.9546 34.1907C19.4759 32.803 19.2339 31.2701 19.2339 29.5974C19.2339 27.9031 19.4759 26.3594 19.9546 24.9718C20.4333 23.5841 21.111 22.3954 21.9931 21.4058C22.8698 20.4161 23.9187 19.6469 25.1342 19.093C26.3498 18.5443 27.6998 18.2646 29.1897 18.2646C30.658 18.2646 32.0027 18.5336 33.2183 19.0768C34.4338 19.6201 35.4719 20.3838 36.3432 21.3735C37.2092 22.3631 37.8869 23.5518 38.3656 24.9395C38.8389 26.3326 39.0756 27.8655 39.0756 29.5382ZM34.1756 29.5382C34.1756 27.333 33.7292 25.6064 32.8418 24.364C31.9543 23.1215 30.7226 22.4976 29.152 22.4976C27.5815 22.4976 26.3498 23.1269 25.4623 24.3801C24.5748 25.6333 24.1284 27.3652 24.1284 29.5705C24.1284 31.7757 24.5748 33.5076 25.4623 34.7608C26.3498 36.014 27.5707 36.6433 29.1198 36.6433C30.6903 36.6433 31.9274 36.014 32.8256 34.7608C33.7292 33.5022 34.1756 31.7649 34.1756 29.5382Z" fill="#124363"/>
<path d="M63.9999 39.9191C63.9999 39.8922 63.9999 39.8599 63.9999 39.833H54.2378L44.0184 46.6477C46.1215 49.3747 49.3701 50.9775 52.8125 50.9882H52.877C58.9925 50.9667 63.9515 46.0292 63.9999 39.9191Z" fill="#F30302"/>
<path d="M63.9999 39.833C63.9999 33.6852 59.0247 28.6992 52.8824 28.6777H52.8125C49.3648 28.6829 46.1215 30.2859 44.0184 33.0183L54.2378 39.833H63.9999Z" fill="white"/>
<path d="M44.0185 33.0181C42.5071 34.9705 41.6896 37.364 41.695 39.8328C41.695 39.8596 41.695 39.8919 41.695 39.9188C41.7111 42.3553 42.5287 44.7165 44.0185 46.6421L54.2379 39.8274L44.0185 33.0181Z" fill="#1B01E4"/>
<defs>
<radialGradient id="paint0_radial_323_34494" cx="0" cy="0" r="1" gradientUnits="userSpaceOnUse" gradientTransform="translate(30.5111 31.683) scale(18.3657 18.3657)">
<stop stop-color="#F4CF00"/>
<stop offset="0.59" stop-color="#F4C600"/>
<stop offset="0.99" stop-color="#F3BC00"/>
</radialGradient>
</defs>
</svg>
