<svg width="123" height="29" viewBox="0 0 123 29" fill="none" xmlns="http://www.w3.org/2000/svg">
<g clip-path="url(#clip0_323_34479)">
<path d="M38.1587 22.8281H41.4989V13.3779C41.4989 11.3303 43.336 9.59779 45.8411 9.59779C48.1458 9.59779 49.8493 11.3303 49.8493 13.3779V22.8281H53.1895V13.3779C53.1895 9.25124 50.5173 6.7627 46.5092 6.7627C44.9059 6.7627 43.7034 7.23521 42.9017 7.70771C42.4341 7.99126 42.0333 8.30627 41.6659 8.65275H41.4989L41.1649 7.07771H38.1587V22.8281Z" fill="#14111A"/>
<path d="M66.8912 22.8379H69.7304V12.7576C69.7304 9.10353 67.2587 6.77246 62.8831 6.77246C58.7078 6.77246 56.2027 9.00899 56.0357 11.6551H59.3759C59.5428 10.7101 60.5449 9.45001 62.8831 9.45001C65.0542 9.45001 66.3902 10.7101 66.3902 12.7576V13.0726H62.215C57.5388 13.0726 55.3677 15.1202 55.3677 18.2703C55.3677 21.1369 57.7058 23.1529 61.38 23.1529C63.1168 23.1529 64.3861 22.6489 65.1878 22.1449C65.6554 21.8614 66.0562 21.5149 66.3902 21.1053H66.5572L66.8912 22.8379ZM66.3902 16.2227C66.3902 18.9003 64.7536 20.4753 61.714 20.4753C59.7099 20.4753 58.7078 19.5303 58.7078 18.1127C58.7078 16.6952 59.8435 15.5927 62.382 15.5927H66.3902V16.2227Z" fill="#14111A"/>
<path d="M72.5745 16.5377C72.5745 20.6642 75.2466 23.1528 79.255 23.1528C80.8248 23.1528 82.0609 22.6803 82.862 22.2078C83.3301 21.9243 83.7306 21.6093 84.0981 21.2628H84.2649L84.5993 22.8378H87.6051V7.0874H84.2649V16.5377C84.2649 18.5852 82.4276 20.3178 79.923 20.3178C77.6183 20.3178 75.9147 18.5852 75.9147 16.5377V7.0874H72.5745V16.5377Z" fill="#14111A"/>
<path d="M103.138 22.8382H106.144V0.787598H102.803V8.97782H102.637C102.068 8.37933 100.699 6.77275 97.459 6.77275C93.0832 6.77275 89.7769 9.92286 89.7769 14.963C89.7769 20.0031 93.0832 23.1532 97.459 23.1532C100.665 23.1532 102.135 21.5782 102.637 20.9482H102.803L103.138 22.8382ZM97.9602 20.3181C95.288 20.3181 93.1171 18.239 93.1171 14.963C93.1171 11.6869 95.288 9.60785 97.9602 9.60785C100.632 9.60785 102.803 11.6869 102.803 14.963C102.803 18.239 100.632 20.3181 97.9602 20.3181Z" fill="#14111A"/>
<path d="M120.161 22.8379H123V12.7576C123 9.10353 120.528 6.77246 116.153 6.77246C111.978 6.77246 109.472 9.00899 109.305 11.6551H112.646C112.813 10.7101 113.814 9.45001 116.153 9.45001C118.324 9.45001 119.66 10.7101 119.66 12.7576V13.0726H115.485C110.808 13.0726 108.637 15.1202 108.637 18.2703C108.637 21.1369 110.975 23.1529 114.65 23.1529C116.386 23.1529 117.656 22.6489 118.457 22.1449C118.925 21.8614 119.326 21.5149 119.66 21.1053H119.827L120.161 22.8379ZM119.66 16.2227C119.66 18.9003 118.023 20.4753 114.983 20.4753C112.979 20.4753 111.978 19.5303 111.978 18.1127C111.978 16.6952 113.113 15.5927 115.652 15.5927H119.66V16.2227Z" fill="#14111A"/>
<path d="M0 6.30017C0 2.82068 2.9909 0 6.68035 0H23.3812C27.0707 0 30.0616 2.82068 30.0616 6.30017V22.0506C30.0616 25.5301 27.0707 28.3508 23.3812 28.3508H6.68035C2.99089 28.3508 0 25.5301 0 22.0506V6.30017Z" fill="#524FFF"/>
<path d="M5.0105 11.6943C5.0105 11.5864 5.06914 11.486 5.16589 11.4282L13.6759 6.34863C13.7293 6.31673 13.7913 6.2998 13.8545 6.2998H15.8596C16.0441 6.2998 16.1937 6.44083 16.1937 6.61481V9.88813C16.1937 10.1397 16.4909 10.2898 16.7129 10.1502L22.7529 6.35271C22.8078 6.31821 22.8722 6.2998 22.9382 6.2998H24.7176C24.902 6.2998 25.0516 6.44084 25.0516 6.61481V16.5675C25.0516 16.6761 24.9922 16.777 24.8946 16.8346L16.2748 21.9153C16.2218 21.9466 16.1604 21.9632 16.0979 21.9632H14.0917C13.9072 21.9632 13.7577 21.8221 13.7577 21.6482V18.379C13.7577 18.1266 13.4586 17.9767 13.2368 18.118L7.282 21.9093C7.2268 21.9444 7.16171 21.9632 7.0951 21.9632H5.34452C5.16004 21.9632 5.0105 21.8221 5.0105 21.6482V11.6943Z" fill="white"/>
</g>
<defs>
<clipPath id="clip0_323_34479">
<rect width="123" height="29" fill="white"/>
</clipPath>
</defs>
</svg>
