<svg width="106" height="43" viewBox="0 0 106 43" fill="none" xmlns="http://www.w3.org/2000/svg">
<g clip-path="url(#clip0_323_34612)">
<mask id="mask0_323_34612" style="mask-type:luminance" maskUnits="userSpaceOnUse" x="36" y="7" width="70" height="25">
<path d="M106 7.83838H36.6333V31.8118H106V7.83838Z" fill="white"/>
</mask>
<g mask="url(#mask0_323_34612)">
<path d="M48.3476 23.329C51.0022 21.4043 54.8607 19.6211 58.2343 21.0537C60.4484 22.1782 61.0268 24.9983 59.9371 26.9656C58.8293 28.9906 56.668 30.4307 54.327 31.1545C48.742 32.9979 41.0975 30.8502 39.5605 26.1479C38.8359 23.9314 39.7221 21.8577 40.1235 21.1051C42.2625 17.089 47.5018 16.5368 47.8767 16.5017C48.5902 16.5894 49.4959 16.6319 50.527 16.518C51.0356 16.4616 51.4955 16.3752 51.9038 16.2776C51.9261 16.2751 52.1448 16.2575 52.2953 16.4078C52.4138 16.5267 52.411 16.6682 52.4096 16.6996C52.2145 17.4109 51.0328 17.0164 50.4518 16.9825C48.5915 16.687 46.6142 16.692 44.9783 15.6877C43.0944 14.5895 42.1774 12.2064 43.2044 10.3455C44.786 7.33883 51.802 7.02326 54.0399 9.47017C55.0502 10.6924 54.9164 12.5533 53.7431 13.6503C52.2897 14.9977 50.1062 14.7949 48.2445 15.1655C44.9588 15.9983 41.17 16.245 38.5865 18.4427C37.1177 19.6374 36.5687 21.5721 37.2056 23.2552C38.6032 26.8792 44.6118 26.64 46.9333 23.9001C48.6138 22.197 49.6728 20.0531 51.4606 18.3851C54.1207 15.6839 59.526 14.4267 62.4272 17.4897C66.2717 21.3554 62.5443 26.3094 57.4943 26.9556C55.6926 27.2675 53.9006 26.595 52.5072 25.5844C51.0635 24.6452 52.7357 22.6353 54.1458 23.6083C54.8802 24.3447 55.1868 25.3653 56.2318 25.8787C58.3834 27.1773 61.2037 25.8937 62.54 24.1631C64.5856 21.8488 62.2948 18.727 59.4089 18.2724C56.622 17.8015 53.9605 19.0613 51.9024 20.7168C49.7286 22.3861 47.8823 24.6577 45.172 25.7096C42.3614 26.7403 38.043 26.2393 36.9422 23.3354C35.7759 20.539 38.0876 17.7803 40.94 16.7784C44.2816 15.2607 52.7482 15.4047 52.2535 10.7062C52.1574 9.79956 51.2126 8.96429 50.4462 8.63118C49.1879 8.0839 47.5757 8.35567 46.5835 9.15334C45.0605 10.3806 45.3169 12.5971 46.1154 13.9295C47.1325 15.6276 49.4416 16.5768 51.9038 16.2763L51.9331 17.079C42.3 15.5725 39.6511 28.6324 50.6985 29.8559C52.8388 30.1402 55.2021 29.9723 57.0414 28.8478C59.9538 27.3664 61.1814 23.1738 58.0503 21.343C55.9894 20.3199 53.4296 20.8859 51.4188 21.765C50.3751 22.2296 49.4053 22.8282 48.5289 23.5182C48.3937 23.6284 48.2055 23.4318 48.3491 23.3278L48.3476 23.329Z" fill="#E5A667"/>
<path d="M58.938 12.3277C58.938 11.6189 58.885 11.1017 58.7819 10.7774C58.6774 10.4543 58.52 10.2251 58.3109 10.0887C58.1019 9.95343 57.7536 9.8532 57.2659 9.79064V9.47754H61.5507V28.5434C61.5507 29.2534 61.5912 29.7694 61.6733 30.0936C61.7542 30.418 61.9047 30.6472 62.1263 30.7824C62.3464 30.9189 62.7004 31.0178 63.188 31.0804V31.3935H57.2659V31.0804C57.7536 31.0178 58.1019 30.9189 58.3109 30.7824C58.52 30.6472 58.676 30.418 58.7819 30.0936C58.8865 29.7706 58.938 29.2534 58.938 28.5434V12.3277ZM70.0857 9.47883L70.9914 17.0863H70.2947C70.2013 16.6067 70.1205 16.1897 70.0508 15.8341C69.7248 13.9356 69.4113 12.6095 69.1102 11.8581C68.8079 11.1067 68.4665 10.6271 68.0819 10.418C67.6987 10.2101 67.1357 10.105 66.393 10.105H61.5507V9.47883H70.0857ZM65.2783 19.8413C65.766 19.8413 66.1087 19.7837 66.3067 19.6685C66.5031 19.5545 66.6425 19.3242 66.7246 18.9798C66.8054 18.6354 66.8236 18.0769 66.7776 17.3042C66.7539 17.0337 66.7428 16.752 66.7428 16.4589H67.4395L68.2756 24.1291H67.5441C67.4743 23.6495 67.3921 23.2324 67.3002 22.8768C67.1831 22.0628 67.0563 21.5044 66.917 21.2013C66.7776 20.8995 66.5797 20.7004 66.3247 20.6065C66.0684 20.5126 65.674 20.4662 65.1403 20.4662H61.5522V19.8401H65.2796L65.2783 19.8413Z" fill="black"/>
<path d="M72.6636 12.6725C72.6636 11.9838 72.6162 11.4828 72.5243 11.1698C72.4309 10.8567 72.2748 10.6275 72.0533 10.481C71.8317 10.3358 71.4429 10.2306 70.8855 10.1679V9.85491L73.2195 9.72964C73.5679 9.70963 73.8815 9.65704 74.1601 9.57309C74.4389 9.49044 74.6939 9.33397 74.9266 9.10352H75.2749V28.545C75.2749 29.2551 75.3154 29.771 75.3975 30.0954C75.4783 30.4196 75.6414 30.6488 75.8852 30.784C76.1291 30.9206 76.5067 31.0195 77.0167 31.0821V31.3952H70.8855V31.0821C71.4429 31.0195 71.8317 30.9206 72.0533 30.784C72.2734 30.6488 72.4309 30.4196 72.5243 30.0954C72.6162 29.7722 72.6636 29.2551 72.6636 28.545V12.6725Z" fill="black"/>
<path d="M78.6906 18.9335C78.6906 18.2447 78.6433 17.7438 78.5513 17.4307C78.4579 17.1176 78.3019 16.8885 78.0803 16.742C77.8587 16.5967 77.47 16.4915 76.9126 16.4289V16.1158L79.2466 15.9906C79.6173 15.9706 79.9433 15.918 80.222 15.834C80.5007 15.7514 80.7445 15.5948 80.9536 15.3645H81.3019V28.5446C81.3019 29.2546 81.348 29.7706 81.4413 30.0949C81.5333 30.4193 81.6963 30.6484 81.929 30.7836C82.1604 30.9202 82.5436 31.019 83.0787 31.0817V31.3948H76.9126V31.0817C77.47 31.019 77.8587 30.9202 78.0803 30.7836C78.3004 30.6484 78.4579 30.4193 78.5513 30.0949C78.6433 29.7718 78.6906 29.2546 78.6906 28.5446V18.9335ZM79.8054 13.0164C79.2703 13.0164 78.8132 12.8649 78.4287 12.5631C78.0454 12.2613 77.8546 11.8593 77.8546 11.3585C77.8546 10.8575 78.0398 10.4869 78.4119 10.1838C78.7826 9.882 79.248 9.73047 79.8054 9.73047C80.3628 9.73047 80.7919 9.882 81.164 10.1838C81.5347 10.4869 81.7214 10.8876 81.7214 11.3885C81.7214 11.8894 81.5347 12.2601 81.164 12.5631C80.7919 12.8662 80.3391 13.0164 79.8054 13.0164Z" fill="black"/>
<path d="M84.7842 18.934C84.7842 18.2453 84.7368 17.7444 84.6449 17.4313C84.5515 17.1183 84.3955 16.889 84.1739 16.7425C83.9523 16.5973 83.5636 16.4921 83.0062 16.4295V16.1164L85.3399 15.9912C85.6885 15.9712 86.0022 15.9185 86.2812 15.8347C86.5593 15.752 86.8146 15.5955 87.0469 15.3651H87.3955V28.5452C87.3955 29.2552 87.4362 29.7712 87.5184 30.0955C87.599 30.4199 87.7618 30.649 88.006 30.7843C88.2494 30.9207 88.6276 31.0197 89.1373 31.0823V31.3953H83.0062V31.0823C83.5636 31.0197 83.9523 30.9207 84.1739 30.7843C84.3941 30.649 84.5515 30.4199 84.6449 30.0955C84.7368 29.7725 84.7842 29.2552 84.7842 28.5452V18.934ZM92.8312 31.3941V31.081C93.3416 31.0185 93.7207 30.9195 93.9632 30.783C94.2066 30.6477 94.3686 30.4186 94.4508 30.0942C94.5314 29.7712 94.5729 29.254 94.5729 28.5439V19.3085C94.5729 18.2866 94.3643 17.524 93.9463 17.0231C93.5282 16.5221 92.8888 16.2717 92.0306 16.2717C91.3556 16.2717 90.6662 16.4395 89.9564 16.7726C89.2475 17.1069 88.5106 17.5866 87.744 18.2128C87.627 18.2966 87.5117 18.4006 87.3955 18.5258V17.7745L87.6049 17.5866C88.3936 16.8979 89.2127 16.3494 90.0599 15.9437C90.907 15.5366 91.8186 15.3325 92.7938 15.3325C94.21 15.3325 95.2963 15.6932 96.0519 16.4119C96.8057 17.1321 97.1831 18.2541 97.1831 19.778V28.5439C97.1831 29.254 97.2289 29.7699 97.323 30.0942C97.4146 30.4186 97.5774 30.6477 97.8106 30.783C98.0413 30.9195 98.4246 31.0185 98.9596 31.081V31.3941H92.8286H92.8312Z" fill="black"/>
<path d="M97.5013 15.7405C98.5469 15.7205 99.3423 15.5677 99.8868 15.2872C100.432 15.0054 100.85 14.5622 101.141 13.9573C101.431 13.3525 101.669 12.4132 101.855 11.1397V11.1084H102.238V15.7418H105.582V16.3679C104.559 16.3679 103.824 16.4155 103.369 16.5082C102.915 16.6008 102.614 16.7486 102.464 16.9465C102.312 17.1456 102.238 17.4737 102.238 17.9332V27.6696C102.238 28.6514 102.308 29.3339 102.447 29.7209C102.586 30.1079 102.865 30.2994 103.283 30.2994C103.747 30.2994 104.141 29.9037 104.468 29.1098C104.792 28.3171 105.094 27.1174 105.373 25.5095L106 25.666L105.93 26.0417C105.652 27.5031 105.367 28.6302 105.077 29.4228C104.787 30.2168 104.422 30.8116 103.98 31.2073C103.538 31.603 102.957 31.8021 102.238 31.8021C101.633 31.8021 101.14 31.6769 100.758 31.4265C100.376 31.176 100.09 30.769 99.9054 30.2055C99.7189 29.642 99.6264 28.9019 99.6264 27.9827V17.9332C99.6264 17.4749 99.5866 17.1406 99.5043 16.9314C99.4221 16.7236 99.2363 16.5771 98.9463 16.4931C98.6555 16.4105 98.1746 16.3679 97.5005 16.3679V15.7418L97.5013 15.7405Z" fill="black"/>
<mask id="mask1_323_34612" style="mask-type:luminance" maskUnits="userSpaceOnUse" x="62" y="19" width="3" height="2">
<path d="M64.0743 20.2207C64.0492 20.0892 64.0158 19.9515 63.9753 19.8112L63.8401 19.7173H62.3464L62.2405 19.9239C62.4188 20.1117 62.5777 20.3159 62.7129 20.53L62.8341 20.5939H63.9753L64.1133 20.4524C64.1022 20.3747 64.0896 20.2971 64.0743 20.2207Z" fill="white"/>
</mask>
<g mask="url(#mask1_323_34612)">
<path d="M58.938 12.3277C58.938 11.6189 58.885 11.1017 58.7819 10.7774C58.6774 10.4543 58.52 10.2251 58.3109 10.0887C58.1019 9.95343 57.7536 9.8532 57.2659 9.79064V9.47754H61.5507V28.5434C61.5507 29.2534 61.5912 29.7694 61.6733 30.0936C61.7542 30.418 61.9047 30.6472 62.1263 30.7824C62.3464 30.9189 62.7004 31.0178 63.188 31.0804V31.3935H57.2659V31.0804C57.7536 31.0178 58.1019 30.9189 58.3109 30.7824C58.52 30.6472 58.676 30.418 58.7819 30.0936C58.8865 29.7706 58.938 29.2534 58.938 28.5434V12.3277ZM70.0857 9.47883L70.9914 17.0863H70.2947C70.2013 16.6067 70.1205 16.1897 70.0508 15.8341C69.7248 13.9356 69.4113 12.6095 69.1102 11.8581C68.8079 11.1067 68.4665 10.6271 68.0819 10.418C67.6987 10.2101 67.1357 10.105 66.393 10.105H61.5507V9.47883H70.0857ZM65.2783 19.8413C65.766 19.8413 66.1087 19.7837 66.3067 19.6685C66.5031 19.5545 66.6425 19.3242 66.7246 18.9798C66.8054 18.6354 66.8236 18.0769 66.7776 17.3042C66.7539 17.0337 66.7428 16.752 66.7428 16.4589H67.4395L68.2756 24.1291H67.5441C67.4743 23.6495 67.3921 23.2324 67.3002 22.8768C67.1831 22.0628 67.0563 21.5044 66.917 21.2013C66.7776 20.8995 66.5797 20.7004 66.3247 20.6065C66.0684 20.5126 65.674 20.4662 65.1403 20.4662H61.5522V19.8401H65.2796L65.2783 19.8413Z" fill="black"/>
<path d="M48.3476 23.329C51.0022 21.4043 54.8607 19.6211 58.2343 21.0537C60.4484 22.1782 61.0268 24.9983 59.9371 26.9657C58.8293 28.9906 56.668 30.4307 54.327 31.1545C48.742 32.9979 41.0975 30.8502 39.5605 26.1479C38.8359 23.9314 39.7221 21.8577 40.1235 21.1051C42.2624 17.089 47.5018 16.5368 47.8767 16.5017C48.5902 16.5894 49.4959 16.6319 50.527 16.518C51.0356 16.4616 51.4955 16.3752 51.9038 16.2776C51.9261 16.2751 52.1448 16.2575 52.2953 16.4078C52.4138 16.5267 52.411 16.6682 52.4096 16.6996C52.2145 17.4109 51.0328 17.0164 50.4518 16.9825C48.5915 16.687 46.6142 16.692 44.9783 15.6877C43.0944 14.5895 42.1774 12.2064 43.2044 10.3455C44.786 7.33883 51.802 7.02326 54.0399 9.47017C55.0502 10.6924 54.9164 12.5533 53.7431 13.6503C52.2897 14.9977 50.1062 14.7949 48.2445 15.1655C44.9588 15.9983 41.17 16.245 38.5865 18.4427C37.1177 19.6374 36.5688 21.5721 37.2056 23.2552C38.6032 26.8792 44.6118 26.64 46.9333 23.9001C48.6138 22.197 49.6728 20.0531 51.4606 18.3851C54.1207 15.6839 59.526 14.4267 62.4272 17.4897C66.2717 21.3554 62.5443 26.3094 57.4943 26.9556C55.6926 27.2675 53.9006 26.595 52.5072 25.5844C51.0635 24.6452 52.7357 22.6353 54.1458 23.6083C54.8802 24.3447 55.1868 25.3653 56.2318 25.8787C58.3834 27.1773 61.2037 25.8937 62.54 24.1631C64.5856 21.8488 62.2948 18.727 59.409 18.2724C56.622 17.8015 53.9606 19.0613 51.9024 20.7168C49.7286 22.3861 47.8823 24.6577 45.172 25.7096C42.3614 26.7403 38.043 26.2393 36.9422 23.3354C35.7759 20.539 38.0876 17.7803 40.94 16.7784C44.2816 15.2607 52.7482 15.4047 52.2535 10.7062C52.1574 9.79956 51.2126 8.96429 50.4462 8.63118C49.1879 8.0839 47.5757 8.35567 46.5835 9.15334C45.0605 10.3806 45.3169 12.5971 46.1154 13.9295C47.1325 15.6276 49.4416 16.5768 51.9038 16.2763L51.9331 17.079C42.3 15.5725 39.6511 28.6324 50.6985 29.8559C52.8388 30.1402 55.2021 29.9723 57.0414 28.8478C59.9538 27.3664 61.1814 23.1738 58.0503 21.343C55.9894 20.3199 53.4296 20.8859 51.4188 21.765C50.3751 22.2296 49.4053 22.8282 48.5289 23.5182C48.3937 23.6284 48.2055 23.4318 48.3491 23.3278L48.3476 23.329Z" fill="#E5A667"/>
</g>
<path d="M60.3 26.1048C60.0046 26.2525 59.6952 26.3852 59.3775 26.5005C58.7825 26.7158 58.1513 26.8712 57.4991 26.9551C55.6988 27.2669 53.9054 26.5957 52.512 25.5851C51.0683 24.6458 52.7419 22.6359 54.1506 23.609C54.885 24.3441 55.1916 25.366 56.2366 25.8794C57.2539 26.4942 58.4216 26.5305 59.5113 26.2149C59.7983 26.1323 60.0812 26.0234 60.3544 25.8944C61.2309 25.4824 62.0069 24.8588 62.5448 24.1637C64.0359 22.4757 63.222 20.3581 61.5513 19.1596V16.7378C61.8648 16.9519 62.1603 17.2011 62.4334 17.4891C65.5157 20.5885 63.7307 24.3866 60.3 26.1048Z" fill="#E5A667"/>
</g>
<path d="M9.6709 2.75254L10.9409 5.93051H20.3701L22.226 1.81042L18.872 2.58237L15.8727 0L12.9302 3.24666L9.6709 2.75254Z" fill="#E5A667"/>
<path d="M11.1053 6.89017C12.3046 6.90145 13.5039 6.91273 14.7044 6.92503C14.7819 7.5145 14.8583 8.10296 14.9358 8.6924C14.8355 8.68829 14.7352 8.68418 14.6348 8.68007C14.5756 8.47199 14.3441 7.77387 13.6042 7.37712C13.4766 7.30844 12.8803 6.98859 12.4824 7.13211C11.4974 7.48989 11.4404 10.8083 12.8917 13.4757C13.0833 13.8274 15.2151 17.6276 18.1062 17.4298C18.2601 17.4195 19.4538 17.3222 20.1138 16.502C21.035 15.3579 20.5652 13.5168 18.6421 11.7064C18.6421 11.7064 19.8231 11.4305 21.1136 10.6638C21.1136 10.6638 19.5164 9.10961 19.5164 6.82764H19.6373C20.0488 8.41256 20.7796 9.49813 21.4077 9.94716C21.7292 10.1768 22.0632 10.3788 22.1214 10.6863C22.1658 10.9221 21.8478 11.3158 20.1389 12.0016C21.5719 13.73 21.8079 15.4031 20.8503 16.5543C20.0659 17.4964 18.7127 17.6194 18.422 17.6461C15.3815 17.9219 12.5918 14.993 11.4712 12.7459C11.1874 12.1769 10.4258 10.5982 10.6789 8.55708C10.7655 7.85789 10.9491 7.28793 11.1053 6.89017Z" fill="black"/>
<path d="M16.5583 8.30619L18.1087 7.96691C18.4428 7.9341 18.697 8.17293 18.6834 8.38716C18.6708 8.58915 18.42 8.79007 18.1087 8.75628C17.5923 8.60658 17.0748 8.45589 16.5583 8.30619Z" fill="black"/>
<path d="M13.1549 11.5455C13.4269 11.5455 13.6474 11.3471 13.6474 11.1026C13.6474 10.858 13.4269 10.6597 13.1549 10.6597C12.8828 10.6597 12.6624 10.858 12.6624 11.1026C12.6624 11.3471 12.8828 11.5455 13.1549 11.5455Z" fill="#E5A667"/>
<path d="M7.11495 16.7507C7.63936 16.1458 7.94945 15.3862 7.94945 14.5619C7.94945 12.5875 6.16986 10.9883 3.9753 10.9883C1.78073 10.9883 0 12.5875 0 14.5619C0 16.5364 1.78073 18.1346 3.97415 18.1346C4.8326 18.1346 5.62493 17.8916 6.27474 17.4744L11.2156 22.2455L12.3409 21.2326L7.11495 16.7507ZM5.308 17.3001C4.9238 17.6272 4.46551 17.8168 3.97415 17.8168C2.61181 17.8168 1.50598 16.359 1.50598 14.5619C1.50598 12.7648 2.61181 11.305 3.97415 11.305C5.3365 11.305 6.44232 12.7628 6.44232 14.5619C6.44232 15.2714 6.27018 15.9305 5.97605 16.4647C5.79593 16.7958 5.56906 17.0797 5.308 17.3001Z" fill="#E5A667"/>
<path d="M26.8759 15.8511H24.9846C24.5605 16.5216 24.214 17.2761 23.9631 18.091H26.3766C26.4975 17.2924 26.665 16.539 26.8759 15.8511Z" fill="black"/>
<path d="M21.3435 18.091H23.3021C23.5335 17.2945 23.8527 16.5411 24.2563 15.8511H22.796C22.1929 16.5216 21.7003 17.2761 21.3435 18.091Z" fill="black"/>
<path d="M25.3811 15.277H27.0672C27.1025 15.1785 27.139 15.0811 27.1767 14.9858C27.5369 14.0786 27.9348 13.4461 28.336 13.0083C27.1972 13.4235 26.1825 14.218 25.3811 15.276V15.277Z" fill="black"/>
<path d="M26.1464 21.2055C26.1464 20.3331 26.1977 19.4791 26.2957 18.6641H23.8036C23.6076 19.4668 23.5027 20.3197 23.5027 21.2055H26.1475H26.1464Z" fill="black"/>
<path d="M21.5081 21.2054H22.8659C22.8659 20.334 22.9652 19.4801 23.1532 18.665H21.1194C20.9222 19.234 20.7888 19.8276 20.7295 20.4417L21.5081 21.2064V21.2054Z" fill="black"/>
<path d="M30.1674 15.2773H27.738C28.3525 13.678 29.2143 12.6836 30.1674 12.6836V15.2773Z" fill="black"/>
<path d="M30.1671 15.8511V18.0921H27.0171C27.1448 17.2761 27.3215 16.5226 27.5358 15.8511H30.1671Z" fill="black"/>
<path d="M26.9366 18.6641H30.1651V21.2044H26.7827C26.7827 20.3197 26.8374 19.4668 26.9354 18.6641H26.9366Z" fill="black"/>
<path d="M24.6211 15.2767C24.7214 15.1311 24.8241 14.9876 24.9323 14.8492C25.3884 14.2658 25.898 13.7686 26.4464 13.3647C25.2778 13.8138 24.2301 14.4678 23.3591 15.2767H24.6211Z" fill="black"/>
<path d="M8.50097 13.1113C9.21804 12.9401 9.9363 12.7689 10.6534 12.5977C11.0638 13.6362 11.7637 14.8827 12.9687 16.0289C13.9025 16.9177 15.4507 18.3909 17.7797 18.4852C19.0315 18.5354 20.0439 18.1694 20.6412 17.8926C20.4303 18.2852 20.2286 18.762 20.0997 19.3186C20.0655 19.4652 20.0393 19.6077 20.0188 19.7451C19.4442 20.232 18.8707 20.7189 18.2961 21.2059H13.386L8.20459 16.7332C8.20459 16.7332 9.35262 14.855 8.50326 13.1102L8.50097 13.1113Z" fill="black"/>
<path d="M8.96995 21.2051H8.31674C8.31674 20.9847 8.30991 20.7642 8.29736 20.5459L8.96995 21.2051Z" fill="black"/>
<path d="M6.38146 18.6642C6.28342 18.5739 6.18423 18.4837 6.08619 18.3945C5.95167 18.4653 5.66096 18.6098 5.41129 18.6642C5.38279 18.6703 5.28703 18.6898 5.16732 18.7113C5.05446 18.7308 4.96098 18.7442 4.896 18.7534C4.9872 19.5407 5.03509 20.3639 5.03509 21.2055H7.6811C7.6811 20.7473 7.6526 20.2973 7.59674 19.8584L6.38146 18.6652V18.6642Z" fill="black"/>
<path d="M8.29736 20.5459C8.3099 20.7642 8.31674 20.9847 8.31674 21.2051H8.96996L8.29736 20.5459Z" fill="black"/>
<path d="M2.38391 18.6632C1.93815 18.5648 1.47872 18.4162 1.01587 18.1958V21.2047H4.39835C4.39835 20.3743 4.35047 19.5716 4.26268 18.8129C3.70634 18.8406 3.06451 18.8129 2.38391 18.6632Z" fill="black"/>
<path d="M21.5121 40.2474L20.2422 37.0684H10.8129L8.95581 41.1895L12.3109 40.4176L15.3092 42.9999L18.2517 39.7533L21.5121 40.2474Z" fill="#E5A667"/>
<path d="M20.0788 36.1105C18.8795 36.0992 17.6802 36.088 16.4798 36.0756C16.4023 35.4862 16.3258 34.8977 16.2483 34.3083C16.3487 34.3124 16.449 34.3165 16.5493 34.3205C16.6086 34.5287 16.84 35.2268 17.5799 35.6236C17.7076 35.6922 18.3038 36.0121 18.7017 35.8685C19.6866 35.5108 19.7437 32.1924 18.2924 29.5249C18.1009 29.1732 15.969 25.373 13.0779 25.5709C12.924 25.5811 11.7304 25.6785 11.0703 26.4986C10.1492 27.6427 10.6189 29.4839 12.5421 31.2943C12.5421 31.2943 11.361 31.5701 10.0705 32.3369C10.0705 32.3369 11.6677 33.8911 11.6677 36.173H11.5469C11.1353 34.5881 10.4045 33.5025 9.7764 33.0534C9.45484 32.8238 9.12081 32.6219 9.06273 32.3144C9.01821 32.0785 9.33629 31.6849 11.0453 30.9991C9.61223 29.2707 9.37623 27.5976 10.3339 26.4464C11.1182 25.5042 12.4714 25.3813 12.7621 25.3545C15.8025 25.0788 18.5922 28.0077 19.7129 30.2548C19.9968 30.8238 20.7583 32.4025 20.5052 34.4436C20.4186 35.1427 20.235 35.7127 20.0788 36.1105Z" fill="black"/>
<path d="M14.6241 34.6935L13.0737 35.0329C12.7396 35.0657 12.4854 34.8268 12.4991 34.6125C12.5116 34.4106 12.7624 34.2096 13.0737 34.2435C13.5901 34.3932 14.1076 34.5439 14.6241 34.6935Z" fill="black"/>
<path d="M18.0287 32.3393C18.3006 32.3393 18.5211 32.1411 18.5211 31.8965C18.5211 31.6519 18.3006 31.4536 18.0287 31.4536C17.7566 31.4536 17.5361 31.6519 17.5361 31.8965C17.5361 32.1411 17.7566 32.3393 18.0287 32.3393Z" fill="#E5A667"/>
<path d="M24.0679 26.2482C23.5435 26.853 23.2334 27.6127 23.2334 28.4369C23.2334 30.4114 25.013 32.0106 27.2075 32.0106C29.4022 32.0106 31.1817 30.4103 31.1817 28.4369C31.1817 26.4635 29.401 24.8642 27.2075 24.8642C26.3491 24.8642 25.5568 25.1072 24.907 25.5244L19.966 20.7534L18.8408 21.7662L24.0668 26.2482H24.0679ZM25.8748 25.6987C26.259 25.3717 26.7173 25.182 27.2087 25.182C28.571 25.182 29.6768 26.6399 29.6768 28.4369C29.6768 30.234 28.571 31.6938 27.2087 31.6938C25.8463 31.6938 24.7405 30.236 24.7405 28.4369C24.7405 27.7275 24.9127 27.0683 25.2068 26.5342C25.3869 26.2031 25.6138 25.9191 25.8748 25.6987Z" fill="#E5A667"/>
<path d="M4.30835 27.1491H6.19967C6.62375 26.4787 6.97033 25.7242 7.22114 24.9092H4.80769C4.68684 25.7078 4.51926 26.4613 4.30835 27.1491Z" fill="black"/>
<path d="M9.84075 24.9092H7.88219C7.65076 25.7057 7.33155 26.4592 6.92798 27.1491H8.38836C8.99148 26.4787 9.48391 25.7242 9.84075 24.9092Z" fill="black"/>
<path d="M5.80287 27.7222H4.11675C4.08141 27.8206 4.04493 27.918 4.00731 28.0133C3.64706 28.9205 3.24919 29.5531 2.8479 29.9908C3.98679 29.5757 5.00142 28.7811 5.80287 27.7232V27.7222Z" fill="black"/>
<path d="M5.03728 21.7944C5.03728 22.6668 4.98599 23.5208 4.88794 24.3358H7.38005C7.57614 23.5331 7.68102 22.6802 7.68102 21.7944H5.03614H5.03728Z" fill="black"/>
<path d="M9.6758 21.7945H8.31805C8.31805 22.6659 8.21887 23.5199 8.03076 24.3349H10.0646C10.2618 23.7659 10.3952 23.1723 10.4545 22.5582L9.6758 21.7935V21.7945Z" fill="black"/>
<path d="M1.01807 27.7222H3.44748C2.833 29.3214 1.97113 30.3158 1.01807 30.3158V27.7222Z" fill="black"/>
<path d="M1.01807 27.1492V24.9082H4.16798C4.04029 25.7242 3.86359 26.4777 3.64926 27.1492H1.01807Z" fill="black"/>
<path d="M4.24664 24.3348H1.01807V21.7944H4.40054C4.40054 22.6792 4.34582 23.5321 4.24778 24.3348H4.24664Z" fill="black"/>
<path d="M6.56176 27.7222C6.46145 27.8678 6.35884 28.0112 6.25054 28.1497C5.79453 28.7329 5.28493 29.2301 4.73657 29.634C5.90511 29.1851 6.95279 28.531 7.82378 27.7222H6.56176Z" fill="black"/>
<path d="M22.6837 29.889C21.9666 30.0603 21.2484 30.2314 20.5313 30.4027C20.1209 29.3642 19.4209 28.1176 18.2159 26.9715C17.2822 26.0826 15.7341 24.6095 13.4049 24.5152C12.1532 24.4649 11.1409 24.8309 10.5435 25.1077C10.7544 24.7151 10.9562 24.2384 11.085 23.6817C11.1192 23.5351 11.1454 23.3927 11.1659 23.2553C11.7405 22.7684 12.3139 22.2814 12.8885 21.7944H17.7986L22.9801 26.2672C22.9801 26.2672 21.8321 28.1453 22.6814 29.8901L22.6837 29.889Z" fill="black"/>
<path d="M22.2139 21.7944H22.8671C22.8671 22.0148 22.8739 22.2352 22.8865 22.4536L22.2139 21.7944Z" fill="black"/>
<path d="M24.8023 24.3349C24.9004 24.4251 24.9996 24.5152 25.0976 24.6044C25.2321 24.5337 25.5229 24.3892 25.7725 24.3349C25.801 24.3287 25.8968 24.3092 26.0165 24.2877C26.1294 24.2682 26.2228 24.2549 26.2878 24.2457C26.1966 23.4584 26.1487 22.6351 26.1487 21.7935H23.5027C23.5027 22.2517 23.5312 22.7018 23.5871 23.1405L24.8023 24.3338V24.3349Z" fill="black"/>
<path d="M22.8865 22.4536C22.8739 22.2352 22.8671 22.0148 22.8671 21.7944H22.2139L22.8865 22.4536Z" fill="black"/>
<path d="M28.7994 24.3358C29.2451 24.4342 29.7046 24.5829 30.1674 24.8033V21.7944H26.7849C26.7849 22.6248 26.8328 23.4275 26.9206 24.1861C27.477 24.1584 28.1188 24.1861 28.7994 24.3358Z" fill="black"/>
</g>
<defs>
<clipPath id="clip0_323_34612">
<rect width="106" height="43" fill="white"/>
</clipPath>
</defs>
</svg>
