<svg width="98" height="38" viewBox="0 0 98 38" fill="none" xmlns="http://www.w3.org/2000/svg">
<path d="M18.6432 37.6728C12.7081 37.6728 6.773 37.6728 0.83792 37.6728C0.215103 37.6728 0.196785 37.6544 0.196785 37.0282C0.196785 25.075 0.196785 13.1218 0.178467 1.16861C0.178467 0.708163 0.34333 0.597656 0.764647 0.597656C12.7081 0.597656 24.6332 0.597656 36.5766 0.597656C37.1262 0.597656 37.1628 0.634492 37.1628 1.31595C37.1628 11.5563 37.1628 21.7782 37.1628 32.0185C37.1628 33.6946 37.1628 35.3706 37.1628 37.0282C37.1628 37.5992 37.1078 37.6728 36.54 37.6728C30.5866 37.6728 24.6149 37.6728 18.6432 37.6728ZM18.6981 32.3869C22.9479 32.3869 27.1794 32.3869 31.4292 32.3869C31.8688 32.3869 31.8872 32.1659 31.8872 31.8344C31.8872 23.3437 31.8872 14.8531 31.8872 6.38087C31.8872 5.99409 31.7589 5.88358 31.3743 5.88358C22.9113 5.88358 14.43 5.88358 5.967 5.88358C5.564 5.88358 5.43577 6.01251 5.43577 6.4177C5.43577 14.8715 5.43577 23.3253 5.43577 31.7791C5.43577 32.3501 5.45409 32.3685 6.02195 32.3685C10.2718 32.3869 14.4849 32.3869 18.6981 32.3869Z" fill="#14111A"/>
<path d="M52.092 5.40472C51.7989 5.34947 51.634 5.27579 51.4692 5.27579C49.1977 5.27579 46.9263 5.27579 44.6548 5.27579C44.032 5.27579 43.977 5.22054 43.977 4.59433C43.977 3.45243 43.9954 2.32894 43.977 1.18703C43.977 0.781835 44.1053 0.597656 44.5266 0.597656C49.2343 0.597656 53.9238 0.597656 58.6315 0.597656C58.9613 0.597656 59.1078 0.708163 59.1078 1.0581C59.1078 2.31052 59.1261 3.58135 59.0895 4.83377C59.0895 5.0732 58.9063 5.34947 58.7231 5.49681C57.4775 6.47296 56.1952 7.43069 54.9313 8.38842C54.8763 8.42525 54.8214 8.4805 54.6931 8.59101C54.8763 8.70152 55.0046 8.83044 55.1694 8.86728C57.2211 9.41982 58.7781 10.617 59.7673 12.4956C60.5183 13.9138 60.7748 15.4609 60.6282 17.0448C60.3718 19.697 59.2177 21.8703 57.0379 23.4358C55.2427 24.7251 53.1727 25.1671 51.0112 25.1118C48.6482 25.0566 46.4683 24.3935 44.7464 22.7175C43.9954 21.9992 43.4275 21.0783 42.7864 20.2495C42.5849 19.9917 42.6581 19.7707 42.9329 19.6233C44.1236 18.9234 45.2959 18.2236 46.4866 17.5421C46.7248 17.4132 46.8896 17.4868 47.0545 17.7447C47.5674 18.6103 48.1719 19.3839 49.0878 19.8812C50.7731 20.7836 53.5574 20.6731 54.8947 18.8313C56.6532 16.4002 55.316 13.1218 52.3667 12.6429C51.1944 12.4588 50.077 12.5877 49.0328 13.1586C48.7214 13.3244 48.5383 13.2507 48.3734 13.0113C47.7506 12.072 47.1461 11.1511 46.5233 10.2118C46.3218 9.9171 46.4866 9.73292 46.7064 9.56716C48.062 8.53576 49.3992 7.52277 50.7548 6.49137C51.1211 6.15985 51.5424 5.82833 52.092 5.40472Z" fill="#14111A"/>
<path d="M71.5823 0.579013C72.315 0.579013 73.0477 0.579013 73.7805 0.579013C74.2384 0.579013 74.2934 0.707939 74.0735 1.11313C72.8462 3.23119 71.6189 5.34924 70.3916 7.4673C70.3366 7.55939 70.3 7.76198 70.3366 7.79882C70.4466 7.87249 70.5931 7.89091 70.7213 7.89091C71.8021 7.83566 72.8829 7.85407 73.9453 8.14876C76.0885 8.75655 77.7189 10.0274 78.8179 11.9613C79.6789 13.4715 80.0086 15.0923 79.917 16.8236C79.7339 20.1388 77.6456 23.2514 74.4582 24.4486C71.5823 25.5352 68.7246 25.3879 66.0136 23.896C63.8887 22.7173 62.5881 20.8387 62.0568 18.4628C61.3791 15.4607 62.0935 12.6796 63.5772 10.0642C65.2625 7.08052 66.9478 4.11524 68.6331 1.11313C68.8529 0.726356 69.1093 0.560596 69.549 0.579013C70.1901 0.597431 70.8862 0.579013 71.5823 0.579013ZM70.8312 20.5808C73.2492 20.5808 75.0444 18.7943 75.0444 16.3815C75.0444 13.9504 73.2675 12.2007 70.7946 12.2007C68.3949 12.2007 66.6364 13.9688 66.6364 16.3815C66.6547 18.8311 68.4132 20.5808 70.8312 20.5808Z" fill="#14111A"/>
<path d="M89.5893 17.5605C89.3329 17.5605 89.168 17.5421 88.9848 17.5605C85.8708 17.7631 83.2696 16.7501 81.4378 14.1348C80.0456 12.1273 79.6243 9.88028 80.1005 7.48595C80.705 4.48384 82.3537 2.31053 85.138 1.09495C88.6368 -0.433731 93.656 0.137222 96.2388 3.71029C97.8142 5.86518 98.2538 8.27792 97.8691 10.8933C97.5394 13.085 96.4586 14.9268 95.4145 16.787C94.0773 19.1997 92.7401 21.594 91.4028 24.0068C91.1281 24.4856 90.835 24.7435 90.2305 24.7251C88.8566 24.6698 87.4828 24.7067 86.1089 24.7067C85.9623 24.7067 85.8341 24.633 85.6876 24.5962C85.7242 24.4488 85.7608 24.3015 85.8341 24.191C87.0248 22.1097 88.2338 20.0285 89.4245 17.9473C89.5161 17.8552 89.5344 17.7447 89.5893 17.5605ZM84.8083 9.03305C84.7534 11.5195 86.6768 13.2692 89.0215 13.2692C91.4212 13.2692 93.2346 11.4274 93.2163 9.01464C93.198 6.52822 91.3296 4.83378 88.9665 4.8522C86.5668 4.88903 84.7534 6.67557 84.8083 9.03305Z" fill="#14111A"/>
<path d="M42.5117 32.8846C42.5483 30.1403 44.4351 28.0591 47.1828 27.8749C49.1978 27.746 50.9563 28.7958 51.6891 30.656C51.8173 30.9875 51.7257 31.1533 51.4326 31.2638C51.1578 31.3743 50.9014 31.448 50.7182 31.0612C50.3885 30.3613 49.9672 29.7351 49.2711 29.3299C47.4026 28.2617 44.9297 29.0352 43.9954 30.9691C43.1528 32.7188 43.6108 34.8921 45.0029 36.0893C46.4318 37.3233 49.4726 37.3969 50.6083 34.9474C50.9197 34.2843 51.0479 34.2659 51.5791 34.579C51.799 34.7079 51.8173 34.8368 51.7257 35.0579C50.9563 36.8444 49.6008 37.8021 47.6957 37.9126C44.7282 38.0968 42.475 35.8867 42.5117 32.8846Z" fill="#14111A"/>
<path d="M56.9094 28.0214C57.404 27.9109 57.5872 28.224 57.752 28.6292C58.9793 31.5024 60.225 34.3572 61.4523 37.212C61.5256 37.3777 61.4706 37.5803 61.4706 37.7829C61.2142 37.7645 60.9394 37.8013 60.7012 37.7277C60.573 37.6908 60.4814 37.4882 60.4265 37.3225C60.2067 36.8252 60.0052 36.3095 59.7853 35.7938C59.6388 35.4623 59.419 35.2965 59.0526 35.3149C57.6055 35.3333 56.1583 35.3149 54.7112 35.3149C54.3815 35.3149 54.18 35.4254 54.0518 35.7569C53.8136 36.3463 53.5572 36.9173 53.3007 37.4882C53.1542 37.8197 52.6596 38.0039 52.3848 37.8197C52.2932 37.7645 52.2383 37.5435 52.2749 37.4514C53.4656 34.6519 54.6746 31.8708 55.8836 29.0713C55.9568 28.9055 56.0301 28.7397 56.0851 28.5556C56.2133 28.1319 56.4514 27.9294 56.9094 28.0214ZM54.6563 34.3019C54.8761 34.3388 55.0409 34.3756 55.2058 34.3756C56.3232 34.3756 57.4406 34.3756 58.5397 34.3756C59.0892 34.3756 59.1442 34.2651 58.9244 33.7494C58.3199 32.3865 57.7337 31.0051 57.1292 29.6422C57.0743 29.5317 56.9643 29.458 56.8911 29.3659C56.7995 29.458 56.6713 29.5317 56.6346 29.6422C56.3598 30.25 56.1034 30.8762 55.8469 31.5024C55.4439 32.4049 55.0593 33.3258 54.6563 34.3019Z" fill="#14111A"/>
<path d="M90.0839 37.8384C89.7908 37.8568 89.5526 37.7279 89.4244 37.3963C89.2046 36.8622 88.9665 36.3281 88.7466 35.794C88.6184 35.4625 88.3986 35.3151 88.0506 35.3151C86.5851 35.3151 85.1196 35.3151 83.6542 35.3151C83.2878 35.3151 83.0863 35.4809 82.9581 35.8124C82.7566 36.3281 82.5551 36.8438 82.317 37.3411C82.2254 37.5437 82.0239 37.7279 81.8224 37.8199C81.6758 37.8936 81.4194 37.8199 81.2912 37.7279C81.2179 37.6726 81.2545 37.3963 81.3278 37.2306C82.5185 34.4126 83.7275 31.5947 84.9365 28.7952C85.1197 28.39 85.2479 27.9664 85.889 28.0032C86.347 28.0401 86.5851 28.1874 86.75 28.5926C87.9773 31.4842 89.2046 34.3574 90.4319 37.249C90.6517 37.7647 90.6151 37.8384 90.0839 37.8384ZM88.1238 34.3205C87.3728 32.5709 86.6401 30.9132 85.9256 29.2556C85.8707 29.2556 85.8157 29.2741 85.7608 29.2741C85.0464 30.9317 84.332 32.5893 83.5992 34.3205C85.1563 34.3205 86.5851 34.3205 88.1238 34.3205Z" fill="#14111A"/>
<path d="M62.8445 32.9211C62.8445 31.4661 62.8445 30.0111 62.8445 28.5561C62.8445 28.243 62.8812 28.0036 63.2842 28.022C64.4931 28.0404 65.7021 27.9852 66.8928 28.0772C68.9994 28.243 70.2084 30.4532 69.2559 32.3134C68.8162 33.179 68.0835 33.6947 67.1493 33.842C66.2883 33.971 65.3907 33.971 64.5115 34.0078C63.9436 34.0262 63.8703 34.0815 63.8703 34.634C63.8703 35.5181 63.8703 36.4205 63.8703 37.3046C63.8703 37.6545 63.7421 37.8571 63.3757 37.8571C63.0094 37.8571 62.8262 37.7282 62.8445 37.3046C62.8628 35.8312 62.8445 34.3762 62.8445 32.9211ZM63.8703 30.9689C63.8703 31.0425 63.8703 31.1162 63.8703 31.1899C63.907 31.7608 63.9436 32.3318 63.9802 32.9027C64.5481 32.9396 65.116 33.0132 65.6838 32.9764C66.2334 32.958 66.8012 32.8843 67.3325 32.7185C68.0835 32.4791 68.5781 31.6135 68.5231 30.8399C68.4315 29.9006 67.882 29.2007 67.0027 29.0902C66.1235 28.9797 65.2076 28.9797 64.3283 28.9429C63.9986 28.9245 63.8703 29.1455 63.8703 29.4402C63.8703 29.9559 63.8703 30.4716 63.8703 30.9689Z" fill="#14111A"/>
<path d="M76.7116 33.3634C76.7116 32.0925 76.7116 30.8217 76.7116 29.5509C76.7116 29.0168 76.6383 28.9431 76.1071 28.9431C75.411 28.9431 74.6966 28.9247 74.0005 28.9431C73.6524 28.9431 73.4509 28.8326 73.4509 28.4458C73.4509 28.059 73.6524 27.9854 73.9822 27.9854C76.1437 27.9854 78.3052 27.9854 80.4851 27.9854C80.8331 27.9854 81.0713 28.0222 81.0713 28.4826C81.053 28.9062 80.8148 28.9431 80.5034 28.9431C79.789 28.9431 79.0746 28.9431 78.3602 28.9431C77.9206 28.9247 77.774 29.1088 77.774 29.5509C77.7923 32.1294 77.774 34.7079 77.774 37.268C77.774 37.7652 77.6458 37.8942 77.1878 37.8389C76.8398 37.8021 76.7299 37.6179 76.7299 37.2864C76.7116 35.9787 76.7116 34.671 76.7116 33.3634Z" fill="#14111A"/>
<path d="M91.7872 32.9028C91.7872 31.4846 91.7872 30.0848 91.7872 28.6666C91.7872 28.0773 91.8422 28.0404 92.3368 28.0036C92.8497 27.9668 92.8497 28.2615 92.8497 28.6482C92.8497 31.1715 92.8497 33.6763 92.8497 36.1996C92.8497 36.8626 92.868 36.881 93.5091 36.881C94.6632 36.881 95.8355 36.881 96.9896 36.881C97.3376 36.881 97.5391 36.9731 97.5391 37.3599C97.5391 37.7651 97.3376 37.8572 96.9896 37.8572C95.4509 37.8572 93.9121 37.8572 92.3734 37.8572C91.9887 37.8572 91.8056 37.7282 91.8056 37.2862C91.8056 35.8128 91.7872 34.3578 91.7872 32.9028Z" fill="#14111A"/>
<path d="M71.0879 32.9029C71.0879 31.4479 71.0879 29.9929 71.0879 28.5379C71.0879 28.1511 71.2161 27.9854 71.6191 27.9854C72.0221 27.9854 72.132 28.1511 72.132 28.5379C72.1137 31.4479 72.1137 34.3579 72.132 37.268C72.132 37.6732 71.9488 37.8021 71.5825 37.8205C71.1612 37.8389 71.0879 37.6179 71.0879 37.2495C71.1062 35.8129 71.0879 34.3579 71.0879 32.9029Z" fill="#14111A"/>
<path d="M18.6981 32.3872C14.4849 32.3872 10.2718 32.3872 6.05859 32.3872C5.49073 32.3872 5.47241 32.3688 5.47241 31.7979C5.47241 23.3441 5.47241 14.8903 5.47241 6.43646C5.47241 6.03127 5.58232 5.90234 6.00364 5.90234C14.4666 5.92076 22.9479 5.90234 31.4109 5.90234C31.7773 5.90234 31.9238 6.01285 31.9238 6.39963C31.9238 14.8903 31.9238 23.3809 31.9238 31.8531C31.9238 32.1846 31.8872 32.4057 31.4658 32.4057C27.1794 32.3872 22.9296 32.3872 18.6981 32.3872ZM18.6981 31.3006C22.3984 31.3006 26.0803 31.3006 29.7806 31.3006C30.8064 31.3006 30.8064 31.3006 30.8064 30.2876C30.8064 22.6994 30.8064 15.0929 30.8064 7.5047C30.8064 7.11792 30.6965 6.97058 30.2935 6.97058C22.5632 6.989 14.8147 6.97058 7.08441 6.97058C6.71805 6.97058 6.55318 7.04425 6.55318 7.44944C6.55318 15.2218 6.55318 23.0125 6.55318 30.7849C6.55318 31.1717 6.64477 31.319 7.06609 31.319C10.9495 31.3006 14.8147 31.3006 18.6981 31.3006Z" fill="white"/>
<path d="M18.6979 31.3007C14.8145 31.3007 10.9493 31.3007 7.06589 31.3191C6.64457 31.3191 6.55298 31.1718 6.55298 30.785C6.55298 23.0127 6.55298 15.2219 6.55298 7.44957C6.55298 7.04437 6.71784 6.9707 7.0842 6.9707C14.8145 6.98912 22.563 6.98912 30.2933 6.9707C30.7146 6.9707 30.8062 7.11805 30.8062 7.50482C30.8062 15.093 30.8062 22.6996 30.8062 30.2877C30.8062 31.3007 30.8062 31.3007 29.7804 31.3007C26.0801 31.3007 22.3799 31.3007 18.6979 31.3007Z" fill="#14111A"/>
</svg>
