<svg width="115" height="15" viewBox="0 0 115 15" fill="none" xmlns="http://www.w3.org/2000/svg">
<g clip-path="url(#clip0_323_34537)">
<path d="M0 14.7519V0.249023H2.3941L9.13567 9.14339H7.89695L14.6147 0.249023H17.0088V14.7519H13.7095V5.6905L14.2772 5.85363L8.50443 13.2954L2.73157 5.85751L3.29933 5.69439V14.7558H0V14.7519Z" fill="black"/>
<path d="M26.7118 15C25.5922 15 24.5559 14.8097 23.603 14.4252C22.6502 14.0407 21.8164 13.5085 21.1057 12.821C20.391 12.1375 19.8392 11.3374 19.4461 10.4285C19.053 9.51968 18.8585 8.53316 18.8585 7.48057C18.8585 6.42802 19.053 5.42594 19.4461 4.52097C19.8392 3.616 20.3831 2.82755 21.0858 2.14785C21.7846 1.46815 22.6104 0.943814 23.5633 0.567063C24.5162 0.190316 25.5524 0 26.672 0C27.7917 0 28.8041 0.190316 29.7491 0.567063C30.694 0.943814 31.5238 1.47204 32.2385 2.14785C32.9531 2.82755 33.501 3.61989 33.8861 4.53263C34.2712 5.44537 34.4658 6.4319 34.4658 7.5C34.4658 8.56807 34.2712 9.53911 33.8781 10.448C33.4851 11.3607 32.9412 12.153 32.2385 12.8327C31.5397 13.5124 30.7178 14.0407 29.7808 14.4252C28.8438 14.8097 27.8195 15 26.7157 15H26.7118ZM26.6681 12.0404C27.5495 12.0404 28.3197 11.8501 28.9788 11.4656C29.6379 11.081 30.1501 10.549 30.5233 9.86148C30.8925 9.17789 31.0791 8.38166 31.0791 7.47668C31.0791 6.80476 30.9759 6.19109 30.7655 5.63568C30.5551 5.08027 30.2533 4.60254 29.8642 4.1986C29.4711 3.79467 29.0026 3.48783 28.4587 3.27421C27.9108 3.06059 27.3153 2.95572 26.672 2.95572C25.7907 2.95572 25.0165 3.14604 24.3495 3.52278C23.6825 3.89954 23.1703 4.42775 22.805 5.10357C22.4397 5.77939 22.2571 6.57173 22.2571 7.47668C22.2571 8.16027 22.3603 8.78564 22.5707 9.34493C22.7811 9.90805 23.0829 10.3897 23.4759 10.7937C23.869 11.1976 24.3336 11.5044 24.8735 11.718C25.4134 11.9316 26.013 12.0365 26.6681 12.0365V12.0404Z" fill="black"/>
<path d="M36.3517 14.7533V0.250466H38.6822L39.6709 3.14793V14.7572H36.3517V14.7533ZM47.0318 14.7533L37.8643 3.80044L38.6822 0.246582L47.8695 11.1994L47.0278 14.7533H47.0318ZM47.0318 14.7533L46.1504 11.8559V0.250466H49.4894V14.7533H47.0318Z" fill="black"/>
<path d="M59.1894 15C58.0698 15 57.0335 14.8097 56.0806 14.4252C55.1277 14.0407 54.294 13.5085 53.5833 12.821C52.8686 12.1375 52.3168 11.3374 51.9237 10.4285C51.5307 9.51968 51.3361 8.53316 51.3361 7.48057C51.3361 6.42802 51.5307 5.42594 51.9237 4.52097C52.3168 3.616 52.8607 2.82755 53.5634 2.14785C54.2622 1.46815 55.0881 0.943814 56.0409 0.567063C56.9938 0.190316 58.03 0 59.1496 0C60.2693 0 61.2817 0.190316 62.2266 0.567063C63.1716 0.943814 64.0014 1.47204 64.7161 2.14785C65.4307 2.82755 65.9786 3.61989 66.3637 4.53263C66.7488 5.44537 66.9434 6.4319 66.9434 7.5C66.9434 8.56807 66.7489 9.53911 66.3558 10.448C65.9627 11.3607 65.4188 12.153 64.7161 12.8327C64.0173 13.5124 63.1954 14.0407 62.2584 14.4252C61.3214 14.8097 60.2971 15 59.1934 15H59.1894ZM59.1457 12.0404C60.0271 12.0404 60.7974 11.8501 61.4564 11.4656C62.1155 11.081 62.6277 10.549 63.0008 9.86148C63.3701 9.17789 63.5567 8.38166 63.5567 7.47668C63.5567 6.80476 63.4535 6.19109 63.243 5.63568C63.0326 5.08027 62.7309 4.60254 62.3418 4.1986C61.9487 3.79467 61.4802 3.48783 60.9363 3.27421C60.3884 3.06059 59.7929 2.95572 59.1496 2.95572C58.2683 2.95572 57.4941 3.14604 56.827 3.52278C56.16 3.89954 55.6479 4.42775 55.2826 5.10357C54.9173 5.77939 54.7347 6.57173 54.7347 7.47668C54.7347 8.16027 54.8379 8.78564 55.0483 9.34493C55.2587 9.90805 55.5605 10.3897 55.9536 10.7937C56.3466 11.1976 56.8112 11.5044 57.3511 11.718C57.8911 11.9316 58.4906 12.0365 59.1457 12.0365V12.0404Z" fill="black"/>
<path d="M68.83 14.7519V0.249023H72.1489V14.7519H68.83ZM71.3906 14.7519V11.9165H79.6211V14.7519H71.3906Z" fill="black"/>
<path d="M81.3064 14.7519V0.249023H84.6261V14.7519H81.3064Z" fill="black"/>
<path d="M86.2361 3.08434V0.249023H99.7392V3.08434H86.2361ZM91.3302 14.7558V0.431571H94.6694V14.7519H91.3302V14.7558Z" fill="black"/>
<path d="M101.358 14.7519V0.249023H104.677V14.7519H101.358ZM103.355 8.71227V5.89636H112.531V8.71227H103.355ZM111.438 14.7519V0.249023H114.778V14.7519H111.438Z" fill="black"/>
</g>
<defs>
<clipPath id="clip0_323_34537">
<rect width="115" height="15" fill="white"/>
</clipPath>
</defs>
</svg>
