<svg width="127" height="38" viewBox="0 0 127 38" fill="none" xmlns="http://www.w3.org/2000/svg">
<path d="M6.33653 4.26689C11.0085 4.26689 13.0135 7.42089 13.0135 10.9549C13.0135 14.4889 10.895 17.6429 6.33653 17.6429H0.907959V4.26689H6.33653ZM6.39328 14.9069C8.70089 14.9069 9.83579 12.9689 9.83579 10.9549C9.83579 8.94089 8.70089 7.00289 6.39328 7.00289H4.08566V14.9069H6.39328ZM23.7134 17.6429L22.7676 14.7549H17.3958L16.4501 17.6429H13.1211L17.9632 4.26689H22.2002L27.0424 17.6429H23.7134ZM18.247 12.1709H21.9165L20.6113 8.19989C20.4411 7.70589 20.4222 7.17389 20.4033 6.58489C20.4033 6.39489 20.3087 6.24289 20.0817 6.24289C19.8547 6.24289 19.7791 6.39489 19.7791 6.58489C19.7602 7.17389 19.7223 7.70589 19.5521 8.19989L18.247 12.1709ZM28.217 17.6429V4.26689H34.2319C37.9771 4.26689 39.4146 6.01489 39.4146 8.37089C39.4146 9.79589 38.3176 11.4299 36.3504 11.6959C36.1991 11.7149 36.0289 11.7909 36.0289 12.0379C36.0289 12.2849 36.1802 12.3609 36.3693 12.3799C38.2419 12.5699 38.6769 13.4249 38.885 14.0709L40.0199 17.6429H36.4261L35.8965 15.0019C35.6127 13.5769 35.0831 13.0829 33.0592 13.0829H31.3947V17.6429H28.217ZM31.3947 10.4989H33.8726C35.2533 10.4989 36.2369 9.81489 36.2369 8.75089C36.2369 7.55389 35.5182 7.00289 34.0617 7.00289H31.3947V10.4989ZM53.462 17.6429H49.6034L45.8772 12.4749L44.8368 13.6339V17.6429H41.6591V4.26689H44.8368V8.00989C44.8368 8.80789 44.6099 9.14989 44.3261 9.47289C44.2127 9.60589 44.1748 9.77689 44.3261 9.89089C44.4775 10.0049 44.6288 9.94789 44.7423 9.81489L49.4521 4.26689H53.1594L47.8821 10.1949L53.462 17.6429ZM69.5769 4.26689H72.7546V17.6429H69.5769V12.3229H64.1294V17.6429H60.9517V4.26689H64.1294V9.58689H69.5769V4.26689ZM81.189 3.96289C85.6529 3.96289 87.9983 7.09789 87.9983 10.9549C87.9983 14.8119 85.6529 17.9469 81.189 17.9469C76.7251 17.9469 74.3796 14.8119 74.3796 10.9549C74.3796 7.09789 76.7251 3.96289 81.189 3.96289ZM81.189 15.2109C83.5155 15.2109 84.8206 13.3109 84.8206 10.9549C84.8206 8.59889 83.5155 6.69889 81.189 6.69889C78.8624 6.69889 77.5573 8.59889 77.5573 10.9549C77.5573 13.3109 78.8624 15.2109 81.189 15.2109ZM89.6277 17.6429V4.26689H95.6427C99.3878 4.26689 100.825 6.01489 100.825 8.37089C100.825 9.79589 99.7283 11.4299 97.7611 11.6959C97.6098 11.7149 97.4396 11.7909 97.4396 12.0379C97.4396 12.2849 97.5909 12.3609 97.78 12.3799C99.6526 12.5699 100.088 13.4249 100.296 14.0709L101.431 17.6429H97.8368L97.3072 15.0019C97.0234 13.5769 96.4938 13.0829 94.4699 13.0829H92.8054V17.6429H89.6277ZM92.8054 10.4989H95.2833C96.6641 10.4989 97.6476 9.81489 97.6476 8.75089C97.6476 7.55389 96.9289 7.00289 95.4724 7.00289H92.8054V10.4989ZM108.218 9.14989C111.642 9.52989 113.817 10.5369 113.817 13.5769C113.817 15.9329 111.926 17.9469 108.067 17.9469C104.133 17.9469 102.317 15.5529 102.317 12.9309H105.457C105.457 14.1089 106.062 15.3629 108.067 15.3629C109.977 15.3629 110.639 14.5079 110.639 13.7669C110.639 12.9689 110.053 12.4939 108.067 12.2279C103.962 11.6959 102.771 10.3089 102.771 7.95289C102.771 5.71089 104.643 3.96289 108.105 3.96289C111.717 3.96289 113.231 6.10989 113.325 8.37089H110.261C110.261 7.49689 109.713 6.54689 108.067 6.54689C106.421 6.54689 105.93 7.26889 105.93 7.83889C105.93 8.35189 106.175 8.92189 108.218 9.14989ZM125.575 7.00289H118.766V9.66289H124.365V12.2469H118.766V14.9069H125.575V17.6429H115.588V4.26689H125.575V7.00289Z" fill="black"/>
<path d="M4.33695 31.0107C6.4311 31.2957 7.99833 31.7843 7.99833 33.7928C7.99833 35.34 6.71482 36.7514 4.21535 36.7514C1.58078 36.7514 0.432373 35.0414 0.432373 33.2771H1.78344C1.81046 34.2271 2.31035 35.5571 4.21535 35.5571C6.07982 35.5571 6.59322 34.5936 6.59322 33.8743C6.59322 33.0328 6.06631 32.5714 4.20184 32.3407C1.9861 32.0693 0.756628 31.2957 0.756628 29.6671C0.756628 28.1743 2.02663 26.98 4.22886 26.98C6.5662 26.98 7.59301 28.4728 7.63354 30.02H6.32301C6.32301 29.1786 5.75556 28.1743 4.20184 28.1743C2.60759 28.1743 2.14822 28.9614 2.14822 29.5857C2.14822 30.1693 2.40493 30.7528 4.33695 31.0107ZM13.9163 26.98C16.821 26.98 18.5639 29.165 18.5639 31.8657C18.5639 34.5664 16.821 36.7514 13.9163 36.7514C11.0115 36.7514 9.26864 34.5664 9.26864 31.8657C9.26864 29.165 11.0115 26.98 13.9163 26.98ZM13.9163 35.5571C15.9429 35.5571 17.1588 33.915 17.1588 31.8657C17.1588 29.8164 15.9429 28.1743 13.9163 28.1743C11.8897 28.1743 10.6737 29.8164 10.6737 31.8657C10.6737 33.915 11.8897 35.5571 13.9163 35.5571ZM20.1601 27.0886H21.5652V35.4486H26.2128V36.6428H20.1601V27.0886ZM33.8592 27.0886H35.2643V32.9514C35.2643 35.4214 33.8051 36.7514 31.5894 36.7514C29.3601 36.7514 27.9145 35.4214 27.9145 32.9514V27.0886H29.3196V33.06C29.3196 34.8921 30.4545 35.5571 31.5894 35.5571C32.6702 35.5571 33.8592 34.8786 33.8592 33.06V27.0886ZM36.9649 27.0886H44.3147V28.2828H41.3423V36.6428H39.9372V28.2828H36.9649V27.0886ZM47.4275 36.6428H46.0224V27.0886H47.4275V36.6428ZM53.6777 26.98C56.5825 26.98 58.3253 29.165 58.3253 31.8657C58.3253 34.5664 56.5825 36.7514 53.6777 36.7514C50.7729 36.7514 49.03 34.5664 49.03 31.8657C49.03 29.165 50.7729 26.98 53.6777 26.98ZM53.6777 35.5571C55.7043 35.5571 56.9202 33.915 56.9202 31.8657C56.9202 29.8164 55.7043 28.1743 53.6777 28.1743C51.6511 28.1743 50.4351 29.8164 50.4351 31.8657C50.4351 33.915 51.6511 35.5571 53.6777 35.5571ZM59.9215 36.6428V27.0886H62.0832L66.3255 35.5436C66.3525 35.5843 66.3796 35.6386 66.4471 35.625C66.5417 35.5978 66.5282 35.5164 66.4741 35.3943C66.339 35.0821 66.2985 34.7564 66.2985 34.3628V27.0886H67.7036V36.6428H65.5419L61.2996 28.1878C61.286 28.1471 61.232 28.0793 61.178 28.1064C61.0834 28.1471 61.0969 28.215 61.1509 28.3371C61.286 28.6493 61.3266 28.975 61.3266 29.3686V36.6428H59.9215ZM73.3119 31.0107C75.406 31.2957 76.9733 31.7843 76.9733 33.7928C76.9733 35.34 75.6897 36.7514 73.1903 36.7514C70.5557 36.7514 69.4073 35.0414 69.4073 33.2771H70.7584C70.7854 34.2271 71.2853 35.5571 73.1903 35.5571C75.0547 35.5571 75.5681 34.5936 75.5681 33.8743C75.5681 33.0328 75.0412 32.5714 73.1768 32.3407C70.961 32.0693 69.7315 31.2957 69.7315 29.6671C69.7315 28.1743 71.0015 26.98 73.2038 26.98C75.5411 26.98 76.5679 28.4728 76.6085 30.02H75.2979C75.2979 29.1786 74.7305 28.1743 73.1768 28.1743C71.5825 28.1743 71.1231 28.9614 71.1231 29.5857C71.1231 30.1693 71.3798 30.7528 73.3119 31.0107Z" fill="black"/>
</svg>
