<svg aria-hidden="true" style="position: absolute; width: 0; height: 0; overflow: hidden;" version="1.1" xmlns="http://www.w3.org/2000/svg" xmlns:xlink="http://www.w3.org/1999/xlink">
<defs>
<symbol id="icon-menu" viewBox="0 0 32 32">
<path fill="transparent" style="fill: var(--color1, transparent)" d="M0 0h32v32h-32v-32z"></path>
<path fill="#a066ff" style="fill: var(--color2, #a066ff)" d="M4.8 8h21.932v1.6h-21.932v-1.6z"></path>
<path fill="#a066ff" style="fill: var(--color2, #a066ff)" d="M4.8 15.2h21.932v1.6h-21.932v-1.6z"></path>
<path fill="#a066ff" style="fill: var(--color2, #a066ff)" d="M4.8 22.4h21.932v1.6h-21.932v-1.6z"></path>
</symbol>
<symbol id="icon-close" viewBox="0 0 32 32">
<path fill="none" stroke="#a066ff" style="stroke: var(--color2, #a066ff)" stroke-linejoin="round" stroke-linecap="round" stroke-miterlimit="4" stroke-width="6" d="M28.114 3.886l-24.229 24.228"></path>
<path fill="none" stroke="#a066ff" style="stroke: var(--color2, #a066ff)" stroke-linejoin="round" stroke-linecap="round" stroke-miterlimit="4" stroke-width="6" d="M3.886 3.886l24.229 24.228"></path>
</symbol>
<symbol id="icon-select-arrow" viewBox="0 0 41 32">
<path fill="none" stroke-linejoin="miter" stroke-linecap="butt" stroke-miterlimit="4" stroke-width="9.1429" d="M4.183 3.988l16.049 19.453 16.049-19.453"></path>
</symbol>
<symbol id="icon-settings" viewBox="0 0 30 32">
<path fill="none" stroke="#8a38f5" style="stroke: var(--color1, #8a38f5)" stroke-linejoin="miter" stroke-linecap="butt" stroke-miterlimit="4" stroke-width="1.9394" d="M10.741 16.038c0 2.41 1.954 4.364 4.364 4.364s4.364-1.954 4.364-4.364c0-2.41-1.954-4.364-4.364-4.364s-4.364 1.954-4.364 4.364z"></path>
<path fill="#8a38f5" style="fill: var(--color1, #8a38f5)" d="M15.105 1.492v0zM21.65 5.765v0zM21.65 26.31v0zM15.105 30.583v0zM8.559 26.31v0zM8.559 5.765v0zM10.68 2.702v0zM1.627 12.477v0zM1.268 11.543v0zM5.114 25.913v0zM4.234 25.702v0zM11.259 30.068v0zM10.68 29.373v0zM19.527 29.373v0zM18.948 30.068v0zM25.973 25.702v0zM25.094 25.913v0zM28.941 11.543v0zM28.582 12.477v0zM1.268 20.531v0zM1.627 19.598v0zM25.973 6.372v0zM5.114 6.162v0zM28.941 20.531v0zM19.527 2.702v0zM15.105 1.492l-0 0.97c1.243 0 2.446 0.167 3.588 0.48l0.512-1.871c-1.307-0.357-2.681-0.548-4.099-0.548v0.97zM19.527 2.702l-0.956 0.16c0.253 1.515 1.158 2.914 2.595 3.743l0.97-1.68c-0.914-0.528-1.49-1.415-1.651-2.383l-0.956 0.16zM21.65 5.765l-0.485 0.84c1.328 0.767 2.851 0.896 4.209 0.485l-0.561-1.856c-0.868 0.262-1.833 0.179-2.678-0.308l-0.485 0.84zM25.973 6.372l-0.724 0.645c1.232 1.385 2.184 3.023 2.769 4.826l1.845-0.599c-0.669-2.063-1.758-3.935-3.165-5.516l-0.724 0.645zM28.582 12.477l-0.561-0.791c-1.359 0.965-2.249 2.554-2.249 4.351h1.939c0-1.143 0.564-2.153 1.432-2.77l-0.561-0.791zM26.741 16.038h-0.97c0 1.798 0.89 3.386 2.249 4.35l1.122-1.582c-0.869-0.617-1.432-1.627-1.432-2.769h-0.97zM28.941 20.531l-0.922-0.299c-0.585 1.803-1.537 3.441-2.77 4.826l1.449 1.289c1.407-1.582 2.496-3.454 3.165-5.516l-0.922-0.299zM25.094 25.913l0.281-0.928c-1.358-0.411-2.881-0.282-4.209 0.485l0.97 1.68c0.845-0.488 1.81-0.571 2.678-0.308l0.281-0.928zM21.65 26.31l-0.485-0.84c-1.437 0.829-2.341 2.228-2.594 3.743l1.913 0.32c0.162-0.968 0.738-1.855 1.651-2.383l-0.485-0.84zM18.948 30.068l-0.256-0.935c-1.142 0.312-2.345 0.48-3.588 0.48l0 0.97v0.97c1.418-0 2.793-0.192 4.099-0.549l-0.256-0.935zM15.105 30.583v-0.97c-1.244 0-2.447-0.168-3.589-0.48l-0.512 1.871c1.307 0.358 2.682 0.549 4.101 0.549v-0.97zM10.68 29.373l0.956-0.159c-0.252-1.515-1.155-2.914-2.593-3.744l-0.97 1.68c0.913 0.527 1.488 1.414 1.649 2.383l0.957-0.159zM8.559 26.31l0.485-0.84c-1.329-0.767-2.852-0.896-4.211-0.485l0.561 1.856c0.868-0.263 1.835-0.179 2.68 0.309l0.485-0.84zM4.234 25.702l0.724-0.645c-1.232-1.385-2.184-3.023-2.769-4.826l-1.845 0.599c0.669 2.062 1.757 3.935 3.164 5.516l0.724-0.645zM1.627 19.598l0.561 0.791c1.359-0.964 2.25-2.553 2.25-4.351h-1.939c0 1.142-0.564 2.152-1.433 2.769l0.561 0.791zM3.468 16.038h0.97c0-1.798-0.891-3.387-2.25-4.351l-1.122 1.582c0.869 0.617 1.433 1.627 1.433 2.77h0.97zM1.268 11.543l0.922 0.299c0.585-1.803 1.536-3.441 2.768-4.826l-1.449-1.289c-1.407 1.582-2.495 3.454-3.164 5.516l0.922 0.299zM5.114 6.162l-0.281 0.928c1.359 0.411 2.882 0.282 4.211-0.485l-0.97-1.68c-0.845 0.488-1.812 0.571-2.68 0.309l-0.281 0.928zM8.559 5.765l0.485 0.84c1.437-0.83 2.34-2.229 2.593-3.743l-1.913-0.319c-0.161 0.969-0.736 1.855-1.649 2.383l0.485 0.84zM11.259 2.006l0.256 0.935c1.142-0.312 2.346-0.48 3.59-0.48v-1.939c-1.418 0-2.794 0.191-4.101 0.548l0.256 0.935zM10.68 2.702l0.957 0.159c0.002-0.009 0.004-0.005-0.009 0.011-0.015 0.019-0.053 0.053-0.113 0.069l-0.511-1.871c-0.762 0.208-1.179 0.867-1.28 1.472l0.957 0.159zM1.627 12.477l0.561-0.791c-0.009-0.007-0.005-0.009 0.002 0.010 0.004 0.011 0.010 0.030 0.012 0.057s-0.002 0.059-0.012 0.089l-1.845-0.599c-0.276 0.851 0.165 1.63 0.72 2.024l0.561-0.791zM5.114 25.913l-0.281-0.928c-0.009 0.003-0.006-0.001 0.014 0.003 0.024 0.005 0.070 0.024 0.111 0.070l-1.449 1.289c0.525 0.59 1.299 0.671 1.885 0.494l-0.281-0.928zM11.259 30.068l0.256-0.935c0.060 0.016 0.097 0.050 0.113 0.069 0.013 0.016 0.010 0.021 0.009 0.011l-1.913 0.319c0.101 0.604 0.518 1.263 1.28 1.472l0.256-0.935zM19.527 29.373l-0.956-0.16c-0.002 0.009-0.004 0.005 0.009-0.011 0.015-0.019 0.053-0.053 0.113-0.069l0.512 1.871c0.762-0.209 1.179-0.867 1.28-1.471l-0.956-0.16zM25.973 25.702l-0.724-0.645c0.041-0.046 0.087-0.065 0.111-0.070 0.020-0.004 0.023-0 0.014-0.003l-0.561 1.857c0.586 0.177 1.36 0.095 1.884-0.494l-0.724-0.645zM28.941 11.543l-0.922 0.299c-0.010-0.030-0.013-0.061-0.012-0.089 0.001-0.027 0.007-0.046 0.012-0.057 0.008-0.019 0.012-0.017 0.002-0.010l1.122 1.582c0.555-0.394 0.996-1.173 0.72-2.024l-0.922 0.299zM1.268 20.531l0.922-0.299c0.010 0.030 0.013 0.061 0.012 0.089s-0.007 0.047-0.012 0.058c-0.008 0.019-0.012 0.017-0.002 0.010l-1.122-1.582c-0.555 0.394-0.996 1.173-0.72 2.024l0.922-0.299zM25.094 6.162l0.281 0.928c0.009-0.003 0.006 0.001-0.014-0.003-0.024-0.005-0.070-0.024-0.111-0.070l1.449-1.289c-0.524-0.589-1.299-0.671-1.884-0.494l0.281 0.928zM4.234 6.373l0.724 0.645c-0.041 0.046-0.087 0.065-0.111 0.070-0.020 0.004-0.023 0-0.014 0.003l0.561-1.856c-0.586-0.177-1.36-0.096-1.885 0.494l0.724 0.645zM28.582 19.597l-0.561 0.791c0.009 0.007 0.005 0.009-0.002-0.010-0.004-0.011-0.010-0.030-0.012-0.057-0.002-0.028 0.002-0.059 0.012-0.089l1.845 0.599c0.276-0.851-0.165-1.63-0.72-2.024l-0.561 0.791zM18.948 2.006l-0.256 0.935c-0.060-0.016-0.097-0.050-0.113-0.069-0.013-0.016-0.010-0.020-0.009-0.011l1.913-0.319c-0.101-0.604-0.518-1.263-1.28-1.472l-0.256 0.935z"></path>
</symbol>
<symbol id="icon-rocket" viewBox="0 0 32 32">
<path fill="#8a38f5" style="fill: var(--color1, #8a38f5)" d="M22.758 17.006v0zM14.902 9.151v0zM26.488 7.522v0zM24.386 5.421v0zM9.638 16.83v0zM15.078 22.27v0zM11.554 14.069c-0.32-0.32-0.84-0.32-1.16 0s-0.32 0.84 0 1.16l1.16-1.16zM16.679 21.514c0.32 0.32 0.84 0.32 1.16 0s0.32-0.84 0-1.16l-1.16 1.16zM9.59 23.478c0.32-0.32 0.32-0.84 0-1.16s-0.84-0.32-1.16 0l1.16 1.16zM5.288 25.46c-0.32 0.32-0.32 0.84 0 1.16s0.84 0.32 1.16 0l-1.16-1.16zM7.234 21.121c0.32-0.32 0.32-0.84 0-1.16s-0.84-0.32-1.16 0l1.16 1.16zM4.502 21.532c-0.32 0.32-0.32 0.84 0 1.16s0.84 0.32 1.16 0l-1.16-1.16zM11.947 25.835c0.321-0.32 0.321-0.84 0-1.16s-0.84-0.32-1.16 0l1.16 1.16zM9.216 26.246c-0.32 0.32-0.32 0.84 0 1.16s0.84 0.32 1.16 0l-1.16-1.16zM14.195 26.197v0zM19.93 22.348v0zM5.711 17.713v0zM9.56 11.979v0zM12.666 21.84l0.58-0.58-2.598-2.598-1.16 1.16 2.598 2.598 0.58-0.58zM22.758 17.006l-0.602-0.558c-2.106 2.27-5.523 4.146-7.439 5.085l0.722 1.473c1.933-0.948 5.593-2.933 7.92-5.443l-0.602-0.558zM9.638 16.83l0.737 0.361c0.939-1.916 2.815-5.334 5.085-7.439l-1.116-1.203c-2.51 2.328-4.495 5.987-5.443 7.92l0.737 0.361zM26.488 7.522l-0.814-0.106c-0.338 2.581-1.235 6.571-3.518 9.032l1.203 1.116c2.658-2.866 3.599-7.315 3.942-9.935l-0.814-0.106zM14.902 9.151l0.558 0.602c2.462-2.283 6.451-3.18 9.032-3.518l-0.213-1.627c-2.62 0.343-7.069 1.284-9.935 3.942l0.558 0.602zM26.488 7.522l0.814 0.106c0.233-1.785-1.237-3.255-3.022-3.022l0.213 1.627c0.716-0.094 1.275 0.466 1.182 1.182l0.814 0.106zM10.068 19.242l0.58-0.58c-0.407-0.407-0.507-0.993-0.273-1.47l-1.473-0.722c-0.562 1.146-0.285 2.482 0.586 3.353l0.58-0.58zM12.666 21.84l-0.58 0.58c0.872 0.872 2.207 1.148 3.353 0.586l-0.722-1.473c-0.477 0.234-1.063 0.134-1.47-0.273l-0.58 0.58zM10.974 14.65l-0.58 0.58 6.285 6.285 1.16-1.16-6.285-6.285-0.58 0.58zM9.010 22.898l-0.58-0.58-3.142 3.142 1.16 1.16 3.142-3.142-0.58-0.58zM6.654 20.541l-0.58-0.58-1.571 1.571 1.16 1.16 1.571-1.571-0.58-0.58zM11.367 25.255l-0.58-0.58-1.571 1.571 1.16 1.16 1.571-1.571-0.58-0.58zM17.652 11.114l-0.58-0.58c-1.188 1.188-1.188 3.114 0 4.303l1.16-1.16c-0.547-0.547-0.547-1.435-0-1.982l-0.58-0.58zM17.652 14.257l-0.58 0.58c1.188 1.188 3.115 1.188 4.303 0l-1.16-1.16c-0.547 0.547-1.435 0.547-1.982 0l-0.58 0.58zM20.794 14.257l0.58 0.58c1.188-1.188 1.188-3.115 0-4.303l-1.16 1.16c0.547 0.547 0.547 1.435 0 1.982l0.58 0.58zM20.794 11.114l0.58-0.58c-1.188-1.188-3.114-1.188-4.303 0l1.16 1.16c0.547-0.547 1.435-0.547 1.982 0l0.58-0.58zM19.616 23.291l-0.58-0.58-3.535 3.535 1.16 1.16 3.535-3.535-0.58-0.58zM14.195 26.197l0.812-0.116-0.471-3.299-1.625 0.232 0.471 3.299 0.812-0.116zM19.616 20.148l-0.812 0.116 0.314 2.2 1.625-0.232-0.314-2.2-0.812 0.116zM16.080 26.826l-0.58-0.58c-0.169 0.169-0.459 0.073-0.493-0.164l-1.625 0.232c0.225 1.576 2.152 2.218 3.278 1.093l-0.58-0.58zM19.616 23.291l0.58 0.58c0.43-0.43 0.632-1.037 0.546-1.639l-1.625 0.232c0.013 0.090-0.017 0.182-0.082 0.246l0.58 0.58zM8.617 12.293l-0.58-0.58-3.535 3.535 1.16 1.16 3.535-3.535-0.58-0.58zM5.711 17.713l-0.116 0.812 3.299 0.471 0.116-0.812 0.116-0.812-3.299-0.471-0.116 0.812zM11.76 12.293l0.116-0.812-2.2-0.314-0.116 0.812-0.116 0.812 2.2 0.314 0.116-0.812zM5.082 15.828l-0.58-0.58c-1.125 1.125-0.483 3.053 1.093 3.278l0.232-1.625c-0.237-0.034-0.334-0.324-0.164-0.493l-0.58-0.58zM8.617 12.293l0.58 0.58c0.065-0.065 0.156-0.095 0.246-0.082l0.116-0.812 0.116-0.812c-0.602-0.086-1.209 0.116-1.639 0.546l0.58 0.58z"></path>
</symbol>
<symbol id="icon-chart" viewBox="0 0 33 32">
<path fill="none" stroke="#8a38f5" style="stroke: var(--color1, #8a38f5)" stroke-linejoin="miter" stroke-linecap="butt" stroke-miterlimit="4" stroke-width="2.2857" d="M7.371 1.143h18.286c3.156 0 5.714 2.558 5.714 5.714v18.286c0 3.156-2.558 5.714-5.714 5.714h-18.286c-3.156 0-5.714-2.558-5.714-5.714v-18.286c0-3.156 2.558-5.714 5.714-5.714z"></path>
<path fill="none" stroke="#8a38f5" style="stroke: var(--color1, #8a38f5)" stroke-linejoin="round" stroke-linecap="round" stroke-miterlimit="4" stroke-width="2.2857" d="M10.571 23.429v-4.457"></path>
<path fill="none" stroke="#8a38f5" style="stroke: var(--color1, #8a38f5)" stroke-linejoin="round" stroke-linecap="round" stroke-miterlimit="4" stroke-width="2.2857" d="M16.514 23.429v-14.857"></path>
<path fill="none" stroke="#8a38f5" style="stroke: var(--color1, #8a38f5)" stroke-linejoin="round" stroke-linecap="round" stroke-miterlimit="4" stroke-width="2.2857" d="M22.457 23.429v-10.4"></path>
</symbol>
<symbol id="icon-slider-arrow" viewBox="0 0 19 32">
<path fill="none" stroke="#fff" style="stroke: var(--color1, #fff)" stroke-linejoin="round" stroke-linecap="round" stroke-miterlimit="4" stroke-width="4.3636" d="M15.792 3.533l-12.468 12.467 12.468 12.468"></path>
</symbol>
<symbol id="icon-play" viewBox="0 0 36 36">
<path fill="#fff" style="fill: var(--color1, #fff)" d="M28.087 16.27l-27.165 15.684v-31.367l27.165 15.684z"></path>
</symbol>
</defs>
</svg>
