<svg aria-hidden="true" style="position: absolute; width: 0; height: 0; overflow: hidden;" version="1.1" xmlns="http://www.w3.org/2000/svg" xmlns:xlink="http://www.w3.org/1999/xlink">
<defs>
<symbol id="icon-menu" viewBox="0 0 32 32">
<path fill="transparent" style="fill: var(--color1, transparent)" d="M0 0h32v32h-32v-32z"></path>
<path fill="#a066ff" style="fill: var(--color2, #a066ff)" d="M4.8 8h21.932v1.6h-21.932v-1.6z"></path>
<path fill="#a066ff" style="fill: var(--color2, #a066ff)" d="M4.8 15.2h21.932v1.6h-21.932v-1.6z"></path>
<path fill="#a066ff" style="fill: var(--color2, #a066ff)" d="M4.8 22.4h21.932v1.6h-21.932v-1.6z"></path>
</symbol>
<symbol id="icon-close" viewBox="0 0 32 32">
<path fill="none" stroke="#a066ff" style="stroke: var(--color2, #a066ff)" stroke-linejoin="round" stroke-linecap="round" stroke-miterlimit="4" stroke-width="6" d="M28.114 3.886l-24.229 24.228"></path>
<path fill="none" stroke="#a066ff" style="stroke: var(--color2, #a066ff)" stroke-linejoin="round" stroke-linecap="round" stroke-miterlimit="4" stroke-width="6" d="M3.886 3.886l24.229 24.228"></path>
</symbol>
<symbol id="icon-select-arrow" viewBox="0 0 41 32">
<path fill="none" stroke-linejoin="miter" stroke-linecap="butt" stroke-miterlimit="4" stroke-width="9.1429" d="M4.183 3.988l16.049 19.453 16.049-19.453"></path>
</symbol>
<symbol id="icon-settings" viewBox="0 0 30 32">
<path fill="none" stroke="#8a38f5" style="stroke: var(--color1, #8a38f5)" stroke-linejoin="miter" stroke-linecap="butt" stroke-miterlimit="4" stroke-width="1.9394" d="M10.741 16.038c0 2.41 1.954 4.364 4.364 4.364s4.364-1.954 4.364-4.364c0-2.41-1.954-4.364-4.364-4.364s-4.364 1.954-4.364 4.364z"></path>
<path fill="#8a38f5" style="fill: var(--color1, #8a38f5)" d="M15.105 1.492v0zM21.65 5.765v0zM21.65 26.31v0zM15.105 30.583v0zM8.559 26.31v0zM8.559 5.765v0zM10.68 2.702v0zM1.627 12.477v0zM1.268 11.543v0zM5.114 25.913v0zM4.234 25.702v0zM11.259 30.068v0zM10.68 29.373v0zM19.527 29.373v0zM18.948 30.068v0zM25.973 25.702v0zM25.094 25.913v0zM28.941 11.543v0zM28.582 12.477v0zM1.268 20.531v0zM1.627 19.598v0zM25.973 6.372v0zM5.114 6.162v0zM28.941 20.531v0zM19.527 2.702v0zM15.105 1.492l-0 0.97c1.243 0 2.446 0.167 3.588 0.48l0.512-1.871c-1.307-0.357-2.681-0.548-4.099-0.548v0.97zM19.527 2.702l-0.956 0.16c0.253 1.515 1.158 2.914 2.595 3.743l0.97-1.68c-0.914-0.528-1.49-1.415-1.651-2.383l-0.956 0.16zM21.65 5.765l-0.485 0.84c1.328 0.767 2.851 0.896 4.209 0.485l-0.561-1.856c-0.868 0.262-1.833 0.179-2.678-0.308l-0.485 0.84zM25.973 6.372l-0.724 0.645c1.232 1.385 2.184 3.023 2.769 4.826l1.845-0.599c-0.669-2.063-1.758-3.935-3.165-5.516l-0.724 0.645zM28.582 12.477l-0.561-0.791c-1.359 0.965-2.249 2.554-2.249 4.351h1.939c0-1.143 0.564-2.153 1.432-2.77l-0.561-0.791zM26.741 16.038h-0.97c0 1.798 0.89 3.386 2.249 4.35l1.122-1.582c-0.869-0.617-1.432-1.627-1.432-2.769h-0.97zM28.941 20.531l-0.922-0.299c-0.585 1.803-1.537 3.441-2.77 4.826l1.449 1.289c1.407-1.582 2.496-3.454 3.165-5.516l-0.922-0.299zM25.094 25.913l0.281-0.928c-1.358-0.411-2.881-0.282-4.209 0.485l0.97 1.68c0.845-0.488 1.81-0.571 2.678-0.308l0.281-0.928zM21.65 26.31l-0.485-0.84c-1.437 0.829-2.341 2.228-2.594 3.743l1.913 0.32c0.162-0.968 0.738-1.855 1.651-2.383l-0.485-0.84zM18.948 30.068l-0.256-0.935c-1.142 0.312-2.345 0.48-3.588 0.48l0 0.97v0.97c1.418-0 2.793-0.192 4.099-0.549l-0.256-0.935zM15.105 30.583v-0.97c-1.244 0-2.447-0.168-3.589-0.48l-0.512 1.871c1.307 0.358 2.682 0.549 4.101 0.549v-0.97zM10.68 29.373l0.956-0.159c-0.252-1.515-1.155-2.914-2.593-3.744l-0.97 1.68c0.913 0.527 1.488 1.414 1.649 2.383l0.957-0.159zM8.559 26.31l0.485-0.84c-1.329-0.767-2.852-0.896-4.211-0.485l0.561 1.856c0.868-0.263 1.835-0.179 2.68 0.309l0.485-0.84zM4.234 25.702l0.724-0.645c-1.232-1.385-2.184-3.023-2.769-4.826l-1.845 0.599c0.669 2.062 1.757 3.935 3.164 5.516l0.724-0.645zM1.627 19.598l0.561 0.791c1.359-0.964 2.25-2.553 2.25-4.351h-1.939c0 1.142-0.564 2.152-1.433 2.769l0.561 0.791zM3.468 16.038h0.97c0-1.798-0.891-3.387-2.25-4.351l-1.122 1.582c0.869 0.617 1.433 1.627 1.433 2.77h0.97zM1.268 11.543l0.922 0.299c0.585-1.803 1.536-3.441 2.768-4.826l-1.449-1.289c-1.407 1.582-2.495 3.454-3.164 5.516l0.922 0.299zM5.114 6.162l-0.281 0.928c1.359 0.411 2.882 0.282 4.211-0.485l-0.97-1.68c-0.845 0.488-1.812 0.571-2.68 0.309l-0.281 0.928zM8.559 5.765l0.485 0.84c1.437-0.83 2.34-2.229 2.593-3.743l-1.913-0.319c-0.161 0.969-0.736 1.855-1.649 2.383l0.485 0.84zM11.259 2.006l0.256 0.935c1.142-0.312 2.346-0.48 3.59-0.48v-1.939c-1.418 0-2.794 0.191-4.101 0.548l0.256 0.935zM10.68 2.702l0.957 0.159c0.002-0.009 0.004-0.005-0.009 0.011-0.015 0.019-0.053 0.053-0.113 0.069l-0.511-1.871c-0.762 0.208-1.179 0.867-1.28 1.472l0.957 0.159zM1.627 12.477l0.561-0.791c-0.009-0.007-0.005-0.009 0.002 0.010 0.004 0.011 0.010 0.030 0.012 0.057s-0.002 0.059-0.012 0.089l-1.845-0.599c-0.276 0.851 0.165 1.63 0.72 2.024l0.561-0.791zM5.114 25.913l-0.281-0.928c-0.009 0.003-0.006-0.001 0.014 0.003 0.024 0.005 0.070 0.024 0.111 0.070l-1.449 1.289c0.525 0.59 1.299 0.671 1.885 0.494l-0.281-0.928zM11.259 30.068l0.256-0.935c0.060 0.016 0.097 0.050 0.113 0.069 0.013 0.016 0.010 0.021 0.009 0.011l-1.913 0.319c0.101 0.604 0.518 1.263 1.28 1.472l0.256-0.935zM19.527 29.373l-0.956-0.16c-0.002 0.009-0.004 0.005 0.009-0.011 0.015-0.019 0.053-0.053 0.113-0.069l0.512 1.871c0.762-0.209 1.179-0.867 1.28-1.471l-0.956-0.16zM25.973 25.702l-0.724-0.645c0.041-0.046 0.087-0.065 0.111-0.070 0.020-0.004 0.023-0 0.014-0.003l-0.561 1.857c0.586 0.177 1.36 0.095 1.884-0.494l-0.724-0.645zM28.941 11.543l-0.922 0.299c-0.010-0.030-0.013-0.061-0.012-0.089 0.001-0.027 0.007-0.046 0.012-0.057 0.008-0.019 0.012-0.017 0.002-0.010l1.122 1.582c0.555-0.394 0.996-1.173 0.72-2.024l-0.922 0.299zM1.268 20.531l0.922-0.299c0.010 0.030 0.013 0.061 0.012 0.089s-0.007 0.047-0.012 0.058c-0.008 0.019-0.012 0.017-0.002 0.010l-1.122-1.582c-0.555 0.394-0.996 1.173-0.72 2.024l0.922-0.299zM25.094 6.162l0.281 0.928c0.009-0.003 0.006 0.001-0.014-0.003-0.024-0.005-0.070-0.024-0.111-0.070l1.449-1.289c-0.524-0.589-1.299-0.671-1.884-0.494l0.281 0.928zM4.234 6.373l0.724 0.645c-0.041 0.046-0.087 0.065-0.111 0.070-0.020 0.004-0.023 0-0.014 0.003l0.561-1.856c-0.586-0.177-1.36-0.096-1.885 0.494l0.724 0.645zM28.582 19.597l-0.561 0.791c0.009 0.007 0.005 0.009-0.002-0.010-0.004-0.011-0.010-0.030-0.012-0.057-0.002-0.028 0.002-0.059 0.012-0.089l1.845 0.599c0.276-0.851-0.165-1.63-0.72-2.024l-0.561 0.791zM18.948 2.006l-0.256 0.935c-0.060-0.016-0.097-0.050-0.113-0.069-0.013-0.016-0.010-0.020-0.009-0.011l1.913-0.319c-0.101-0.604-0.518-1.263-1.28-1.472l-0.256 0.935z"></path>
</symbol>
<symbol id="icon-rocket" viewBox="0 0 32 32">
<path fill="#8a38f5" style="fill: var(--color1, #8a38f5)" d="M22.758 17.006v0zM14.902 9.151v0zM26.488 7.522v0zM24.386 5.421v0zM9.638 16.83v0zM15.078 22.27v0zM11.554 14.069c-0.32-0.32-0.84-0.32-1.16 0s-0.32 0.84 0 1.16l1.16-1.16zM16.679 21.514c0.32 0.32 0.84 0.32 1.16 0s0.32-0.84 0-1.16l-1.16 1.16zM9.59 23.478c0.32-0.32 0.32-0.84 0-1.16s-0.84-0.32-1.16 0l1.16 1.16zM5.288 25.46c-0.32 0.32-0.32 0.84 0 1.16s0.84 0.32 1.16 0l-1.16-1.16zM7.234 21.121c0.32-0.32 0.32-0.84 0-1.16s-0.84-0.32-1.16 0l1.16 1.16zM4.502 21.532c-0.32 0.32-0.32 0.84 0 1.16s0.84 0.32 1.16 0l-1.16-1.16zM11.947 25.835c0.321-0.32 0.321-0.84 0-1.16s-0.84-0.32-1.16 0l1.16 1.16zM9.216 26.246c-0.32 0.32-0.32 0.84 0 1.16s0.84 0.32 1.16 0l-1.16-1.16zM14.195 26.197v0zM19.93 22.348v0zM5.711 17.713v0zM9.56 11.979v0zM12.666 21.84l0.58-0.58-2.598-2.598-1.16 1.16 2.598 2.598 0.58-0.58zM22.758 17.006l-0.602-0.558c-2.106 2.27-5.523 4.146-7.439 5.085l0.722 1.473c1.933-0.948 5.593-2.933 7.92-5.443l-0.602-0.558zM9.638 16.83l0.737 0.361c0.939-1.916 2.815-5.334 5.085-7.439l-1.116-1.203c-2.51 2.328-4.495 5.987-5.443 7.92l0.737 0.361zM26.488 7.522l-0.814-0.106c-0.338 2.581-1.235 6.571-3.518 9.032l1.203 1.116c2.658-2.866 3.599-7.315 3.942-9.935l-0.814-0.106zM14.902 9.151l0.558 0.602c2.462-2.283 6.451-3.18 9.032-3.518l-0.213-1.627c-2.62 0.343-7.069 1.284-9.935 3.942l0.558 0.602zM26.488 7.522l0.814 0.106c0.233-1.785-1.237-3.255-3.022-3.022l0.213 1.627c0.716-0.094 1.275 0.466 1.182 1.182l0.814 0.106zM10.068 19.242l0.58-0.58c-0.407-0.407-0.507-0.993-0.273-1.47l-1.473-0.722c-0.562 1.146-0.285 2.482 0.586 3.353l0.58-0.58zM12.666 21.84l-0.58 0.58c0.872 0.872 2.207 1.148 3.353 0.586l-0.722-1.473c-0.477 0.234-1.063 0.134-1.47-0.273l-0.58 0.58zM10.974 14.65l-0.58 0.58 6.285 6.285 1.16-1.16-6.285-6.285-0.58 0.58zM9.010 22.898l-0.58-0.58-3.142 3.142 1.16 1.16 3.142-3.142-0.58-0.58zM6.654 20.541l-0.58-0.58-1.571 1.571 1.16 1.16 1.571-1.571-0.58-0.58zM11.367 25.255l-0.58-0.58-1.571 1.571 1.16 1.16 1.571-1.571-0.58-0.58zM17.652 11.114l-0.58-0.58c-1.188 1.188-1.188 3.114 0 4.303l1.16-1.16c-0.547-0.547-0.547-1.435-0-1.982l-0.58-0.58zM17.652 14.257l-0.58 0.58c1.188 1.188 3.115 1.188 4.303 0l-1.16-1.16c-0.547 0.547-1.435 0.547-1.982 0l-0.58 0.58zM20.794 14.257l0.58 0.58c1.188-1.188 1.188-3.115 0-4.303l-1.16 1.16c0.547 0.547 0.547 1.435 0 1.982l0.58 0.58zM20.794 11.114l0.58-0.58c-1.188-1.188-3.114-1.188-4.303 0l1.16 1.16c0.547-0.547 1.435-0.547 1.982 0l0.58-0.58zM19.616 23.291l-0.58-0.58-3.535 3.535 1.16 1.16 3.535-3.535-0.58-0.58zM14.195 26.197l0.812-0.116-0.471-3.299-1.625 0.232 0.471 3.299 0.812-0.116zM19.616 20.148l-0.812 0.116 0.314 2.2 1.625-0.232-0.314-2.2-0.812 0.116zM16.080 26.826l-0.58-0.58c-0.169 0.169-0.459 0.073-0.493-0.164l-1.625 0.232c0.225 1.576 2.152 2.218 3.278 1.093l-0.58-0.58zM19.616 23.291l0.58 0.58c0.43-0.43 0.632-1.037 0.546-1.639l-1.625 0.232c0.013 0.090-0.017 0.182-0.082 0.246l0.58 0.58zM8.617 12.293l-0.58-0.58-3.535 3.535 1.16 1.16 3.535-3.535-0.58-0.58zM5.711 17.713l-0.116 0.812 3.299 0.471 0.116-0.812 0.116-0.812-3.299-0.471-0.116 0.812zM11.76 12.293l0.116-0.812-2.2-0.314-0.116 0.812-0.116 0.812 2.2 0.314 0.116-0.812zM5.082 15.828l-0.58-0.58c-1.125 1.125-0.483 3.053 1.093 3.278l0.232-1.625c-0.237-0.034-0.334-0.324-0.164-0.493l-0.58-0.58zM8.617 12.293l0.58 0.58c0.065-0.065 0.156-0.095 0.246-0.082l0.116-0.812 0.116-0.812c-0.602-0.086-1.209 0.116-1.639 0.546l0.58 0.58z"></path>
</symbol>
<symbol id="icon-chart" viewBox="0 0 33 32">
<path fill="none" stroke="#8a38f5" style="stroke: var(--color1, #8a38f5)" stroke-linejoin="miter" stroke-linecap="butt" stroke-miterlimit="4" stroke-width="2.2857" d="M7.371 1.143h18.286c3.156 0 5.714 2.558 5.714 5.714v18.286c0 3.156-2.558 5.714-5.714 5.714h-18.286c-3.156 0-5.714-2.558-5.714-5.714v-18.286c0-3.156 2.558-5.714 5.714-5.714z"></path>
<path fill="none" stroke="#8a38f5" style="stroke: var(--color1, #8a38f5)" stroke-linejoin="round" stroke-linecap="round" stroke-miterlimit="4" stroke-width="2.2857" d="M10.571 23.429v-4.457"></path>
<path fill="none" stroke="#8a38f5" style="stroke: var(--color1, #8a38f5)" stroke-linejoin="round" stroke-linecap="round" stroke-miterlimit="4" stroke-width="2.2857" d="M16.514 23.429v-14.857"></path>
<path fill="none" stroke="#8a38f5" style="stroke: var(--color1, #8a38f5)" stroke-linejoin="round" stroke-linecap="round" stroke-miterlimit="4" stroke-width="2.2857" d="M22.457 23.429v-10.4"></path>
</symbol>
<symbol id="icon-slider-arrow" viewBox="0 0 19 32">
<path fill="none" stroke="#fff" style="stroke: var(--color1, #fff)" stroke-linejoin="round" stroke-linecap="round" stroke-miterlimit="4" stroke-width="4.3636" d="M15.792 3.533l-12.468 12.467 12.468 12.468"></path>
</symbol>
<symbol id="icon-play" viewBox="0 0 36 36">
<path fill="#fff" style="fill: var(--color1, #fff)" d="M28.087 16.27l-27.165 15.684v-31.367l27.165 15.684z"></path>
</symbol>
<symbol id="icon-telegram" viewBox="0 0 37 32">
<path fill="#fff" style="fill: var(--color1, #fff)" d="M36.923 1.287l-5.549 28.966c0 0-0.776 2.008-2.909 1.045l-12.802-10.165-0.059-0.030c1.729-1.608 15.138-14.093 15.725-14.659 0.907-0.876 0.344-1.398-0.709-0.736l-19.807 13.026-7.641-2.663c0 0-1.203-0.443-1.318-1.406-0.117-0.965 1.358-1.487 1.358-1.487l31.152-12.655c0 0 2.56-1.165 2.56 0.763v0z"></path>
</symbol>
<symbol id="icon-linkedin" viewBox="0 0 38 32">
<path fill="#fff" style="fill: var(--color1, #fff)" d="M35.123 19.205l0.057 12.034-7.044 0.033-0.054-11.3c-0.013-2.788-1.050-4.691-3.544-4.68-1.908 0.009-3.076 1.335-3.51 2.512-0.145 0.441-0.289 1.029-0.285 1.762l0.056 11.74-7.044 0.033c0 0 0.056-19.079-0.1-20.986l7.044-0.033 0.014 2.935c0.874-1.472 2.625-3.535 6.294-3.552 4.549-0.022 8.086 3.044 8.117 9.501zM6.268 0.262c-2.348 0.011-3.955 1.633-3.945 3.688s1.485 3.662 3.833 3.651c2.495-0.012 3.955-1.633 3.945-3.688 0.136-2.202-1.338-3.663-3.833-3.651zM2.893 31.392l7.044-0.033-0.099-20.986-7.044 0.033 0.099 20.986z"></path>
</symbol>
<symbol id="icon-whatsapp" viewBox="0 0 32 32">
<path fill="#fff" style="fill: var(--color1, #fff)" d="M26.597 5.817c-2.802-2.766-6.528-4.293-10.454-4.274-8.161 0.039-14.741 6.658-14.702 14.79 0.012 2.574 0.747 5.144 1.997 7.299l-2.030 7.627 7.841-2.096c2.175 1.122 4.553 1.729 7.033 1.717 8.161-0.039 14.74-6.658 14.702-14.79-0.121-3.808-1.585-7.507-4.387-10.273zM23.366 21.48c-0.306 0.825-1.748 1.655-2.471 1.762-0.619 0.106-1.446 0.11-2.273-0.092-0.517-0.203-1.242-0.406-2.070-0.814-3.726-1.526-6.12-5.221-6.328-5.529-0.208-0.205-1.559-1.949-1.568-3.801s0.917-2.681 1.225-3.094c0.308-0.413 0.721-0.415 1.031-0.417 0.207-0.001 0.516-0.002 0.723-0.003s0.516-0.105 0.829 0.614c0.313 0.719 1.045 2.569 1.149 2.671 0.104 0.205 0.105 0.411 0.003 0.618s-0.205 0.413-0.41 0.62c-0.206 0.207-0.411 0.517-0.514 0.62-0.206 0.207-0.411 0.414-0.203 0.722 0.209 0.411 0.937 1.54 2.078 2.564 1.452 1.228 2.59 1.635 3.004 1.839s0.62 0.1 0.826-0.107 0.925-1.034 1.129-1.447c0.205-0.413 0.515-0.311 0.825-0.21s2.174 1.019 2.485 1.224c0.414 0.204 0.621 0.306 0.725 0.408 0.105 0.308 0.108 1.029-0.198 1.854z"></path>
</symbol>
<symbol id="icon-instagram" viewBox="0 0 32 32">
<path fill="#fff" style="fill: var(--color3, #fff)" d="M15.413 4.425c3.917-0.019 4.451-0.021 6.053-0.029 1.424-0.007 2.138 0.346 2.673 0.521 0.714 0.353 1.249 0.528 1.785 1.060s0.895 1.064 1.077 1.775c0.181 0.533 0.362 1.245 0.547 2.668 0.008 1.602 0.009 1.958 0.029 6.053s0.021 4.451 0.029 6.053c0.007 1.424-0.346 2.138-0.521 2.673-0.353 0.714-0.528 1.249-1.060 1.785s-1.064 0.895-1.775 1.077c-0.533 0.181-1.245 0.362-2.668 0.547-1.602 0.008-1.958 0.009-6.053 0.029s-4.451 0.021-6.053 0.029c-1.424 0.007-2.138-0.346-2.673-0.521-0.714-0.353-1.249-0.528-1.785-1.060s-0.895-1.064-1.077-1.775c-0.181-0.533-0.362-1.244-0.547-2.668-0.008-1.602-0.009-1.958-0.029-6.053s-0.021-4.451-0.029-6.053c-0.007-1.424 0.346-2.138 0.521-2.673 0.353-0.714 0.528-1.249 1.060-1.785s1.064-0.895 1.775-1.077c0.533-0.181 1.245-0.362 2.668-0.547 1.602-0.008 2.136-0.010 6.053-0.029zM15.4 1.755c-4.095 0.019-4.451 0.021-6.053 0.029s-2.669 0.369-3.557 0.729c-0.888 0.36-1.776 0.899-2.662 1.793s-1.239 1.608-1.768 2.679c-0.352 0.892-0.525 1.961-0.695 3.564 0.008 1.602 0.010 2.136 0.029 6.053 0.019 4.095 0.021 4.451 0.029 6.053s0.369 2.669 0.729 3.557c0.36 0.889 0.899 1.776 1.793 2.662s1.608 1.239 2.679 1.768c0.892 0.352 1.961 0.525 3.564 0.695 1.602-0.008 2.136-0.010 6.053-0.029s4.451-0.021 6.053-0.029c1.602-0.007 2.669-0.369 3.557-0.729s1.776-0.899 2.662-1.793c0.886-0.894 1.239-1.608 1.768-2.679 0.352-0.892 0.525-1.961 0.695-3.564-0.008-1.602-0.010-2.136-0.029-6.053s-0.021-4.451-0.029-6.053c-0.007-1.602-0.369-2.669-0.729-3.557s-0.899-1.776-1.793-2.662c-0.894-0.886-1.608-1.239-2.679-1.768-0.892-0.352-1.961-0.525-3.564-0.695-1.602 0.008-1.958 0.009-6.053 0.029z"></path>
<path fill="#fff" style="fill: var(--color3, #fff)" d="M15.434 8.876c-4.273 0.020-7.639 3.419-7.619 7.691s3.419 7.639 7.691 7.619c4.273-0.020 7.639-3.419 7.619-7.691s-3.419-7.639-7.691-7.619zM15.494 21.516c-2.67 0.013-4.995-2.113-5.008-4.961-0.013-2.67 2.113-4.995 4.961-5.008 2.67-0.013 4.995 2.113 5.008 4.961 0.013 2.67-2.291 4.996-4.961 5.008z"></path>
<path fill="#fff" style="fill: var(--color3, #fff)" d="M23.275 10.441c0.983-0.005 1.777-0.806 1.772-1.789s-0.805-1.776-1.789-1.772-1.777 0.806-1.772 1.789c0.005 0.983 0.805 1.776 1.789 1.772z"></path>
</symbol>
<symbol id="icon-facebook" viewBox="0 0 17 32">
<path fill="#fff" style="fill: var(--color3, #fff)" d="M10.497 17.138l4.714-0.022 0.717-4.822-5.455 0.026-0.012-2.633c-0.009-2.002 0.632-3.78 2.493-3.788l2.99-0.014-0.020-4.205c-0.526-0.069-1.638-0.22-3.737-0.21-4.384 0.021-6.944 2.362-6.919 7.67l0.015 3.205-4.507 0.021 0.023 4.818 4.507-0.021 0.063 13.243c0.893 0.131 1.798 0.218 2.726 0.214 0.839-0.004 1.657-0.085 2.465-0.199l-0.063-13.283z"></path>
</symbol>
<symbol id="icon-main-logo" viewBox="0 0 76 32">
<path fill="#a066ff" style="fill: var(--color1, #a066ff)" d="M37.646 31.661l-5.208 0.025-0.090-18.897 5.173-7.405 0.125 26.277z"></path>
<path fill="#020202" style="fill: var(--color2, #020202)" d="M0.149 31.84l-0.149-31.482 5.225-0.025 13.446 18.881 13.432-19.008 5.291-0.025-5.253 7.607-13.475 19.23-0.104 0-13.63-18.789 0.112 23.589-4.895 0.023z"></path>
<path fill="#020202" style="fill: var(--color2, #020202)" d="M49.561 2.089l-2.467 0.012-4.339 10.675 1.906-0.009 0.824-2.007 5.768-0.027 0.843 1.999 1.922-0.009-4.456-10.633zM46.118 9.203l1.964-4.848c0.095-0.225 0.142-0.449 0.141-0.69l-0.002-0.465 0.224-0.001 0.018 0.513c0.001 0.224 0.050 0.448 0.131 0.656l2.009 4.813-4.486 0.021z"></path>
<path fill="#020202" style="fill: var(--color2, #020202)" d="M60.832 8.476l0.007 1.554 1.987-0.009c-0.813 0.821-1.996 1.339-3.31 1.345-2.451 0.012-4.446-1.773-4.457-3.984-0.010-2.195 1.968-3.999 4.419-4.010 1.057-0.005 2.036 0.327 2.792 0.868l2.371-0.011c-1.128-1.469-3.023-2.421-5.17-2.411-3.428 0.016-6.188 2.513-6.174 5.573 0.015 3.076 2.798 5.546 6.226 5.53 1.202-0.006 2.322-0.315 3.264-0.849 0.32-0.178 0.559-0.451 0.717-0.756l0.127-0.257 0.209 0.111-0.143 0.289c-0.111 0.241-0.174 0.514-0.172 0.786l0.002 0.433 1.762-0.008-0.020-4.213-4.438 0.021z"></path>
<path fill="#020202" style="fill: var(--color2, #020202)" d="M73.841 3.528l-0.007-1.554-7.754 0.037 0.050 10.654 7.754-0.037-0.007-1.554-5.992 0.028-0.020-4.214 4.005-0.019-0.007-1.554-4.005 0.019-0.008-1.778 5.992-0.028z"></path>
<path fill="#020202" style="fill: var(--color2, #020202)" d="M51.745 26.671c0.001 0.192 0.034 0.384 0.099 0.56l0.244 0.72-0.224 0.081-0.244-0.704c-0.065-0.192-0.162-0.368-0.275-0.527l-6.077-7.87-1.762 0.008 0.050 10.654 1.762-0.008-0.037-7.77c-0.001-0.192-0.034-0.384-0.083-0.56l-0.26-0.736 0.224-0.081 0.244 0.72c0.065 0.192 0.162 0.352 0.275 0.511l6.077 7.886 1.778-0.008-0.050-10.654-1.778 0.008 0.037 7.77z"></path>
<path fill="#020202" style="fill: var(--color2, #020202)" d="M60.503 28.184c-2.451 0.012-4.446-1.773-4.457-3.984-0.010-2.195 1.968-3.999 4.419-4.010 1.057-0.005 2.036 0.327 2.792 0.868l2.371-0.011c-1.128-1.469-3.023-2.421-5.17-2.411-3.428 0.016-6.188 2.513-6.174 5.573 0.015 3.076 2.798 5.546 6.226 5.53 2.147-0.010 4.033-0.996 5.147-2.476l-2.371 0.011c-0.75 0.564-1.726 0.905-2.783 0.91z"></path>
<path fill="#020202" style="fill: var(--color2, #020202)" d="M73.832 18.764l-2.983 6.086c-0.127 0.241-0.19 0.514-0.189 0.786l0.001 0.304-0.24 0.001-0.001-0.304c-0.001-0.272-0.067-0.544-0.196-0.784l-3.041-6.058-1.73 0.008 4.205 8.359 0.011 2.307 1.778-0.008-0.011-2.307 4.126-8.399-1.73 0.008z"></path>
</symbol>
<symbol id="icon-error" viewBox="0 0 32 32">
<path fill="#ff2400" style="fill: var(--color1, #ff2400)" d="M10.243 3.61c1.137-2.226 3.35-3.614 5.758-3.61 2.45-0.019 4.71 1.383 5.873 3.644l9.332 18.117c1.107 2.151 1.054 4.754-0.14 6.854s-3.353 3.385-5.684 3.385h-18.762c-2.338 0.001-4.502-1.292-5.694-3.401s-1.235-4.721-0.113-6.872l9.431-18.117zM19.641 4.877c-0.718-1.407-2.119-2.282-3.64-2.273-1.499 0.011-2.874 0.875-3.59 2.256l-9.414 18.082c-0.703 1.341-0.678 2.972 0.067 4.288s2.097 2.121 3.556 2.116h18.762c1.454-0.009 2.797-0.815 3.542-2.125s0.782-2.932 0.098-4.278l-9.381-18.065z"></path>
<path fill="#ff2400" style="fill: var(--color1, #ff2400)" d="M16.001 20.825c-0.685 0-1.241 0.583-1.241 1.301s0.556 1.302 1.241 1.302c0.33 0.005 0.649-0.131 0.882-0.376s0.363-0.579 0.358-0.926c0-0.344-0.131-0.673-0.364-0.914s-0.549-0.375-0.876-0.37v-0.017z"></path>
<path fill="#ff2400" style="fill: var(--color1, #ff2400)" d="M16.001 18.447c-0.682-0.009-1.232-0.587-1.241-1.302v-5.38c0-0.719 0.556-1.302 1.241-1.302s1.241 0.583 1.241 1.302v5.38c0 0.719-0.556 1.302-1.241 1.302z"></path>
</symbol>
<symbol id="icon-success" viewBox="0 0 32 32">
<path fill="none" stroke="#9d68f3" style="stroke: var(--color1, #9d68f3)" stroke-linejoin="round" stroke-linecap="round" stroke-miterlimit="4" stroke-width="5.6471" d="M3.496 20.169l8.545 6.836c0.229 0.189 0.498 0.325 0.787 0.397s0.589 0.079 0.881 0.020c0.294-0.055 0.573-0.173 0.818-0.346s0.449-0.396 0.6-0.655l13.38-22.924"></path>
</symbol>
<symbol id="icon-flame" viewBox="0 0 31 32">
<path fill="#fff" style="fill: var(--color1, #fff)" d="M18.637 19.021h0.077c2.515-1.11 4.521-3.125 5.619-5.645v5.581c0.010 3.577-2.108 6.818-5.389 8.243h-0.090c-1.085 0.459-2.252 0.69-3.43 0.678-1.139 0.003-2.266-0.223-3.315-0.666l-0.333-0.141c-3.274-1.37-5.397-4.58-5.376-8.128v-0.23c0.025-1.817 0.765-3.551 2.061-4.826l0.23-0.218c2.037-1.995 3.717-4.324 4.966-6.886l1.754-3.584c0 0 1.818 2.56 3.507 5.12 2.061 3.057 1.375 7.192-1.562 9.421h-0.154c-0.305 0.384-0.272 0.935 0.077 1.28 0.146 0.123 0.335 0.183 0.525 0.166 0.284-0.012 0.565-0.068 0.832-0.166zM18.074 25.421h0.090v-0.013c2.559-1.122 4.219-3.644 4.237-6.438-0.863 0.76-1.85 1.366-2.918 1.792l-0.166 0.064c-0.482 0.188-0.993 0.287-1.51 0.294-0.701 0.025-1.381-0.239-1.882-0.73-1.046-1.033-1.145-2.689-0.23-3.84 0.112-0.14 0.241-0.264 0.384-0.371h0.090c2.158-1.61 2.666-4.634 1.152-6.861-0.55-0.819-1.101-1.638-1.613-2.368l-0.32 0.666c-1.355 2.73-3.164 5.211-5.35 7.334l-0.23 0.218c-0.93 0.917-1.463 2.163-1.485 3.469v0.243c-0.035 2.789 1.626 5.321 4.198 6.4l0.333 0.141c1.669 0.708 3.554 0.708 5.222 0z"></path>
</symbol>
<symbol id="icon-check" viewBox="0 0 36 32">
<path d="M32.162 7.44l-15.972 20.926c-0.381 0.488-0.949 0.808-1.576 0.887s-1.262-0.087-1.76-0.464l-11.405-8.804c-1.006-0.778-1.169-2.196-0.364-3.167s2.274-1.129 3.281-0.351l9.511 7.346 14.53-19.038c0.476-0.69 1.307-1.072 2.163-0.993s1.597 0.605 1.93 1.369c0.333 0.765 0.204 1.644-0.336 2.289z"></path>
</symbol>
<symbol id="icon-globe-remote" viewBox="0 0 32 32">
<path fill="none" stroke="#8a38f5" style="stroke: var(--color1, #8a38f5)" stroke-linejoin="round" stroke-linecap="round" stroke-miterlimit="4" stroke-width="1.4222" d="M30.933 23.959v4.65c0 0.617-0.245 1.208-0.681 1.644s-1.027 0.681-1.644 0.681h-4.65"></path>
<path fill="none" stroke="#8a38f5" style="stroke: var(--color1, #8a38f5)" stroke-linejoin="round" stroke-linecap="round" stroke-miterlimit="4" stroke-width="1.4222" d="M23.959 0.711h4.65c0.617 0 1.208 0.245 1.644 0.681s0.681 1.027 0.681 1.644v4.65"></path>
<path fill="none" stroke="#8a38f5" style="stroke: var(--color1, #8a38f5)" stroke-linejoin="round" stroke-linecap="round" stroke-miterlimit="4" stroke-width="1.4222" d="M0.711 7.685v-4.65c0-0.617 0.245-1.208 0.681-1.644s1.027-0.681 1.644-0.681h4.65"></path>
<path fill="none" stroke="#8a38f5" style="stroke: var(--color1, #8a38f5)" stroke-linejoin="round" stroke-linecap="round" stroke-miterlimit="4" stroke-width="1.4222" d="M7.685 30.933h-4.65c-0.617 0-1.208-0.245-1.644-0.681s-0.681-1.027-0.681-1.644v-4.65"></path>
<path fill="none" stroke="#8a38f5" style="stroke: var(--color1, #8a38f5)" stroke-linejoin="round" stroke-linecap="round" stroke-miterlimit="4" stroke-width="1.4222" d="M15.822 14.66c2.568 0 4.65-2.082 4.65-4.65s-2.082-4.65-4.65-4.65c-2.568 0-4.65 2.082-4.65 4.65s2.082 4.65 4.65 4.65z"></path>
<path fill="none" stroke="#8a38f5" style="stroke: var(--color1, #8a38f5)" stroke-linejoin="round" stroke-linecap="round" stroke-miterlimit="4" stroke-width="1.4222" d="M23.168 23.959c-0.661-1.388-1.702-2.561-3.002-3.382s-2.806-1.257-4.344-1.257c-1.538 0-3.044 0.436-4.344 1.257s-2.341 1.993-3.002 3.382"></path>
</symbol>
<symbol id="icon-plus-square" viewBox="0 0 33 32">
<path fill="none" stroke="#8a38f5" style="stroke: var(--color1, #8a38f5)" stroke-linejoin="round" stroke-linecap="round" stroke-miterlimit="4" stroke-width="1.4222" d="M12.648 6.996v10.795"></path>
<path fill="none" stroke="#8a38f5" style="stroke: var(--color1, #8a38f5)" stroke-linejoin="round" stroke-linecap="round" stroke-miterlimit="4" stroke-width="1.4222" d="M7.133 12.394h11.029"></path>
<path fill="none" stroke="#8a38f5" style="stroke: var(--color1, #8a38f5)" stroke-linejoin="round" stroke-linecap="round" stroke-miterlimit="4" stroke-width="1.4222" d="M22.197 0.711h-19.098c-1.318 0-2.387 1.046-2.387 2.337v18.692c0 1.29 1.069 2.337 2.387 2.337h19.098c1.318 0 2.387-1.046 2.387-2.337v-18.692c0-1.29-1.069-2.337-2.387-2.337z"></path>
<path fill="none" stroke="#8a38f5" style="stroke: var(--color1, #8a38f5)" stroke-linejoin="round" stroke-linecap="round" stroke-miterlimit="4" stroke-width="1.4222" d="M7.873 31.086h21.486c0.633 0 1.24-0.246 1.688-0.684s0.699-1.032 0.699-1.652v-21.029"></path>
</symbol>
<symbol id="icon-dollar-up" viewBox="0 0 34 32">
<path fill="none" stroke="#8a38f5" style="stroke: var(--color1, #8a38f5)" stroke-linejoin="round" stroke-linecap="round" stroke-miterlimit="4" stroke-width="1.4545" d="M30.937 8.28h-27.692c-1.39 0-2.517 1.127-2.517 2.517v17.622c0 1.39 1.127 2.517 2.517 2.517h27.692c1.39 0 2.517-1.127 2.517-2.517v-17.622c0-1.39-1.127-2.517-2.517-2.517z"></path>
<path fill="none" stroke="#8a38f5" style="stroke: var(--color1, #8a38f5)" stroke-linejoin="round" stroke-linecap="round" stroke-miterlimit="4" stroke-width="1.4545" d="M0.727 18.35h32.727"></path>
<path fill="none" stroke="#8a38f5" style="stroke: var(--color1, #8a38f5)" stroke-linejoin="round" stroke-linecap="round" stroke-miterlimit="4" stroke-width="1.4545" d="M17.091 15.832v5.035"></path>
<path fill="none" stroke="#8a38f5" style="stroke: var(--color1, #8a38f5)" stroke-linejoin="round" stroke-linecap="round" stroke-miterlimit="4" stroke-width="1.4545" d="M24.643 8.28c0-2.003-0.796-3.924-2.212-5.34s-3.337-2.212-5.34-2.212v0c-2.003 0-3.924 0.796-5.34 2.212s-2.212 3.337-2.212 5.34"></path>
</symbol>
<symbol id="icon-briefcase-heart" viewBox="0 0 32 32">
<path fill="none" stroke="#8a38f5" style="stroke: var(--color1, #8a38f5)" stroke-linejoin="round" stroke-linecap="round" stroke-miterlimit="4" stroke-width="1.4222" d="M18.147 30.933h-15.111c-0.617 0-1.208-0.245-1.644-0.681s-0.681-1.027-0.681-1.644v-25.573c0-0.617 0.245-1.208 0.681-1.644s1.027-0.681 1.644-0.681h17.436"></path>
<path fill="none" stroke="#8a38f5" style="stroke: var(--color1, #8a38f5)" stroke-linejoin="round" stroke-linecap="round" stroke-miterlimit="4" stroke-width="1.4222" d="M23.959 7.685l3.487-6.974 3.487 6.974v19.761c0 0.925-0.367 1.812-1.021 2.466s-1.541 1.021-2.466 1.021-1.812-0.367-2.466-1.021c-0.654-0.654-1.021-1.541-1.021-2.466v-19.761z"></path>
<path fill="none" stroke="#8a38f5" style="stroke: var(--color1, #8a38f5)" stroke-linejoin="round" stroke-linecap="round" stroke-miterlimit="4" stroke-width="1.4222" d="M23.959 21.634h6.974"></path>
<path fill="none" stroke="#8a38f5" style="stroke: var(--color1, #8a38f5)" stroke-linejoin="round" stroke-linecap="round" stroke-miterlimit="4" stroke-width="1.4222" d="M7.685 0.711v30.222"></path>
<path fill="none" stroke="#8a38f5" style="stroke: var(--color1, #8a38f5)" stroke-linejoin="round" stroke-linecap="round" stroke-miterlimit="4" stroke-width="1.4222" d="M13.497 8.848h4.65"></path>
</symbol>
<symbol id="icon-target-focus" viewBox="0 0 29 32">
<path fill="none" stroke="#8a38f5" style="stroke: var(--color1, #8a38f5)" stroke-linejoin="round" stroke-linecap="round" stroke-miterlimit="4" stroke-width="1.3617" d="M10.48 4.766l1.004-2.591c0.169-0.439 0.467-0.816 0.854-1.083s0.846-0.41 1.316-0.411h1.914c0.47 0.001 0.929 0.145 1.316 0.411s0.685 0.644 0.854 1.083l1.004 2.591 3.408 1.961 2.755-0.42c0.459-0.062 0.925 0.013 1.341 0.217s0.761 0.526 0.993 0.927l0.934 1.634c0.239 0.407 0.349 0.877 0.316 1.348s-0.209 0.921-0.503 1.29l-1.704 2.171v3.922l1.751 2.171c0.294 0.369 0.47 0.819 0.503 1.29s-0.077 0.941-0.316 1.348l-0.934 1.634c-0.232 0.401-0.578 0.723-0.993 0.927s-0.882 0.279-1.341 0.217l-2.755-0.42-3.408 1.961-1.004 2.591c-0.169 0.439-0.467 0.816-0.855 1.083s-0.846 0.41-1.316 0.411h-1.961c-0.47-0.001-0.929-0.145-1.316-0.411s-0.685-0.644-0.854-1.083l-1.004-2.591-3.408-1.961-2.755 0.42c-0.459 0.062-0.925-0.013-1.341-0.217s-0.761-0.526-0.993-0.927l-0.934-1.634c-0.239-0.407-0.349-0.877-0.316-1.348s0.209-0.921 0.503-1.29l1.704-2.171v-3.922l-1.751-2.171c-0.294-0.369-0.47-0.819-0.503-1.29s0.077-0.941 0.316-1.348l0.934-1.634c0.232-0.401 0.578-0.723 0.993-0.927s0.882-0.279 1.341-0.217l2.755 0.42 3.455-1.961zM9.943 15.854c0 0.923 0.274 1.826 0.787 2.594s1.242 1.366 2.095 1.72 1.792 0.446 2.697 0.266c0.906-0.18 1.737-0.625 2.39-1.278s1.098-1.485 1.278-2.39c0.18-0.906 0.088-1.844-0.266-2.697s-0.952-1.582-1.72-2.095c-0.768-0.513-1.67-0.787-2.594-0.787-1.238 0-2.426 0.492-3.301 1.367s-1.367 2.063-1.367 3.301v0z"></path>
</symbol>
<symbol id="icon-structure-tools" viewBox="0 0 32 32">
<path fill="none" stroke="#8a38f5" style="stroke: var(--color1, #8a38f5)" stroke-linejoin="round" stroke-linecap="round" stroke-miterlimit="4" stroke-width="1.4222" d="M0.711 3.063v25.873c0 1.299 1.053 2.352 2.352 2.352h25.873c1.299 0 2.352-1.053 2.352-2.352v-25.873c0-1.299-1.053-2.352-2.352-2.352h-25.873c-1.299 0-2.352 1.053-2.352 2.352z"></path>
<path fill="none" stroke="#8a38f5" style="stroke: var(--color1, #8a38f5)" stroke-linejoin="round" stroke-linecap="round" stroke-miterlimit="4" stroke-width="1.4222" d="M10.12 25.409v-11.761"></path>
<path fill="none" stroke="#8a38f5" style="stroke: var(--color1, #8a38f5)" stroke-linejoin="round" stroke-linecap="round" stroke-miterlimit="4" stroke-width="1.4222" d="M10.12 13.648c1.949 0 3.528-1.58 3.528-3.528s-1.58-3.528-3.528-3.528c-1.949 0-3.528 1.58-3.528 3.528s1.58 3.528 3.528 3.528z"></path>
<path fill="none" stroke="#8a38f5" style="stroke: var(--color1, #8a38f5)" stroke-linejoin="round" stroke-linecap="round" stroke-miterlimit="4" stroke-width="1.4222" d="M21.88 6.591v7.056"></path>
<path fill="none" stroke="#8a38f5" style="stroke: var(--color1, #8a38f5)" stroke-linejoin="round" stroke-linecap="round" stroke-miterlimit="4" stroke-width="1.4222" d="M21.88 20.704v4.704"></path>
<path fill="none" stroke="#8a38f5" style="stroke: var(--color1, #8a38f5)" stroke-linejoin="round" stroke-linecap="round" stroke-miterlimit="4" stroke-width="1.4222" d="M21.88 20.704c1.948 0 3.528-1.58 3.528-3.528s-1.58-3.528-3.528-3.528c-1.949 0-3.528 1.58-3.528 3.528s1.58 3.528 3.528 3.528z"></path>
</symbol>
<symbol id="icon-chart-up" viewBox="0 0 29 32">
<path fill="none" stroke="#8a38f5" style="stroke: var(--color1, #8a38f5)" stroke-linejoin="round" stroke-linecap="round" stroke-miterlimit="4" stroke-width="1.3061" d="M14.694 23.001v2.364"></path>
<path fill="none" stroke="#8a38f5" style="stroke: var(--color1, #8a38f5)" stroke-linejoin="round" stroke-linecap="round" stroke-miterlimit="4" stroke-width="1.3061" d="M14.694 11.277v2.2"></path>
<path fill="none" stroke="#8a38f5" style="stroke: var(--color1, #8a38f5)" stroke-linejoin="round" stroke-linecap="round" stroke-miterlimit="4" stroke-width="1.3061" d="M14.694 31.122c8.19 0 14.041-2.902 14.041-9.361 0-7.020-3.51-11.701-10.531-15.211l2.761-3.557c0.14-0.233 0.216-0.5 0.221-0.772s-0.064-0.541-0.197-0.778c-0.133-0.238-0.327-0.436-0.561-0.574s-0.501-0.213-0.773-0.215h-9.922c-0.272 0.002-0.539 0.077-0.773 0.215s-0.428 0.337-0.561 0.574c-0.133 0.238-0.201 0.506-0.197 0.778s0.080 0.539 0.221 0.772l2.761 3.58c-7.020 3.534-10.531 8.214-10.531 15.234 0 6.412 5.85 9.314 14.041 9.314z"></path>
<path fill="none" stroke="#8a38f5" style="stroke: var(--color1, #8a38f5)" stroke-linejoin="round" stroke-linecap="round" stroke-miterlimit="4" stroke-width="1.3061" d="M12.354 21.925c0.286 0.339 0.645 0.608 1.050 0.786s0.847 0.262 1.29 0.243c0.677 0.046 1.345-0.172 1.864-0.608s0.849-1.057 0.92-1.732c-0.071-0.675-0.401-1.295-0.92-1.732s-1.188-0.654-1.864-0.608c-0.677 0.046-1.345-0.172-1.864-0.608s-0.849-1.057-0.92-1.732c0.065-0.677 0.394-1.301 0.914-1.739s1.192-0.653 1.87-0.601c0.435-0.027 0.87 0.044 1.275 0.205s0.768 0.411 1.065 0.731"></path>
</symbol>
<symbol id="icon-scale-grow" viewBox="0 0 32 32">
<path fill="none" stroke="#8a38f5" style="stroke: var(--color1, #8a38f5)" stroke-linejoin="round" stroke-linecap="round" stroke-miterlimit="4" stroke-width="1.3061" d="M19.312 30.974h-18.659v-22.157l9.329-8.163 9.329 8.163v22.157z"></path>
<path fill="none" stroke="#8a38f5" style="stroke: var(--color1, #8a38f5)" stroke-linejoin="round" stroke-linecap="round" stroke-miterlimit="4" stroke-width="1.3061" d="M19.312 30.974h11.662v-16.327h-11.662"></path>
<path fill="none" stroke="#8a38f5" style="stroke: var(--color1, #8a38f5)" stroke-linejoin="round" stroke-linecap="round" stroke-miterlimit="4" stroke-width="1.3061" d="M9.982 30.974v-4.665"></path>
<path fill="none" stroke="#8a38f5" style="stroke: var(--color1, #8a38f5)" stroke-linejoin="round" stroke-linecap="round" stroke-miterlimit="4" stroke-width="1.3061" d="M6.484 19.312h6.997"></path>
<path fill="none" stroke="#8a38f5" style="stroke: var(--color1, #8a38f5)" stroke-linejoin="round" stroke-linecap="round" stroke-miterlimit="4" stroke-width="1.3061" d="M6.484 12.315h6.997"></path>
</symbol>
<symbol id="icon-collaps-arrow" viewBox="0 0 71 32">
<path fill="none" stroke="#a066ff" style="stroke: var(--color1, #a066ff)" stroke-linejoin="miter" stroke-linecap="butt" stroke-miterlimit="4" stroke-width="7.1111" d="M1.972 2.958l32 21.333 32-21.333"></path>
</symbol>
<symbol id="icon-recruitmanet" viewBox="0 0 32 32">
<path fill="none" stroke="#8a38f5" style="stroke: var(--color1, #8a38f5)" stroke-linejoin="round" stroke-linecap="round" stroke-miterlimit="4" stroke-width="2" d="M30.714 23.857v4.571c0 0.606-0.241 1.188-0.669 1.616s-1.010 0.669-1.616 0.669h-4.572"></path>
<path fill="none" stroke="#8a38f5" style="stroke: var(--color1, #8a38f5)" stroke-linejoin="round" stroke-linecap="round" stroke-miterlimit="4" stroke-width="2" d="M23.857 1h4.572c0.606 0 1.188 0.241 1.616 0.669s0.669 1.010 0.669 1.616v4.571"></path>
<path fill="none" stroke="#8a38f5" style="stroke: var(--color1, #8a38f5)" stroke-linejoin="round" stroke-linecap="round" stroke-miterlimit="4" stroke-width="2" d="M1 7.857v-4.571c0-0.606 0.241-1.188 0.669-1.616s1.010-0.669 1.616-0.669h4.571"></path>
<path fill="none" stroke="#8a38f5" style="stroke: var(--color1, #8a38f5)" stroke-linejoin="round" stroke-linecap="round" stroke-miterlimit="4" stroke-width="2" d="M7.857 30.714h-4.571c-0.606 0-1.188-0.241-1.616-0.669s-0.669-1.010-0.669-1.616v-4.571"></path>
<path fill="none" stroke="#8a38f5" style="stroke: var(--color1, #8a38f5)" stroke-linejoin="round" stroke-linecap="round" stroke-miterlimit="4" stroke-width="2" d="M26.143 15.857c0 0-4.572 6.857-10.286 6.857s-10.286-6.857-10.286-6.857 4.571-6.857 10.286-6.857c5.714 0 10.286 6.857 10.286 6.857z"></path>
<path fill="none" stroke="#8a38f5" style="stroke: var(--color1, #8a38f5)" stroke-linejoin="round" stroke-linecap="round" stroke-miterlimit="4" stroke-width="2" d="M15.857 17c0.631 0 1.143-0.512 1.143-1.143s-0.512-1.143-1.143-1.143c-0.631 0-1.143 0.512-1.143 1.143s0.512 1.143 1.143 1.143z"></path>
</symbol>
<symbol id="icon-hr" viewBox="0 0 32 32">
<path fill="none" stroke="#8a38f5" style="stroke: var(--color1, #8a38f5)" stroke-linejoin="round" stroke-linecap="round" stroke-miterlimit="4" stroke-width="1.8824" d="M16.834 30.903c-0.537 0.207-1.131 0.207-1.668 0v0c-4.192-1.644-7.791-4.513-10.328-8.233s-3.895-8.119-3.897-12.622v-6.79c0-0.615 0.244-1.204 0.679-1.639s1.024-0.679 1.638-0.679h25.484c0.614 0 1.204 0.244 1.638 0.679s0.679 1.024 0.679 1.639v6.766c0.003 4.507-1.352 8.911-3.89 12.636s-6.139 6.597-10.335 8.243v0z"></path>
<path fill="none" stroke="#8a38f5" style="stroke: var(--color1, #8a38f5)" stroke-linejoin="round" stroke-linecap="round" stroke-miterlimit="4" stroke-width="1.8824" d="M16 18.321c3.199 0 5.792-2.594 5.792-5.793s-2.593-5.793-5.792-5.793-5.792 2.594-5.792 5.793c0 3.2 2.593 5.793 5.792 5.793z"></path>
<path fill="none" stroke="#8a38f5" style="stroke: var(--color1, #8a38f5)" stroke-linejoin="round" stroke-linecap="round" stroke-miterlimit="4" stroke-width="1.8824" d="M7.312 25.713c1.087-1.233 2.424-2.22 3.922-2.897s3.123-1.026 4.766-1.026c1.643 0 3.268 0.35 4.766 1.026s2.835 1.664 3.922 2.897"></path>
</symbol>
<symbol id="icon-business" viewBox="0 0 32 32">
<path fill="none" stroke="#8a38f5" style="stroke: var(--color1, #8a38f5)" stroke-linejoin="round" stroke-linecap="round" stroke-miterlimit="4" stroke-width="2" d="M18.143 30.714h-14.857c-0.606 0-1.188-0.241-1.616-0.669s-0.669-1.010-0.669-1.616v-25.143c0-0.606 0.241-1.188 0.669-1.616s1.010-0.669 1.616-0.669h17.143"></path>
<path fill="none" stroke="#8a38f5" style="stroke: var(--color1, #8a38f5)" stroke-linejoin="round" stroke-linecap="round" stroke-miterlimit="4" stroke-width="2" d="M23.857 7.857l3.429-6.857 3.429 6.857v19.429c0 0.909-0.361 1.781-1.004 2.424s-1.515 1.004-2.424 1.004c-0.909 0-1.781-0.361-2.424-1.004s-1.004-1.515-1.004-2.424v-19.429z"></path>
<path fill="none" stroke="#8a38f5" style="stroke: var(--color1, #8a38f5)" stroke-linejoin="round" stroke-linecap="round" stroke-miterlimit="4" stroke-width="2" d="M23.857 21.572h6.857"></path>
<path fill="none" stroke="#8a38f5" style="stroke: var(--color1, #8a38f5)" stroke-linejoin="round" stroke-linecap="round" stroke-miterlimit="4" stroke-width="2" d="M7.857 1v29.714"></path>
<path fill="none" stroke="#8a38f5" style="stroke: var(--color1, #8a38f5)" stroke-linejoin="round" stroke-linecap="round" stroke-miterlimit="4" stroke-width="2" d="M13.571 9h4.572"></path>
</symbol>
<symbol id="icon-career" viewBox="0 0 32 32">
<path fill="none" stroke="#8a38f5" style="stroke: var(--color1, #8a38f5)" stroke-linejoin="round" stroke-linecap="round" stroke-miterlimit="4" stroke-width="2" d="M3.286 30.714h25.143c1.262 0 2.286-1.023 2.286-2.286v-25.143c0-1.262-1.023-2.286-2.286-2.286h-25.143c-1.262 0-2.286 1.023-2.286 2.286v25.143c0 1.262 1.023 2.286 2.286 2.286z"></path>
<path fill="none" stroke="#8a38f5" style="stroke: var(--color1, #8a38f5)" stroke-linejoin="round" stroke-linecap="round" stroke-miterlimit="4" stroke-width="2" d="M6.714 6.714h4.571"></path>
<path fill="none" stroke="#8a38f5" style="stroke: var(--color1, #8a38f5)" stroke-linejoin="round" stroke-linecap="round" stroke-miterlimit="4" stroke-width="2" d="M6.714 12.428h10.286"></path>
<path fill="none" stroke="#8a38f5" style="stroke: var(--color1, #8a38f5)" stroke-linejoin="round" stroke-linecap="round" stroke-miterlimit="4" stroke-width="2" d="M26.143 12.428l-6.857 11.428-8-4.571-4.571 6.857"></path>
</symbol>
<symbol id="icon-phd" viewBox="0 0 32 32">
<path fill="none" stroke="#8a38f5" style="stroke: var(--color1, #8a38f5)" stroke-linejoin="round" stroke-linecap="round" stroke-miterlimit="4" stroke-width="2" d="M16.973 2.216l3.634 7.337c0.083 0.186 0.213 0.348 0.377 0.468s0.358 0.195 0.56 0.218l8.023 1.189c0.232 0.030 0.451 0.125 0.631 0.275s0.314 0.348 0.386 0.57c0.072 0.223 0.079 0.462 0.020 0.688s-0.181 0.432-0.352 0.592l-5.783 5.737c-0.148 0.138-0.258 0.311-0.322 0.502s-0.079 0.396-0.043 0.595l1.394 8.069c0.040 0.232 0.015 0.47-0.074 0.688s-0.236 0.407-0.427 0.545c-0.191 0.138-0.416 0.22-0.651 0.236s-0.469-0.034-0.677-0.144l-7.223-3.817c-0.185-0.091-0.388-0.138-0.594-0.138s-0.409 0.047-0.594 0.138l-7.223 3.817c-0.208 0.11-0.442 0.16-0.677 0.144s-0.46-0.098-0.651-0.236c-0.191-0.138-0.338-0.327-0.427-0.545s-0.114-0.457-0.074-0.688l1.394-8.16c0.035-0.199 0.020-0.403-0.043-0.595s-0.175-0.364-0.322-0.502l-5.851-5.646c-0.173-0.164-0.295-0.375-0.35-0.607s-0.043-0.475 0.037-0.7c0.080-0.225 0.223-0.422 0.413-0.567s0.417-0.232 0.655-0.251l8.023-1.189c0.203-0.022 0.396-0.098 0.56-0.218s0.294-0.282 0.377-0.468l3.634-7.337c0.099-0.214 0.257-0.395 0.456-0.521s0.429-0.194 0.665-0.194 0.466 0.067 0.665 0.194c0.198 0.127 0.357 0.308 0.455 0.521v0z"></path>
</symbol>
</defs>
</svg>
