<svg width="132" height="55" viewBox="0 0 132 55" fill="none" xmlns="http://www.w3.org/2000/svg">
<path d="M67.6356 55.0007H58.3477V21.9929L67.6356 9.10156V55.0007Z" fill="#A066FF"/>
<path fill-rule="evenodd" clip-rule="evenodd" d="M0.761719 54.988L0.761719 0L10.0802 0L33.9003 33.0886L58.0162 0L67.452 0L58.0203 13.2424L33.8268 46.7171H33.6411L9.49239 13.787L9.49239 54.988H0.761719Z" fill="#020202"/>
<path d="M85.4744 3.68358H81.0688L73.2305 22.3304H76.6347L78.1223 18.8254H88.4209L89.9085 22.3304H93.3413L85.4744 3.68358ZM79.2666 16.1055L82.8139 7.63727C82.9855 7.24471 83.0714 6.85214 83.0714 6.43154V5.61837H83.4719L83.5005 6.51566C83.5005 6.90822 83.5863 7.30079 83.7293 7.66531L87.2766 16.1055H79.2666Z" fill="#020202"/>
<path d="M105.545 14.9558V17.6757H109.093C107.634 19.1058 105.517 20.0031 103.171 20.0031C98.7939 20.0031 95.2466 16.8626 95.2466 12.993C95.2466 9.15145 98.7939 6.01093 103.171 6.01093C105.059 6.01093 106.804 6.59978 108.148 7.55315H112.382C110.38 4.97344 107.004 3.29102 103.171 3.29102C97.0489 3.29102 92.0998 7.63727 92.0998 12.993C92.0998 18.3767 97.0489 22.723 103.171 22.723C105.316 22.723 107.319 22.1902 109.007 21.2649C109.579 20.9564 110.008 20.4798 110.294 19.947L110.523 19.4983L110.895 19.6946L110.637 20.1994C110.437 20.62 110.323 21.0967 110.323 21.5733V22.3304H113.469V14.9558H105.545Z" fill="#020202"/>
<path d="M128.816 6.4035V3.68358H114.97V22.3304H128.816V19.6105H118.117V12.2359H125.269V9.51598H118.117V6.4035H128.816Z" fill="#020202"/>
<path d="M89.1647 46.7255C89.1647 47.062 89.2219 47.3985 89.3363 47.707L89.7654 48.9688L89.3649 49.109L88.9358 47.8752C88.8214 47.5387 88.6498 47.2303 88.4495 46.9499L77.6646 33.126H74.5178V51.7728H77.6646V38.1732C77.6646 37.8368 77.6074 37.5003 77.5216 37.1918L77.0638 35.902L77.4643 35.7618L77.8934 37.0236C78.0079 37.3601 78.1795 37.6405 78.3798 37.9209L89.1647 51.7728H92.3401V33.126H89.1647V46.7255Z" fill="#020202"/>
<path d="M104.791 49.4455C100.414 49.4455 96.867 46.3049 96.867 42.4354C96.867 38.5938 100.414 35.4533 104.791 35.4533C106.679 35.4533 108.424 36.0422 109.769 36.9955H114.003C112 34.4158 108.625 32.7334 104.791 32.7334C98.6692 32.7334 93.7202 37.0797 93.7202 42.4354C93.7202 47.8191 98.6692 52.1654 104.791 52.1654C108.625 52.1654 112 50.4549 114.003 47.8752H109.769C108.424 48.8566 106.679 49.4455 104.791 49.4455Z" fill="#020202"/>
<path d="M128.67 33.0699L123.292 43.6972C123.063 44.1178 122.949 44.5945 122.949 45.0712V45.6039H122.52V45.0712C122.52 44.5945 122.405 44.1178 122.177 43.6972L116.798 33.0699H113.709L121.147 47.735V51.7728H124.322V47.735L131.76 33.0699H128.67Z" fill="#020202"/>
</svg>
