<svg  viewBox="0 0 328 400" fill="none" preserveAspectRatio="none" xmlns="http://www.w3.org/2000/svg">
<path d="M297 0.75C313.707 0.75 327.25 14.2934 327.25 31V368.839C327.25 385.545 313.707 399.089 297 399.089H27.4932C27.4862 399.089 27.4755 399.09 27.4619 399.091C27.4348 399.092 27.3946 399.095 27.3418 399.098C27.2359 399.103 27.079 399.111 26.877 399.121C26.4729 399.14 25.8859 399.166 25.1523 399.188C23.6845 399.234 21.6294 399.271 19.2812 399.236C14.5893 399.168 8.70773 398.814 3.99512 397.669C2.64554 397.341 1.58791 396.349 1.05078 395.089L0.956055 394.866C0.839424 394.592 0.744075 394.396 0.750977 394.035C0.774842 392.801 1.68605 391.994 2.71777 391.361C3.23891 391.042 3.81557 390.752 4.36133 390.47C4.91256 390.185 5.43359 389.908 5.86621 389.604L10.3115 386.489C11.9104 385.369 12.8632 383.539 12.8633 381.587V328.698L12.8691 324.447C12.9262 302.934 13.367 276.873 12.8633 214.912C12.8378 211.773 12.8252 208.621 12.8252 205.451V31C12.8252 14.2934 26.3686 0.750021 43.0752 0.75H297Z"  stroke="#B5CADD" stroke-width="0.5"/>
</svg>
