<svg width="632" height="146" viewBox="0 0 632 146" fill="none" xmlns="http://www.w3.org/2000/svg">
<path d="M0 79.5025V133C0 138.522 4.47714 143 9.99999 143H49.2644H139.125C144.647 143 149.125 138.522 149.125 133V79.5025C149.125 73.9797 153.602 69.5025 159.125 69.5025H283.988C289.511 69.5025 293.988 65.0254 293.988 59.5025V11.3313C293.988 5.80845 289.511 1.3313 283.988 1.3313H93.35C87.8271 1.3313 83.35 5.80845 83.35 11.3313V59.5025C83.35 65.0254 78.8728 69.5025 73.35 69.5025H10C4.47715 69.5025 0 73.9797 0 79.5025Z" fill="url(#paint0_linear_916_4981)"/>
<circle cx="12.5156" cy="83.0838" r="5.05958" fill="white"/>
<path d="M160.309 133V91.2448C160.309 85.7219 164.786 81.2448 170.309 81.2448H341.825C347.348 81.2448 351.825 76.7676 351.825 71.2448V35.8306C351.825 30.3077 356.303 25.8306 361.825 25.8306H406.484C412.007 25.8306 416.484 30.3077 416.484 35.8306V133C416.484 138.523 412.007 143 406.484 143H170.309C164.786 143 160.309 138.523 160.309 133Z" fill="white" stroke="url(#paint1_linear_916_4981)" stroke-width="5"/>
<circle cx="365.089" cy="38.8789" r="5.05958" fill="url(#paint2_linear_916_4981)"/>
<path d="M303.575 10V55.242C303.575 60.7649 308.052 65.242 313.575 65.242H331.655C337.178 65.242 341.655 60.7648 341.655 55.242V26.7765C341.655 21.2537 346.132 16.7765 351.655 16.7765H415.271C420.794 16.7765 425.271 21.2537 425.271 26.7765V133C425.271 138.523 429.749 143 435.271 143H504.893H543.772H621.649C627.172 143 631.649 138.523 631.649 133V10C631.649 4.47715 627.172 0 621.649 0H313.575C308.052 0 303.575 4.47716 303.575 10Z" fill="url(#paint3_linear_916_4981)"/>
<circle cx="440.716" cy="128.886" r="5.05958" fill="white"/>
<defs>
<linearGradient id="paint0_linear_916_4981" x1="146.994" y1="1.3313" x2="146.994" y2="143" gradientUnits="userSpaceOnUse">
<stop stop-color="#5427B1"/>
<stop offset="1" stop-color="#A066FF"/>
</linearGradient>
<linearGradient id="paint1_linear_916_4981" x1="288.396" y1="25.8306" x2="288.396" y2="143" gradientUnits="userSpaceOnUse">
<stop stop-color="#A066FF"/>
<stop offset="1" stop-color="#5427B1"/>
</linearGradient>
<linearGradient id="paint2_linear_916_4981" x1="360.029" y1="38.8789" x2="370.148" y2="38.8789" gradientUnits="userSpaceOnUse">
<stop stop-color="#A066FF"/>
<stop offset="1" stop-color="#5427B1"/>
</linearGradient>
<linearGradient id="paint3_linear_916_4981" x1="460.023" y1="0" x2="460.023" y2="143" gradientUnits="userSpaceOnUse">
<stop stop-color="#5427B1"/>
<stop offset="1" stop-color="#A066FF"/>
</linearGradient>
</defs>
</svg>
