<svg width="267" height="225" viewBox="0 0 267 225" fill="none" xmlns="http://www.w3.org/2000/svg">
<g filter="url(#filter0_d_206_5783)">
<g filter="url(#filter1_d_206_5783)">
<path d="M66.75 38.7204C66.75 29.5292 74.2212 22.0784 83.4375 22.0784H216.938C226.153 22.0784 233.625 29.5292 233.625 38.7204V130.251C233.625 139.443 226.153 146.893 216.938 146.893H83.4375C74.2212 146.893 66.75 139.443 66.75 130.251V38.7204Z" fill="url(#paint0_linear_206_5783)"/>
</g>
<g filter="url(#filter2_dd_206_5783)">
<path d="M33.375 63.6834C33.375 59.0879 37.1107 55.3624 41.7188 55.3624H191.906C196.514 55.3624 200.25 59.0879 200.25 63.6834V80.3254C200.25 84.9209 196.514 88.6465 191.906 88.6465H41.7188C37.1107 88.6465 33.375 84.9209 33.375 80.3254V63.6834Z" fill="white" fill-opacity="0.4"/>
</g>
<g filter="url(#filter3_dd_206_5783)">
<path d="M33.375 101.128C33.375 98.8301 35.2427 96.9675 37.5469 96.9675H179.391C181.695 96.9675 183.562 98.8301 183.562 101.128V117.77C183.562 120.068 181.695 121.93 179.391 121.93H37.5469C35.2427 121.93 33.375 120.068 33.375 117.77V101.128Z" fill="white" fill-opacity="0.4"/>
</g>
<g filter="url(#filter4_dd_206_5783)">
<path d="M33.375 134.412C33.375 132.114 35.2427 130.251 37.5469 130.251H112.641C114.945 130.251 116.812 132.114 116.812 134.412V142.733C116.812 145.031 114.945 146.893 112.641 146.893H37.5469C35.2427 146.893 33.375 145.031 33.375 142.733V134.412Z" fill="white" fill-opacity="0.4"/>
</g>
<g filter="url(#filter5_dd_206_5783)">
<path d="M141.187 190.086C150.978 205.956 168.849 205.879 179.123 204.658C199.669 202.214 214.061 190.687 209.989 151.912C208.857 141.141 200.588 136.673 190.88 143.28C187.181 132.815 169.296 135.851 170.333 145.724L168.071 124.183C167.222 116.105 162.763 108.456 153.533 109.554C144.303 110.653 144.391 121.547 145.459 131.729L149.48 170.015L140.645 160.162C137.793 157.774 130.324 151.029 124.386 153.917C118.448 156.804 117.53 162.911 120.664 167.991C123.798 173.071 134.919 179.927 141.187 190.086Z" fill="white" fill-opacity="0.6"/>
</g>
</g>
<defs>
<filter id="filter0_d_206_5783" x="29.375" y="18.0784" width="216.25" height="199.062" filterUnits="userSpaceOnUse" color-interpolation-filters="sRGB">
<feFlood flood-opacity="0" result="BackgroundImageFix"/>
<feColorMatrix in="SourceAlpha" type="matrix" values="0 0 0 0 0 0 0 0 0 0 0 0 0 0 0 0 0 0 127 0" result="hardAlpha"/>
<feOffset dx="4" dy="4"/>
<feGaussianBlur stdDeviation="4"/>
<feColorMatrix type="matrix" values="0 0 0 0 0.615686 0 0 0 0 0.407843 0 0 0 0 0.952941 0 0 0 0.4 0"/>
<feBlend mode="normal" in2="BackgroundImageFix" result="effect1_dropShadow_206_5783"/>
<feBlend mode="normal" in="SourceGraphic" in2="effect1_dropShadow_206_5783" result="shape"/>
</filter>
<filter id="filter1_d_206_5783" x="58.75" y="14.0784" width="182.875" height="140.815" filterUnits="userSpaceOnUse" color-interpolation-filters="sRGB">
<feFlood flood-opacity="0" result="BackgroundImageFix"/>
<feColorMatrix in="SourceAlpha" type="matrix" values="0 0 0 0 0 0 0 0 0 0 0 0 0 0 0 0 0 0 127 0" result="hardAlpha"/>
<feOffset/>
<feGaussianBlur stdDeviation="4"/>
<feComposite in2="hardAlpha" operator="out"/>
<feColorMatrix type="matrix" values="0 0 0 0 1 0 0 0 0 1 0 0 0 0 1 0 0 0 0.8 0"/>
<feBlend mode="normal" in2="BackgroundImageFix" result="effect1_dropShadow_206_5783"/>
<feBlend mode="normal" in="SourceGraphic" in2="effect1_dropShadow_206_5783" result="shape"/>
</filter>
<filter id="filter2_dd_206_5783" x="25.375" y="51.3624" width="182.875" height="49.284" filterUnits="userSpaceOnUse" color-interpolation-filters="sRGB">
<feFlood flood-opacity="0" result="BackgroundImageFix"/>
<feColorMatrix in="SourceAlpha" type="matrix" values="0 0 0 0 0 0 0 0 0 0 0 0 0 0 0 0 0 0 127 0" result="hardAlpha"/>
<feOffset/>
<feGaussianBlur stdDeviation="2"/>
<feComposite in2="hardAlpha" operator="out"/>
<feColorMatrix type="matrix" values="0 0 0 0 1 0 0 0 0 1 0 0 0 0 1 0 0 0 1 0"/>
<feBlend mode="normal" in2="BackgroundImageFix" result="effect1_dropShadow_206_5783"/>
<feColorMatrix in="SourceAlpha" type="matrix" values="0 0 0 0 0 0 0 0 0 0 0 0 0 0 0 0 0 0 127 0" result="hardAlpha"/>
<feOffset dy="4"/>
<feGaussianBlur stdDeviation="4"/>
<feComposite in2="hardAlpha" operator="out"/>
<feColorMatrix type="matrix" values="0 0 0 0 1 0 0 0 0 1 0 0 0 0 1 0 0 0 1 0"/>
<feBlend mode="normal" in2="effect1_dropShadow_206_5783" result="effect2_dropShadow_206_5783"/>
<feBlend mode="normal" in="SourceGraphic" in2="effect2_dropShadow_206_5783" result="shape"/>
</filter>
<filter id="filter3_dd_206_5783" x="25.375" y="92.9675" width="166.188" height="40.963" filterUnits="userSpaceOnUse" color-interpolation-filters="sRGB">
<feFlood flood-opacity="0" result="BackgroundImageFix"/>
<feColorMatrix in="SourceAlpha" type="matrix" values="0 0 0 0 0 0 0 0 0 0 0 0 0 0 0 0 0 0 127 0" result="hardAlpha"/>
<feOffset/>
<feGaussianBlur stdDeviation="2"/>
<feComposite in2="hardAlpha" operator="out"/>
<feColorMatrix type="matrix" values="0 0 0 0 1 0 0 0 0 1 0 0 0 0 1 0 0 0 1 0"/>
<feBlend mode="normal" in2="BackgroundImageFix" result="effect1_dropShadow_206_5783"/>
<feColorMatrix in="SourceAlpha" type="matrix" values="0 0 0 0 0 0 0 0 0 0 0 0 0 0 0 0 0 0 127 0" result="hardAlpha"/>
<feOffset dy="4"/>
<feGaussianBlur stdDeviation="4"/>
<feComposite in2="hardAlpha" operator="out"/>
<feColorMatrix type="matrix" values="0 0 0 0 1 0 0 0 0 1 0 0 0 0 1 0 0 0 1 0"/>
<feBlend mode="normal" in2="effect1_dropShadow_206_5783" result="effect2_dropShadow_206_5783"/>
<feBlend mode="normal" in="SourceGraphic" in2="effect2_dropShadow_206_5783" result="shape"/>
</filter>
<filter id="filter4_dd_206_5783" x="25.375" y="126.251" width="99.4375" height="32.642" filterUnits="userSpaceOnUse" color-interpolation-filters="sRGB">
<feFlood flood-opacity="0" result="BackgroundImageFix"/>
<feColorMatrix in="SourceAlpha" type="matrix" values="0 0 0 0 0 0 0 0 0 0 0 0 0 0 0 0 0 0 127 0" result="hardAlpha"/>
<feOffset/>
<feGaussianBlur stdDeviation="2"/>
<feComposite in2="hardAlpha" operator="out"/>
<feColorMatrix type="matrix" values="0 0 0 0 1 0 0 0 0 1 0 0 0 0 1 0 0 0 1 0"/>
<feBlend mode="normal" in2="BackgroundImageFix" result="effect1_dropShadow_206_5783"/>
<feColorMatrix in="SourceAlpha" type="matrix" values="0 0 0 0 0 0 0 0 0 0 0 0 0 0 0 0 0 0 127 0" result="hardAlpha"/>
<feOffset dy="4"/>
<feGaussianBlur stdDeviation="4"/>
<feComposite in2="hardAlpha" operator="out"/>
<feColorMatrix type="matrix" values="0 0 0 0 1 0 0 0 0 1 0 0 0 0 1 0 0 0 1 0"/>
<feBlend mode="normal" in2="effect1_dropShadow_206_5783" result="effect2_dropShadow_206_5783"/>
<feBlend mode="normal" in="SourceGraphic" in2="effect2_dropShadow_206_5783" result="shape"/>
</filter>
<filter id="filter5_dd_206_5783" x="110.898" y="105.449" width="107.782" height="111.691" filterUnits="userSpaceOnUse" color-interpolation-filters="sRGB">
<feFlood flood-opacity="0" result="BackgroundImageFix"/>
<feColorMatrix in="SourceAlpha" type="matrix" values="0 0 0 0 0 0 0 0 0 0 0 0 0 0 0 0 0 0 127 0" result="hardAlpha"/>
<feOffset/>
<feGaussianBlur stdDeviation="2"/>
<feComposite in2="hardAlpha" operator="out"/>
<feColorMatrix type="matrix" values="0 0 0 0 1 0 0 0 0 1 0 0 0 0 1 0 0 0 1 0"/>
<feBlend mode="normal" in2="BackgroundImageFix" result="effect1_dropShadow_206_5783"/>
<feColorMatrix in="SourceAlpha" type="matrix" values="0 0 0 0 0 0 0 0 0 0 0 0 0 0 0 0 0 0 127 0" result="hardAlpha"/>
<feOffset dy="4"/>
<feGaussianBlur stdDeviation="4"/>
<feComposite in2="hardAlpha" operator="out"/>
<feColorMatrix type="matrix" values="0 0 0 0 1 0 0 0 0 1 0 0 0 0 1 0 0 0 1 0"/>
<feBlend mode="normal" in2="effect1_dropShadow_206_5783" result="effect2_dropShadow_206_5783"/>
<feBlend mode="normal" in="SourceGraphic" in2="effect2_dropShadow_206_5783" result="shape"/>
</filter>
<linearGradient id="paint0_linear_206_5783" x1="150.187" y1="22.0784" x2="150.187" y2="146.893" gradientUnits="userSpaceOnUse">
<stop stop-color="#6966FF"/>
<stop offset="1" stop-color="#9D68F3"/>
</linearGradient>
</defs>
</svg>
