<svg width="264" height="264" viewBox="0 0 264 264" fill="none" xmlns="http://www.w3.org/2000/svg">
<g filter="url(#filter0_d_208_7243)">
<path d="M156.75 160.875C156.75 140.371 173.371 123.75 193.875 123.75C214.378 123.75 231 140.371 231 160.875C231 181.379 214.378 198 193.875 198C173.371 198 156.75 181.379 156.75 160.875Z" fill="url(#paint0_linear_208_7243)"/>
</g>
<g filter="url(#filter1_d_208_7243)">
<path d="M66 132C66 127.444 69.6937 123.75 74.25 123.75H132C136.556 123.75 140.25 127.444 140.25 132V189.75C140.25 194.306 136.556 198 132 198H74.25C69.6937 198 66 194.306 66 189.75V132Z" fill="url(#paint1_linear_208_7243)"/>
</g>
<g filter="url(#filter2_d_208_7243)">
<path d="M117.916 33H88.3336C87.2396 33 86.1904 33.4346 85.4168 34.2082L67.2082 52.4168C66.4346 53.1904 66 54.2396 66 55.3336V84.9164C66 86.0104 66.4346 87.0596 67.2082 87.8332L85.4168 106.042C86.1904 106.815 87.2396 107.25 88.3336 107.25H117.916C119.01 107.25 120.06 106.815 120.833 106.042L139.042 87.8332C139.815 87.0596 140.25 86.0104 140.25 84.9164V55.3336C140.25 54.2396 139.815 53.1904 139.042 52.4168L120.833 34.2082C120.06 33.4346 119.01 33 117.916 33Z" fill="url(#paint2_linear_208_7243)"/>
</g>
<g filter="url(#filter3_d_208_7243)">
<path d="M192.03 36.6896C192.79 35.1693 194.96 35.1693 195.72 36.6896L229.507 104.265C230.194 105.637 229.195 107.25 227.663 107.25H160.087C158.554 107.25 157.557 105.637 158.242 104.265L192.03 36.6896Z" fill="url(#paint3_linear_208_7243)"/>
</g>
<g filter="url(#filter4_dd_208_7243)">
<path d="M123.75 193.875C123.75 173.371 140.371 156.75 160.875 156.75C181.379 156.75 198 173.371 198 193.875C198 214.378 181.379 231 160.875 231C140.371 231 123.75 214.378 123.75 193.875Z" fill="white" fill-opacity="0.4"/>
</g>
<g filter="url(#filter5_dd_208_7243)">
<path d="M33 165C33 160.444 36.6937 156.75 41.25 156.75H99C103.556 156.75 107.25 160.444 107.25 165V222.75C107.25 227.306 103.556 231 99 231H41.25C36.6937 231 33 227.306 33 222.75V165Z" fill="white" fill-opacity="0.4"/>
</g>
<g filter="url(#filter6_dd_208_7243)">
<path d="M84.9164 66H55.3336C54.2396 66 53.1904 66.4346 52.4168 67.2082L34.2082 85.4168C33.4346 86.1904 33 87.2396 33 88.3336V117.916C33 119.01 33.4346 120.06 34.2082 120.833L52.4168 139.042C53.1904 139.815 54.2396 140.25 55.3336 140.25H84.9164C86.0104 140.25 87.0596 139.815 87.8332 139.042L106.042 120.833C106.815 120.06 107.25 119.01 107.25 117.916V88.3336C107.25 87.2396 106.815 86.1904 106.042 85.4168L87.8332 67.2082C87.0596 66.4346 86.0104 66 84.9164 66Z" fill="white" fill-opacity="0.4"/>
</g>
<g filter="url(#filter7_dd_208_7243)">
<path d="M159.03 69.6896C159.79 68.1693 161.96 68.1693 162.72 69.6896L196.507 137.265C197.193 138.637 196.196 140.25 194.663 140.25H127.087C125.554 140.25 124.557 138.637 125.242 137.265L159.03 69.6896Z" fill="white" fill-opacity="0.4"/>
</g>
<defs>
<filter id="filter0_d_208_7243" x="148.75" y="115.75" width="90.25" height="90.25" filterUnits="userSpaceOnUse" color-interpolation-filters="sRGB">
<feFlood flood-opacity="0" result="BackgroundImageFix"/>
<feColorMatrix in="SourceAlpha" type="matrix" values="0 0 0 0 0 0 0 0 0 0 0 0 0 0 0 0 0 0 127 0" result="hardAlpha"/>
<feOffset/>
<feGaussianBlur stdDeviation="4"/>
<feComposite in2="hardAlpha" operator="out"/>
<feColorMatrix type="matrix" values="0 0 0 0 1 0 0 0 0 1 0 0 0 0 1 0 0 0 0.8 0"/>
<feBlend mode="normal" in2="BackgroundImageFix" result="effect1_dropShadow_208_7243"/>
<feBlend mode="normal" in="SourceGraphic" in2="effect1_dropShadow_208_7243" result="shape"/>
</filter>
<filter id="filter1_d_208_7243" x="58" y="115.75" width="90.25" height="90.25" filterUnits="userSpaceOnUse" color-interpolation-filters="sRGB">
<feFlood flood-opacity="0" result="BackgroundImageFix"/>
<feColorMatrix in="SourceAlpha" type="matrix" values="0 0 0 0 0 0 0 0 0 0 0 0 0 0 0 0 0 0 127 0" result="hardAlpha"/>
<feOffset/>
<feGaussianBlur stdDeviation="4"/>
<feComposite in2="hardAlpha" operator="out"/>
<feColorMatrix type="matrix" values="0 0 0 0 1 0 0 0 0 1 0 0 0 0 1 0 0 0 0.8 0"/>
<feBlend mode="normal" in2="BackgroundImageFix" result="effect1_dropShadow_208_7243"/>
<feBlend mode="normal" in="SourceGraphic" in2="effect1_dropShadow_208_7243" result="shape"/>
</filter>
<filter id="filter2_d_208_7243" x="58" y="25" width="90.25" height="90.25" filterUnits="userSpaceOnUse" color-interpolation-filters="sRGB">
<feFlood flood-opacity="0" result="BackgroundImageFix"/>
<feColorMatrix in="SourceAlpha" type="matrix" values="0 0 0 0 0 0 0 0 0 0 0 0 0 0 0 0 0 0 127 0" result="hardAlpha"/>
<feOffset/>
<feGaussianBlur stdDeviation="4"/>
<feComposite in2="hardAlpha" operator="out"/>
<feColorMatrix type="matrix" values="0 0 0 0 1 0 0 0 0 1 0 0 0 0 1 0 0 0 0.8 0"/>
<feBlend mode="normal" in2="BackgroundImageFix" result="effect1_dropShadow_208_7243"/>
<feBlend mode="normal" in="SourceGraphic" in2="effect1_dropShadow_208_7243" result="shape"/>
</filter>
<filter id="filter3_d_208_7243" x="150.022" y="27.5494" width="87.7056" height="87.7006" filterUnits="userSpaceOnUse" color-interpolation-filters="sRGB">
<feFlood flood-opacity="0" result="BackgroundImageFix"/>
<feColorMatrix in="SourceAlpha" type="matrix" values="0 0 0 0 0 0 0 0 0 0 0 0 0 0 0 0 0 0 127 0" result="hardAlpha"/>
<feOffset/>
<feGaussianBlur stdDeviation="4"/>
<feComposite in2="hardAlpha" operator="out"/>
<feColorMatrix type="matrix" values="0 0 0 0 1 0 0 0 0 1 0 0 0 0 1 0 0 0 0.8 0"/>
<feBlend mode="normal" in2="BackgroundImageFix" result="effect1_dropShadow_208_7243"/>
<feBlend mode="normal" in="SourceGraphic" in2="effect1_dropShadow_208_7243" result="shape"/>
</filter>
<filter id="filter4_dd_208_7243" x="115.75" y="152.75" width="90.25" height="90.25" filterUnits="userSpaceOnUse" color-interpolation-filters="sRGB">
<feFlood flood-opacity="0" result="BackgroundImageFix"/>
<feColorMatrix in="SourceAlpha" type="matrix" values="0 0 0 0 0 0 0 0 0 0 0 0 0 0 0 0 0 0 127 0" result="hardAlpha"/>
<feOffset/>
<feGaussianBlur stdDeviation="2"/>
<feComposite in2="hardAlpha" operator="out"/>
<feColorMatrix type="matrix" values="0 0 0 0 1 0 0 0 0 1 0 0 0 0 1 0 0 0 1 0"/>
<feBlend mode="normal" in2="BackgroundImageFix" result="effect1_dropShadow_208_7243"/>
<feColorMatrix in="SourceAlpha" type="matrix" values="0 0 0 0 0 0 0 0 0 0 0 0 0 0 0 0 0 0 127 0" result="hardAlpha"/>
<feOffset dy="4"/>
<feGaussianBlur stdDeviation="4"/>
<feComposite in2="hardAlpha" operator="out"/>
<feColorMatrix type="matrix" values="0 0 0 0 1 0 0 0 0 1 0 0 0 0 1 0 0 0 1 0"/>
<feBlend mode="normal" in2="effect1_dropShadow_208_7243" result="effect2_dropShadow_208_7243"/>
<feBlend mode="normal" in="SourceGraphic" in2="effect2_dropShadow_208_7243" result="shape"/>
</filter>
<filter id="filter5_dd_208_7243" x="25" y="152.75" width="90.25" height="90.25" filterUnits="userSpaceOnUse" color-interpolation-filters="sRGB">
<feFlood flood-opacity="0" result="BackgroundImageFix"/>
<feColorMatrix in="SourceAlpha" type="matrix" values="0 0 0 0 0 0 0 0 0 0 0 0 0 0 0 0 0 0 127 0" result="hardAlpha"/>
<feOffset/>
<feGaussianBlur stdDeviation="2"/>
<feComposite in2="hardAlpha" operator="out"/>
<feColorMatrix type="matrix" values="0 0 0 0 1 0 0 0 0 1 0 0 0 0 1 0 0 0 1 0"/>
<feBlend mode="normal" in2="BackgroundImageFix" result="effect1_dropShadow_208_7243"/>
<feColorMatrix in="SourceAlpha" type="matrix" values="0 0 0 0 0 0 0 0 0 0 0 0 0 0 0 0 0 0 127 0" result="hardAlpha"/>
<feOffset dy="4"/>
<feGaussianBlur stdDeviation="4"/>
<feComposite in2="hardAlpha" operator="out"/>
<feColorMatrix type="matrix" values="0 0 0 0 1 0 0 0 0 1 0 0 0 0 1 0 0 0 1 0"/>
<feBlend mode="normal" in2="effect1_dropShadow_208_7243" result="effect2_dropShadow_208_7243"/>
<feBlend mode="normal" in="SourceGraphic" in2="effect2_dropShadow_208_7243" result="shape"/>
</filter>
<filter id="filter6_dd_208_7243" x="25" y="62" width="90.25" height="90.25" filterUnits="userSpaceOnUse" color-interpolation-filters="sRGB">
<feFlood flood-opacity="0" result="BackgroundImageFix"/>
<feColorMatrix in="SourceAlpha" type="matrix" values="0 0 0 0 0 0 0 0 0 0 0 0 0 0 0 0 0 0 127 0" result="hardAlpha"/>
<feOffset/>
<feGaussianBlur stdDeviation="2"/>
<feComposite in2="hardAlpha" operator="out"/>
<feColorMatrix type="matrix" values="0 0 0 0 1 0 0 0 0 1 0 0 0 0 1 0 0 0 1 0"/>
<feBlend mode="normal" in2="BackgroundImageFix" result="effect1_dropShadow_208_7243"/>
<feColorMatrix in="SourceAlpha" type="matrix" values="0 0 0 0 0 0 0 0 0 0 0 0 0 0 0 0 0 0 127 0" result="hardAlpha"/>
<feOffset dy="4"/>
<feGaussianBlur stdDeviation="4"/>
<feComposite in2="hardAlpha" operator="out"/>
<feColorMatrix type="matrix" values="0 0 0 0 1 0 0 0 0 1 0 0 0 0 1 0 0 0 1 0"/>
<feBlend mode="normal" in2="effect1_dropShadow_208_7243" result="effect2_dropShadow_208_7243"/>
<feBlend mode="normal" in="SourceGraphic" in2="effect2_dropShadow_208_7243" result="shape"/>
</filter>
<filter id="filter7_dd_208_7243" x="117.022" y="64.5494" width="87.7061" height="87.7006" filterUnits="userSpaceOnUse" color-interpolation-filters="sRGB">
<feFlood flood-opacity="0" result="BackgroundImageFix"/>
<feColorMatrix in="SourceAlpha" type="matrix" values="0 0 0 0 0 0 0 0 0 0 0 0 0 0 0 0 0 0 127 0" result="hardAlpha"/>
<feOffset/>
<feGaussianBlur stdDeviation="2"/>
<feComposite in2="hardAlpha" operator="out"/>
<feColorMatrix type="matrix" values="0 0 0 0 1 0 0 0 0 1 0 0 0 0 1 0 0 0 1 0"/>
<feBlend mode="normal" in2="BackgroundImageFix" result="effect1_dropShadow_208_7243"/>
<feColorMatrix in="SourceAlpha" type="matrix" values="0 0 0 0 0 0 0 0 0 0 0 0 0 0 0 0 0 0 127 0" result="hardAlpha"/>
<feOffset dy="4"/>
<feGaussianBlur stdDeviation="4"/>
<feComposite in2="hardAlpha" operator="out"/>
<feColorMatrix type="matrix" values="0 0 0 0 1 0 0 0 0 1 0 0 0 0 1 0 0 0 1 0"/>
<feBlend mode="normal" in2="effect1_dropShadow_208_7243" result="effect2_dropShadow_208_7243"/>
<feBlend mode="normal" in="SourceGraphic" in2="effect2_dropShadow_208_7243" result="shape"/>
</filter>
<linearGradient id="paint0_linear_208_7243" x1="193.875" y1="123.75" x2="193.875" y2="198" gradientUnits="userSpaceOnUse">
<stop stop-color="#6966FF"/>
<stop offset="1" stop-color="#9D68F3"/>
</linearGradient>
<linearGradient id="paint1_linear_208_7243" x1="103.125" y1="123.75" x2="103.125" y2="198" gradientUnits="userSpaceOnUse">
<stop stop-color="#6966FF"/>
<stop offset="1" stop-color="#9D68F3"/>
</linearGradient>
<linearGradient id="paint2_linear_208_7243" x1="103.125" y1="33" x2="103.125" y2="107.25" gradientUnits="userSpaceOnUse">
<stop stop-color="#6966FF"/>
<stop offset="1" stop-color="#9D68F3"/>
</linearGradient>
<linearGradient id="paint3_linear_208_7243" x1="193.875" y1="35.5495" x2="193.875" y2="107.25" gradientUnits="userSpaceOnUse">
<stop stop-color="#6966FF"/>
<stop offset="1" stop-color="#9D68F3"/>
</linearGradient>
</defs>
</svg>
